ISO-10303-21;
HEADER;
FILE_DESCRIPTION(('FreeCAD Model'),'2;1');
FILE_NAME('Open CASCADE Shape Model','2025-09-15T19:03:58',(''),(''),
  'Open CASCADE STEP processor 7.8','FreeCAD','Unknown');
FILE_SCHEMA(('AUTOMOTIVE_DESIGN { 1 0 10303 214 1 1 1 1 }'));
ENDSEC;
DATA;
#1 = APPLICATION_PROTOCOL_DEFINITION('international standard',
  'automotive_design',2000,#2);
#2 = APPLICATION_CONTEXT(
  'core data for automotive mechanical design processes');
#3 = SHAPE_DEFINITION_REPRESENTATION(#4,#10);
#4 = PRODUCT_DEFINITION_SHAPE('','',#5);
#5 = PRODUCT_DEFINITION('design','',#6,#9);
#6 = PRODUCT_DEFINITION_FORMATION('','',#7);
#7 = PRODUCT('SOIC_standard','SOIC_standard','',(#8));
#8 = PRODUCT_CONTEXT('',#2,'mechanical');
#9 = PRODUCT_DEFINITION_CONTEXT('part definition',#2,'design');
#10 = SHAPE_REPRESENTATION('',(#11,#15,#19,#23),#27);
#11 = AXIS2_PLACEMENT_3D('',#12,#13,#14);
#12 = CARTESIAN_POINT('',(0.,0.,0.));
#13 = DIRECTION('',(0.,0.,1.));
#14 = DIRECTION('',(1.,0.,-0.));
#15 = AXIS2_PLACEMENT_3D('',#16,#17,#18);
#16 = CARTESIAN_POINT('',(0.,0.,0.));
#17 = DIRECTION('',(0.,0.,1.));
#18 = DIRECTION('',(1.,0.,0.));
#19 = AXIS2_PLACEMENT_3D('',#20,#21,#22);
#20 = CARTESIAN_POINT('',(0.,0.,0.));
#21 = DIRECTION('',(0.,0.,1.));
#22 = DIRECTION('',(1.,0.,0.));
#23 = AXIS2_PLACEMENT_3D('',#24,#25,#26);
#24 = CARTESIAN_POINT('',(0.,0.,0.));
#25 = DIRECTION('',(0.,0.,1.));
#26 = DIRECTION('',(1.,0.,0.));
#27 = ( GEOMETRIC_REPRESENTATION_CONTEXT(3) 
GLOBAL_UNCERTAINTY_ASSIGNED_CONTEXT((#31)) GLOBAL_UNIT_ASSIGNED_CONTEXT(
(#28,#29,#30)) REPRESENTATION_CONTEXT('Context #1',
  '3D Context with UNIT and UNCERTAINTY') );
#28 = ( LENGTH_UNIT() NAMED_UNIT(*) SI_UNIT(.MILLI.,.METRE.) );
#29 = ( NAMED_UNIT(*) PLANE_ANGLE_UNIT() SI_UNIT($,.RADIAN.) );
#30 = ( NAMED_UNIT(*) SI_UNIT($,.STERADIAN.) SOLID_ANGLE_UNIT() );
#31 = UNCERTAINTY_MEASURE_WITH_UNIT(LENGTH_MEASURE(5.E-07),#28,
  'distance_accuracy_value','confusion accuracy');
#32 = PRODUCT_RELATED_PRODUCT_CATEGORY('part',$,(#7));
#33 = SHAPE_DEFINITION_REPRESENTATION(#34,#40);
#34 = PRODUCT_DEFINITION_SHAPE('','',#35);
#35 = PRODUCT_DEFINITION('design','',#36,#39);
#36 = PRODUCT_DEFINITION_FORMATION('','',#37);
#37 = PRODUCT('Array001','Array001','',(#38));
#38 = PRODUCT_CONTEXT('',#2,'mechanical');
#39 = PRODUCT_DEFINITION_CONTEXT('part definition',#2,'design');
#40 = SHAPE_REPRESENTATION('',(#11,#41,#45,#49,#53,#57,#61,#65,#69),#73
  );
#41 = AXIS2_PLACEMENT_3D('',#42,#43,#44);
#42 = CARTESIAN_POINT('',(0.,0.,2.2225));
#43 = DIRECTION('',(0.,0.,1.));
#44 = DIRECTION('',(1.,0.,0.));
#45 = AXIS2_PLACEMENT_3D('',#46,#47,#48);
#46 = CARTESIAN_POINT('',(0.,0.,1.5875));
#47 = DIRECTION('',(0.,0.,1.));
#48 = DIRECTION('',(1.,0.,0.));
#49 = AXIS2_PLACEMENT_3D('',#50,#51,#52);
#50 = CARTESIAN_POINT('',(0.,0.,0.9525));
#51 = DIRECTION('',(0.,0.,1.));
#52 = DIRECTION('',(1.,0.,0.));
#53 = AXIS2_PLACEMENT_3D('',#54,#55,#56);
#54 = CARTESIAN_POINT('',(0.,0.,0.3175));
#55 = DIRECTION('',(0.,0.,1.));
#56 = DIRECTION('',(1.,0.,0.));
#57 = AXIS2_PLACEMENT_3D('',#58,#59,#60);
#58 = CARTESIAN_POINT('',(0.,0.,-0.3175));
#59 = DIRECTION('',(0.,0.,1.));
#60 = DIRECTION('',(1.,0.,0.));
#61 = AXIS2_PLACEMENT_3D('',#62,#63,#64);
#62 = CARTESIAN_POINT('',(0.,0.,-0.9525));
#63 = DIRECTION('',(0.,0.,1.));
#64 = DIRECTION('',(1.,0.,0.));
#65 = AXIS2_PLACEMENT_3D('',#66,#67,#68);
#66 = CARTESIAN_POINT('',(0.,0.,-1.5875));
#67 = DIRECTION('',(0.,0.,1.));
#68 = DIRECTION('',(1.,0.,0.));
#69 = AXIS2_PLACEMENT_3D('',#70,#71,#72);
#70 = CARTESIAN_POINT('',(0.,0.,-2.2225));
#71 = DIRECTION('',(0.,0.,1.));
#72 = DIRECTION('',(1.,0.,0.));
#73 = ( GEOMETRIC_REPRESENTATION_CONTEXT(3) 
GLOBAL_UNCERTAINTY_ASSIGNED_CONTEXT((#77)) GLOBAL_UNIT_ASSIGNED_CONTEXT(
(#74,#75,#76)) REPRESENTATION_CONTEXT('Context #1',
  '3D Context with UNIT and UNCERTAINTY') );
#74 = ( LENGTH_UNIT() NAMED_UNIT(*) SI_UNIT(.MILLI.,.METRE.) );
#75 = ( NAMED_UNIT(*) PLANE_ANGLE_UNIT() SI_UNIT($,.RADIAN.) );
#76 = ( NAMED_UNIT(*) SI_UNIT($,.STERADIAN.) SOLID_ANGLE_UNIT() );
#77 = UNCERTAINTY_MEASURE_WITH_UNIT(LENGTH_MEASURE(1.E-07),#74,
  'distance_accuracy_value','confusion accuracy');
#78 = CONTEXT_DEPENDENT_SHAPE_REPRESENTATION(#79,#81);
#79 = ( REPRESENTATION_RELATIONSHIP('','',#40,#10) 
REPRESENTATION_RELATIONSHIP_WITH_TRANSFORMATION(#80) 
SHAPE_REPRESENTATION_RELATIONSHIP() );
#80 = ITEM_DEFINED_TRANSFORMATION('','',#11,#15);
#81 = PRODUCT_DEFINITION_SHAPE('Placement','Placement of an item',#82);
#82 = NEXT_ASSEMBLY_USAGE_OCCURRENCE('2357','Array001','',#5,#35,$);
#83 = PRODUCT_RELATED_PRODUCT_CATEGORY('part',$,(#37));
#84 = SHAPE_DEFINITION_REPRESENTATION(#85,#91);
#85 = PRODUCT_DEFINITION_SHAPE('','',#86);
#86 = PRODUCT_DEFINITION('design','',#87,#90);
#87 = PRODUCT_DEFINITION_FORMATION('','',#88);
#88 = PRODUCT('Body001','Body001','',(#89));
#89 = PRODUCT_CONTEXT('',#2,'mechanical');
#90 = PRODUCT_DEFINITION_CONTEXT('part definition',#2,'design');
#91 = ADVANCED_BREP_SHAPE_REPRESENTATION('',(#11,#92),#374);
#92 = MANIFOLD_SOLID_BREP('',#93);
#93 = CLOSED_SHELL('',(#94,#134,#165,#196,#227,#258,#289,#320,#342,#358)
  );
#94 = ADVANCED_FACE('',(#95),#129,.F.);
#95 = FACE_BOUND('',#96,.F.);
#96 = EDGE_LOOP('',(#97,#107,#115,#123));
#97 = ORIENTED_EDGE('',*,*,#98,.T.);
#98 = EDGE_CURVE('',#99,#101,#103,.T.);
#99 = VERTEX_POINT('',#100);
#100 = CARTESIAN_POINT('',(1.945,0.845056044465,-0.125));
#101 = VERTEX_POINT('',#102);
#102 = CARTESIAN_POINT('',(1.945,0.845056044465,0.125));
#103 = LINE('',#104,#105);
#104 = CARTESIAN_POINT('',(1.945,0.845056044465,-0.125));
#105 = VECTOR('',#106,1.);
#106 = DIRECTION('',(0.,0.,1.));
#107 = ORIENTED_EDGE('',*,*,#108,.T.);
#108 = EDGE_CURVE('',#101,#109,#111,.T.);
#109 = VERTEX_POINT('',#110);
#110 = CARTESIAN_POINT('',(2.045,0.845056044465,0.125));
#111 = LINE('',#112,#113);
#112 = CARTESIAN_POINT('',(1.945,0.845056044465,0.125));
#113 = VECTOR('',#114,1.);
#114 = DIRECTION('',(1.,0.,0.));
#115 = ORIENTED_EDGE('',*,*,#116,.F.);
#116 = EDGE_CURVE('',#117,#109,#119,.T.);
#117 = VERTEX_POINT('',#118);
#118 = CARTESIAN_POINT('',(2.045,0.845056044465,-0.125));
#119 = LINE('',#120,#121);
#120 = CARTESIAN_POINT('',(2.045,0.845056044465,-0.125));
#121 = VECTOR('',#122,1.);
#122 = DIRECTION('',(0.,0.,1.));
#123 = ORIENTED_EDGE('',*,*,#124,.F.);
#124 = EDGE_CURVE('',#99,#117,#125,.T.);
#125 = LINE('',#126,#127);
#126 = CARTESIAN_POINT('',(1.945,0.845056044465,-0.125));
#127 = VECTOR('',#128,1.);
#128 = DIRECTION('',(1.,0.,0.));
#129 = PLANE('',#130);
#130 = AXIS2_PLACEMENT_3D('',#131,#132,#133);
#131 = CARTESIAN_POINT('',(1.945,0.845056044465,-0.125));
#132 = DIRECTION('',(0.,1.,0.));
#133 = DIRECTION('',(1.,0.,0.));
#134 = ADVANCED_FACE('',(#135),#160,.F.);
#135 = FACE_BOUND('',#136,.F.);
#136 = EDGE_LOOP('',(#137,#138,#146,#154));
#137 = ORIENTED_EDGE('',*,*,#116,.T.);
#138 = ORIENTED_EDGE('',*,*,#139,.T.);
#139 = EDGE_CURVE('',#109,#140,#142,.T.);
#140 = VERTEX_POINT('',#141);
#141 = CARTESIAN_POINT('',(2.36,-3.858377736364E-24,0.125));
#142 = LINE('',#143,#144);
#143 = CARTESIAN_POINT('',(2.045,0.845056044465,0.125));
#144 = VECTOR('',#145,1.);
#145 = DIRECTION('',(0.349279605945,-0.937018546706,0.));
#146 = ORIENTED_EDGE('',*,*,#147,.F.);
#147 = EDGE_CURVE('',#148,#140,#150,.T.);
#148 = VERTEX_POINT('',#149);
#149 = CARTESIAN_POINT('',(2.36,-3.858377736364E-24,-0.125));
#150 = LINE('',#151,#152);
#151 = CARTESIAN_POINT('',(2.36,-3.858377736364E-24,-0.125));
#152 = VECTOR('',#153,1.);
#153 = DIRECTION('',(0.,0.,1.));
#154 = ORIENTED_EDGE('',*,*,#155,.F.);
#155 = EDGE_CURVE('',#117,#148,#156,.T.);
#156 = LINE('',#157,#158);
#157 = CARTESIAN_POINT('',(2.045,0.845056044465,-0.125));
#158 = VECTOR('',#159,1.);
#159 = DIRECTION('',(0.349279605945,-0.937018546706,0.));
#160 = PLANE('',#161);
#161 = AXIS2_PLACEMENT_3D('',#162,#163,#164);
#162 = CARTESIAN_POINT('',(2.045,0.845056044465,-0.125));
#163 = DIRECTION('',(0.937018546706,0.349279605945,0.));
#164 = DIRECTION('',(0.349279605945,-0.937018546706,0.));
#165 = ADVANCED_FACE('',(#166),#191,.F.);
#166 = FACE_BOUND('',#167,.F.);
#167 = EDGE_LOOP('',(#168,#169,#177,#185));
#168 = ORIENTED_EDGE('',*,*,#147,.T.);
#169 = ORIENTED_EDGE('',*,*,#170,.T.);
#170 = EDGE_CURVE('',#140,#171,#173,.T.);
#171 = VERTEX_POINT('',#172);
#172 = CARTESIAN_POINT('',(3.,-1.709326753721E-23,0.125));
#173 = LINE('',#174,#175);
#174 = CARTESIAN_POINT('',(2.36,-1.709326753721E-23,0.125));
#175 = VECTOR('',#176,1.);
#176 = DIRECTION('',(1.,0.,0.));
#177 = ORIENTED_EDGE('',*,*,#178,.F.);
#178 = EDGE_CURVE('',#179,#171,#181,.T.);
#179 = VERTEX_POINT('',#180);
#180 = CARTESIAN_POINT('',(3.,-1.709326753721E-23,-0.125));
#181 = LINE('',#182,#183);
#182 = CARTESIAN_POINT('',(3.,-1.709326753721E-23,-0.125));
#183 = VECTOR('',#184,1.);
#184 = DIRECTION('',(0.,0.,1.));
#185 = ORIENTED_EDGE('',*,*,#186,.F.);
#186 = EDGE_CURVE('',#148,#179,#187,.T.);
#187 = LINE('',#188,#189);
#188 = CARTESIAN_POINT('',(2.36,-1.709326753721E-23,-0.125));
#189 = VECTOR('',#190,1.);
#190 = DIRECTION('',(1.,0.,0.));
#191 = PLANE('',#192);
#192 = AXIS2_PLACEMENT_3D('',#193,#194,#195);
#193 = CARTESIAN_POINT('',(2.36,-1.709326753721E-23,-0.125));
#194 = DIRECTION('',(0.,1.,0.));
#195 = DIRECTION('',(1.,0.,0.));
#196 = ADVANCED_FACE('',(#197),#222,.F.);
#197 = FACE_BOUND('',#198,.F.);
#198 = EDGE_LOOP('',(#199,#200,#208,#216));
#199 = ORIENTED_EDGE('',*,*,#178,.T.);
#200 = ORIENTED_EDGE('',*,*,#201,.T.);
#201 = EDGE_CURVE('',#171,#202,#204,.T.);
#202 = VERTEX_POINT('',#203);
#203 = CARTESIAN_POINT('',(3.,0.222,0.125));
#204 = LINE('',#205,#206);
#205 = CARTESIAN_POINT('',(3.,-1.709326753721E-23,0.125));
#206 = VECTOR('',#207,1.);
#207 = DIRECTION('',(0.,1.,0.));
#208 = ORIENTED_EDGE('',*,*,#209,.F.);
#209 = EDGE_CURVE('',#210,#202,#212,.T.);
#210 = VERTEX_POINT('',#211);
#211 = CARTESIAN_POINT('',(3.,0.222,-0.125));
#212 = LINE('',#213,#214);
#213 = CARTESIAN_POINT('',(3.,0.222,-0.125));
#214 = VECTOR('',#215,1.);
#215 = DIRECTION('',(0.,0.,1.));
#216 = ORIENTED_EDGE('',*,*,#217,.F.);
#217 = EDGE_CURVE('',#179,#210,#218,.T.);
#218 = LINE('',#219,#220);
#219 = CARTESIAN_POINT('',(3.,-1.709326753721E-23,-0.125));
#220 = VECTOR('',#221,1.);
#221 = DIRECTION('',(0.,1.,0.));
#222 = PLANE('',#223);
#223 = AXIS2_PLACEMENT_3D('',#224,#225,#226);
#224 = CARTESIAN_POINT('',(3.,-1.709326753721E-23,-0.125));
#225 = DIRECTION('',(-1.,0.,0.));
#226 = DIRECTION('',(0.,1.,0.));
#227 = ADVANCED_FACE('',(#228),#253,.F.);
#228 = FACE_BOUND('',#229,.F.);
#229 = EDGE_LOOP('',(#230,#231,#239,#247));
#230 = ORIENTED_EDGE('',*,*,#209,.T.);
#231 = ORIENTED_EDGE('',*,*,#232,.T.);
#232 = EDGE_CURVE('',#202,#233,#235,.T.);
#233 = VERTEX_POINT('',#234);
#234 = CARTESIAN_POINT('',(2.514169763222,0.222,0.125));
#235 = LINE('',#236,#237);
#236 = CARTESIAN_POINT('',(3.,0.222,0.125));
#237 = VECTOR('',#238,1.);
#238 = DIRECTION('',(-1.,0.,0.));
#239 = ORIENTED_EDGE('',*,*,#240,.F.);
#240 = EDGE_CURVE('',#241,#233,#243,.T.);
#241 = VERTEX_POINT('',#242);
#242 = CARTESIAN_POINT('',(2.514169763222,0.222,-0.125));
#243 = LINE('',#244,#245);
#244 = CARTESIAN_POINT('',(2.514169763222,0.222,-0.125));
#245 = VECTOR('',#246,1.);
#246 = DIRECTION('',(0.,0.,1.));
#247 = ORIENTED_EDGE('',*,*,#248,.F.);
#248 = EDGE_CURVE('',#210,#241,#249,.T.);
#249 = LINE('',#250,#251);
#250 = CARTESIAN_POINT('',(3.,0.222,-0.125));
#251 = VECTOR('',#252,1.);
#252 = DIRECTION('',(-1.,0.,0.));
#253 = PLANE('',#254);
#254 = AXIS2_PLACEMENT_3D('',#255,#256,#257);
#255 = CARTESIAN_POINT('',(3.,0.222,-0.125));
#256 = DIRECTION('',(0.,-1.,0.));
#257 = DIRECTION('',(-1.,0.,0.));
#258 = ADVANCED_FACE('',(#259),#284,.F.);
#259 = FACE_BOUND('',#260,.F.);
#260 = EDGE_LOOP('',(#261,#262,#270,#278));
#261 = ORIENTED_EDGE('',*,*,#240,.T.);
#262 = ORIENTED_EDGE('',*,*,#263,.T.);
#263 = EDGE_CURVE('',#233,#264,#266,.T.);
#264 = VERTEX_POINT('',#265);
#265 = CARTESIAN_POINT('',(2.199169763222,1.067056044465,0.125));
#266 = LINE('',#267,#268);
#267 = CARTESIAN_POINT('',(2.514169763222,0.222,0.125));
#268 = VECTOR('',#269,1.);
#269 = DIRECTION('',(-0.349279605945,0.937018546706,0.));
#270 = ORIENTED_EDGE('',*,*,#271,.F.);
#271 = EDGE_CURVE('',#272,#264,#274,.T.);
#272 = VERTEX_POINT('',#273);
#273 = CARTESIAN_POINT('',(2.199169763222,1.067056044465,-0.125));
#274 = LINE('',#275,#276);
#275 = CARTESIAN_POINT('',(2.199169763222,1.067056044465,-0.125));
#276 = VECTOR('',#277,1.);
#277 = DIRECTION('',(0.,0.,1.));
#278 = ORIENTED_EDGE('',*,*,#279,.F.);
#279 = EDGE_CURVE('',#241,#272,#280,.T.);
#280 = LINE('',#281,#282);
#281 = CARTESIAN_POINT('',(2.514169763222,0.222,-0.125));
#282 = VECTOR('',#283,1.);
#283 = DIRECTION('',(-0.349279605945,0.937018546706,0.));
#284 = PLANE('',#285);
#285 = AXIS2_PLACEMENT_3D('',#286,#287,#288);
#286 = CARTESIAN_POINT('',(2.514169763222,0.222,-0.125));
#287 = DIRECTION('',(-0.937018546706,-0.349279605945,0.));
#288 = DIRECTION('',(-0.349279605945,0.937018546706,0.));
#289 = ADVANCED_FACE('',(#290),#315,.F.);
#290 = FACE_BOUND('',#291,.F.);
#291 = EDGE_LOOP('',(#292,#293,#301,#309));
#292 = ORIENTED_EDGE('',*,*,#271,.T.);
#293 = ORIENTED_EDGE('',*,*,#294,.T.);
#294 = EDGE_CURVE('',#264,#295,#297,.T.);
#295 = VERTEX_POINT('',#296);
#296 = CARTESIAN_POINT('',(1.945,1.067056044465,0.125));
#297 = LINE('',#298,#299);
#298 = CARTESIAN_POINT('',(2.199169763222,1.067056044465,0.125));
#299 = VECTOR('',#300,1.);
#300 = DIRECTION('',(-1.,0.,0.));
#301 = ORIENTED_EDGE('',*,*,#302,.F.);
#302 = EDGE_CURVE('',#303,#295,#305,.T.);
#303 = VERTEX_POINT('',#304);
#304 = CARTESIAN_POINT('',(1.945,1.067056044465,-0.125));
#305 = LINE('',#306,#307);
#306 = CARTESIAN_POINT('',(1.945,1.067056044465,-0.125));
#307 = VECTOR('',#308,1.);
#308 = DIRECTION('',(0.,0.,1.));
#309 = ORIENTED_EDGE('',*,*,#310,.F.);
#310 = EDGE_CURVE('',#272,#303,#311,.T.);
#311 = LINE('',#312,#313);
#312 = CARTESIAN_POINT('',(2.199169763222,1.067056044465,-0.125));
#313 = VECTOR('',#314,1.);
#314 = DIRECTION('',(-1.,0.,0.));
#315 = PLANE('',#316);
#316 = AXIS2_PLACEMENT_3D('',#317,#318,#319);
#317 = CARTESIAN_POINT('',(2.199169763222,1.067056044465,-0.125));
#318 = DIRECTION('',(0.,-1.,0.));
#319 = DIRECTION('',(-1.,0.,0.));
#320 = ADVANCED_FACE('',(#321),#337,.F.);
#321 = FACE_BOUND('',#322,.F.);
#322 = EDGE_LOOP('',(#323,#324,#330,#331));
#323 = ORIENTED_EDGE('',*,*,#302,.T.);
#324 = ORIENTED_EDGE('',*,*,#325,.T.);
#325 = EDGE_CURVE('',#295,#101,#326,.T.);
#326 = LINE('',#327,#328);
#327 = CARTESIAN_POINT('',(1.945,1.067056044465,0.125));
#328 = VECTOR('',#329,1.);
#329 = DIRECTION('',(0.,-1.,0.));
#330 = ORIENTED_EDGE('',*,*,#98,.F.);
#331 = ORIENTED_EDGE('',*,*,#332,.F.);
#332 = EDGE_CURVE('',#303,#99,#333,.T.);
#333 = LINE('',#334,#335);
#334 = CARTESIAN_POINT('',(1.945,1.067056044465,-0.125));
#335 = VECTOR('',#336,1.);
#336 = DIRECTION('',(0.,-1.,0.));
#337 = PLANE('',#338);
#338 = AXIS2_PLACEMENT_3D('',#339,#340,#341);
#339 = CARTESIAN_POINT('',(1.945,1.067056044465,-0.125));
#340 = DIRECTION('',(1.,0.,0.));
#341 = DIRECTION('',(0.,-1.,0.));
#342 = ADVANCED_FACE('',(#343),#353,.F.);
#343 = FACE_BOUND('',#344,.F.);
#344 = EDGE_LOOP('',(#345,#346,#347,#348,#349,#350,#351,#352));
#345 = ORIENTED_EDGE('',*,*,#124,.T.);
#346 = ORIENTED_EDGE('',*,*,#155,.T.);
#347 = ORIENTED_EDGE('',*,*,#186,.T.);
#348 = ORIENTED_EDGE('',*,*,#217,.T.);
#349 = ORIENTED_EDGE('',*,*,#248,.T.);
#350 = ORIENTED_EDGE('',*,*,#279,.T.);
#351 = ORIENTED_EDGE('',*,*,#310,.T.);
#352 = ORIENTED_EDGE('',*,*,#332,.T.);
#353 = PLANE('',#354);
#354 = AXIS2_PLACEMENT_3D('',#355,#356,#357);
#355 = CARTESIAN_POINT('',(2.411758489165,0.446062003452,-0.125));
#356 = DIRECTION('',(0.,0.,1.));
#357 = DIRECTION('',(1.,0.,0.));
#358 = ADVANCED_FACE('',(#359),#369,.T.);
#359 = FACE_BOUND('',#360,.T.);
#360 = EDGE_LOOP('',(#361,#362,#363,#364,#365,#366,#367,#368));
#361 = ORIENTED_EDGE('',*,*,#108,.T.);
#362 = ORIENTED_EDGE('',*,*,#139,.T.);
#363 = ORIENTED_EDGE('',*,*,#170,.T.);
#364 = ORIENTED_EDGE('',*,*,#201,.T.);
#365 = ORIENTED_EDGE('',*,*,#232,.T.);
#366 = ORIENTED_EDGE('',*,*,#263,.T.);
#367 = ORIENTED_EDGE('',*,*,#294,.T.);
#368 = ORIENTED_EDGE('',*,*,#325,.T.);
#369 = PLANE('',#370);
#370 = AXIS2_PLACEMENT_3D('',#371,#372,#373);
#371 = CARTESIAN_POINT('',(2.411758489165,0.446062003452,0.125));
#372 = DIRECTION('',(0.,0.,1.));
#373 = DIRECTION('',(1.,0.,0.));
#374 = ( GEOMETRIC_REPRESENTATION_CONTEXT(3) 
GLOBAL_UNCERTAINTY_ASSIGNED_CONTEXT((#378)) GLOBAL_UNIT_ASSIGNED_CONTEXT
((#375,#376,#377)) REPRESENTATION_CONTEXT('Context #1',
  '3D Context with UNIT and UNCERTAINTY') );
#375 = ( LENGTH_UNIT() NAMED_UNIT(*) SI_UNIT(.MILLI.,.METRE.) );
#376 = ( NAMED_UNIT(*) PLANE_ANGLE_UNIT() SI_UNIT($,.RADIAN.) );
#377 = ( NAMED_UNIT(*) SI_UNIT($,.STERADIAN.) SOLID_ANGLE_UNIT() );
#378 = UNCERTAINTY_MEASURE_WITH_UNIT(LENGTH_MEASURE(1.E-07),#375,
  'distance_accuracy_value','confusion accuracy');
#379 = CONTEXT_DEPENDENT_SHAPE_REPRESENTATION(#380,#382);
#380 = ( REPRESENTATION_RELATIONSHIP('','',#91,#40) 
REPRESENTATION_RELATIONSHIP_WITH_TRANSFORMATION(#381) 
SHAPE_REPRESENTATION_RELATIONSHIP() );
#381 = ITEM_DEFINED_TRANSFORMATION('','',#11,#41);
#382 = PRODUCT_DEFINITION_SHAPE('Placement','Placement of an item',#383
  );
#383 = NEXT_ASSEMBLY_USAGE_OCCURRENCE('2349','0','',#35,#86,$);
#384 = PRODUCT_RELATED_PRODUCT_CATEGORY('part',$,(#88));
#385 = CONTEXT_DEPENDENT_SHAPE_REPRESENTATION(#386,#388);
#386 = ( REPRESENTATION_RELATIONSHIP('','',#91,#40) 
REPRESENTATION_RELATIONSHIP_WITH_TRANSFORMATION(#387) 
SHAPE_REPRESENTATION_RELATIONSHIP() );
#387 = ITEM_DEFINED_TRANSFORMATION('','',#11,#45);
#388 = PRODUCT_DEFINITION_SHAPE('Placement','Placement of an item',#389
  );
#389 = NEXT_ASSEMBLY_USAGE_OCCURRENCE('2350','1','',#35,#86,$);
#390 = CONTEXT_DEPENDENT_SHAPE_REPRESENTATION(#391,#393);
#391 = ( REPRESENTATION_RELATIONSHIP('','',#91,#40) 
REPRESENTATION_RELATIONSHIP_WITH_TRANSFORMATION(#392) 
SHAPE_REPRESENTATION_RELATIONSHIP() );
#392 = ITEM_DEFINED_TRANSFORMATION('','',#11,#49);
#393 = PRODUCT_DEFINITION_SHAPE('Placement','Placement of an item',#394
  );
#394 = NEXT_ASSEMBLY_USAGE_OCCURRENCE('2351','2','',#35,#86,$);
#395 = CONTEXT_DEPENDENT_SHAPE_REPRESENTATION(#396,#398);
#396 = ( REPRESENTATION_RELATIONSHIP('','',#91,#40) 
REPRESENTATION_RELATIONSHIP_WITH_TRANSFORMATION(#397) 
SHAPE_REPRESENTATION_RELATIONSHIP() );
#397 = ITEM_DEFINED_TRANSFORMATION('','',#11,#53);
#398 = PRODUCT_DEFINITION_SHAPE('Placement','Placement of an item',#399
  );
#399 = NEXT_ASSEMBLY_USAGE_OCCURRENCE('2352','3','',#35,#86,$);
#400 = CONTEXT_DEPENDENT_SHAPE_REPRESENTATION(#401,#403);
#401 = ( REPRESENTATION_RELATIONSHIP('','',#91,#40) 
REPRESENTATION_RELATIONSHIP_WITH_TRANSFORMATION(#402) 
SHAPE_REPRESENTATION_RELATIONSHIP() );
#402 = ITEM_DEFINED_TRANSFORMATION('','',#11,#57);
#403 = PRODUCT_DEFINITION_SHAPE('Placement','Placement of an item',#404
  );
#404 = NEXT_ASSEMBLY_USAGE_OCCURRENCE('2353','4','',#35,#86,$);
#405 = CONTEXT_DEPENDENT_SHAPE_REPRESENTATION(#406,#408);
#406 = ( REPRESENTATION_RELATIONSHIP('','',#91,#40) 
REPRESENTATION_RELATIONSHIP_WITH_TRANSFORMATION(#407) 
SHAPE_REPRESENTATION_RELATIONSHIP() );
#407 = ITEM_DEFINED_TRANSFORMATION('','',#11,#61);
#408 = PRODUCT_DEFINITION_SHAPE('Placement','Placement of an item',#409
  );
#409 = NEXT_ASSEMBLY_USAGE_OCCURRENCE('2354','5','',#35,#86,$);
#410 = CONTEXT_DEPENDENT_SHAPE_REPRESENTATION(#411,#413);
#411 = ( REPRESENTATION_RELATIONSHIP('','',#91,#40) 
REPRESENTATION_RELATIONSHIP_WITH_TRANSFORMATION(#412) 
SHAPE_REPRESENTATION_RELATIONSHIP() );
#412 = ITEM_DEFINED_TRANSFORMATION('','',#11,#65);
#413 = PRODUCT_DEFINITION_SHAPE('Placement','Placement of an item',#414
  );
#414 = NEXT_ASSEMBLY_USAGE_OCCURRENCE('2355','6','',#35,#86,$);
#415 = CONTEXT_DEPENDENT_SHAPE_REPRESENTATION(#416,#418);
#416 = ( REPRESENTATION_RELATIONSHIP('','',#91,#40) 
REPRESENTATION_RELATIONSHIP_WITH_TRANSFORMATION(#417) 
SHAPE_REPRESENTATION_RELATIONSHIP() );
#417 = ITEM_DEFINED_TRANSFORMATION('','',#11,#69);
#418 = PRODUCT_DEFINITION_SHAPE('Placement','Placement of an item',#419
  );
#419 = NEXT_ASSEMBLY_USAGE_OCCURRENCE('2356','7','',#35,#86,$);
#420 = SHAPE_DEFINITION_REPRESENTATION(#421,#427);
#421 = PRODUCT_DEFINITION_SHAPE('','',#422);
#422 = PRODUCT_DEFINITION('design','',#423,#426);
#423 = PRODUCT_DEFINITION_FORMATION('','',#424);
#424 = PRODUCT('Body','Body','',(#425));
#425 = PRODUCT_CONTEXT('',#2,'mechanical');
#426 = PRODUCT_DEFINITION_CONTEXT('part definition',#2,'design');
#427 = ADVANCED_BREP_SHAPE_REPRESENTATION('',(#11,#428),#770);
#428 = MANIFOLD_SOLID_BREP('',#429);
#429 = CLOSED_SHELL('',(#430,#470,#501,#532,#563,#594,#618,#642,#659,
    #681,#705,#729,#746,#758));
#430 = ADVANCED_FACE('',(#431),#465,.T.);
#431 = FACE_BOUND('',#432,.T.);
#432 = EDGE_LOOP('',(#433,#443,#451,#459));
#433 = ORIENTED_EDGE('',*,*,#434,.T.);
#434 = EDGE_CURVE('',#435,#437,#439,.T.);
#435 = VERTEX_POINT('',#436);
#436 = CARTESIAN_POINT('',(1.945,0.845056044465,2.45));
#437 = VERTEX_POINT('',#438);
#438 = CARTESIAN_POINT('',(1.945,0.845056044465,-2.45));
#439 = LINE('',#440,#441);
#440 = CARTESIAN_POINT('',(1.945,0.845056044465,6.519273282145));
#441 = VECTOR('',#442,1.);
#442 = DIRECTION('',(0.,0.,-1.));
#443 = ORIENTED_EDGE('',*,*,#444,.T.);
#444 = EDGE_CURVE('',#437,#445,#447,.T.);
#445 = VERTEX_POINT('',#446);
#446 = CARTESIAN_POINT('',(1.945,1.067056044465,-2.45));
#447 = LINE('',#448,#449);
#448 = CARTESIAN_POINT('',(1.945,-5.440092820663E-16,-2.45));
#449 = VECTOR('',#450,1.);
#450 = DIRECTION('',(0.,1.,-2.22044604925E-16));
#451 = ORIENTED_EDGE('',*,*,#452,.F.);
#452 = EDGE_CURVE('',#453,#445,#455,.T.);
#453 = VERTEX_POINT('',#454);
#454 = CARTESIAN_POINT('',(1.945,1.067056044465,2.45));
#455 = LINE('',#456,#457);
#456 = CARTESIAN_POINT('',(1.945,1.067056044465,6.519273282145));
#457 = VECTOR('',#458,1.);
#458 = DIRECTION('',(0.,0.,-1.));
#459 = ORIENTED_EDGE('',*,*,#460,.F.);
#460 = EDGE_CURVE('',#435,#453,#461,.T.);
#461 = LINE('',#462,#463);
#462 = CARTESIAN_POINT('',(1.945,5.440092820663E-16,2.45));
#463 = VECTOR('',#464,1.);
#464 = DIRECTION('',(0.,1.,-2.22044604925E-16));
#465 = PLANE('',#466);
#466 = AXIS2_PLACEMENT_3D('',#467,#468,#469);
#467 = CARTESIAN_POINT('',(1.945,-5.440092820663E-16,-2.45));
#468 = DIRECTION('',(1.,0.,0.));
#469 = DIRECTION('',(0.,2.22044604925E-16,1.));
#470 = ADVANCED_FACE('',(#471),#496,.T.);
#471 = FACE_BOUND('',#472,.T.);
#472 = EDGE_LOOP('',(#473,#474,#482,#490));
#473 = ORIENTED_EDGE('',*,*,#434,.F.);
#474 = ORIENTED_EDGE('',*,*,#475,.F.);
#475 = EDGE_CURVE('',#476,#435,#478,.T.);
#476 = VERTEX_POINT('',#477);
#477 = CARTESIAN_POINT('',(1.850829764214,0.175,2.355829764214));
#478 = LINE('',#479,#480);
#479 = CARTESIAN_POINT('',(1.932960760048,0.759392401028,2.437960760048)
  );
#480 = VECTOR('',#481,1.);
#481 = DIRECTION('',(0.137844537492,0.980814848464,0.137844537491));
#482 = ORIENTED_EDGE('',*,*,#483,.T.);
#483 = EDGE_CURVE('',#476,#484,#486,.T.);
#484 = VERTEX_POINT('',#485);
#485 = CARTESIAN_POINT('',(1.850829764214,0.175,-2.355829764214));
#486 = LINE('',#487,#488);
#487 = CARTESIAN_POINT('',(1.850829764214,0.175,3.259636641072));
#488 = VECTOR('',#489,1.);
#489 = DIRECTION('',(0.,0.,-1.));
#490 = ORIENTED_EDGE('',*,*,#491,.T.);
#491 = EDGE_CURVE('',#484,#437,#492,.T.);
#492 = LINE('',#493,#494);
#493 = CARTESIAN_POINT('',(1.809087288813,-0.122013145605,
    -2.314087288813));
#494 = VECTOR('',#495,1.);
#495 = DIRECTION('',(0.137844537492,0.980814848464,-0.137844537491));
#496 = PLANE('',#497);
#497 = AXIS2_PLACEMENT_3D('',#498,#499,#500);
#498 = CARTESIAN_POINT('',(1.849018486434,0.16211208893,6.519273282145)
  );
#499 = DIRECTION('',(0.990268068742,-0.13917310096,0.));
#500 = DIRECTION('',(0.13917310096,0.990268068742,0.));
#501 = ADVANCED_FACE('',(#502),#527,.T.);
#502 = FACE_BOUND('',#503,.T.);
#503 = EDGE_LOOP('',(#504,#512,#513,#521));
#504 = ORIENTED_EDGE('',*,*,#505,.F.);
#505 = EDGE_CURVE('',#435,#506,#508,.T.);
#506 = VERTEX_POINT('',#507);
#507 = CARTESIAN_POINT('',(-1.945,0.845056044465,2.45));
#508 = LINE('',#509,#510);
#509 = CARTESIAN_POINT('',(6.519273282145,0.845056044465,2.45));
#510 = VECTOR('',#511,1.);
#511 = DIRECTION('',(-1.,0.,0.));
#512 = ORIENTED_EDGE('',*,*,#460,.T.);
#513 = ORIENTED_EDGE('',*,*,#514,.T.);
#514 = EDGE_CURVE('',#453,#515,#517,.T.);
#515 = VERTEX_POINT('',#516);
#516 = CARTESIAN_POINT('',(-1.945,1.067056044465,2.45));
#517 = LINE('',#518,#519);
#518 = CARTESIAN_POINT('',(6.519273282145,1.067056044465,2.45));
#519 = VECTOR('',#520,1.);
#520 = DIRECTION('',(-1.,0.,0.));
#521 = ORIENTED_EDGE('',*,*,#522,.F.);
#522 = EDGE_CURVE('',#506,#515,#523,.T.);
#523 = LINE('',#524,#525);
#524 = CARTESIAN_POINT('',(-1.945,5.440092820663E-16,2.45));
#525 = VECTOR('',#526,1.);
#526 = DIRECTION('',(0.,1.,-2.22044604925E-16));
#527 = PLANE('',#528);
#528 = AXIS2_PLACEMENT_3D('',#529,#530,#531);
#529 = CARTESIAN_POINT('',(1.945,5.440092820663E-16,2.45));
#530 = DIRECTION('',(0.,2.22044604925E-16,1.));
#531 = DIRECTION('',(-1.,0.,0.));
#532 = ADVANCED_FACE('',(#533),#558,.F.);
#533 = FACE_BOUND('',#534,.F.);
#534 = EDGE_LOOP('',(#535,#536,#544,#552));
#535 = ORIENTED_EDGE('',*,*,#452,.F.);
#536 = ORIENTED_EDGE('',*,*,#537,.F.);
#537 = EDGE_CURVE('',#538,#453,#540,.T.);
#538 = VERTEX_POINT('',#539);
#539 = CARTESIAN_POINT('',(1.849018486434,1.75,2.354018486435));
#540 = LINE('',#541,#542);
#541 = CARTESIAN_POINT('',(1.980039638869,0.817736058971,2.485039638869)
  );
#542 = VECTOR('',#543,1.);
#543 = DIRECTION('',(0.137844537492,-0.980814848464,0.137844537491));
#544 = ORIENTED_EDGE('',*,*,#545,.T.);
#545 = EDGE_CURVE('',#538,#546,#548,.T.);
#546 = VERTEX_POINT('',#547);
#547 = CARTESIAN_POINT('',(1.849018486434,1.75,-2.354018486435));
#548 = LINE('',#549,#550);
#549 = CARTESIAN_POINT('',(1.849018486434,1.75,6.519273282145));
#550 = VECTOR('',#551,1.);
#551 = DIRECTION('',(0.,0.,-1.));
#552 = ORIENTED_EDGE('',*,*,#553,.T.);
#553 = EDGE_CURVE('',#546,#445,#554,.T.);
#554 = LINE('',#555,#556);
#555 = CARTESIAN_POINT('',(1.856166167634,1.699141605604,-2.361166167635
    ));
#556 = VECTOR('',#557,1.);
#557 = DIRECTION('',(0.137844537492,-0.980814848464,-0.137844537491));
#558 = PLANE('',#559);
#559 = AXIS2_PLACEMENT_3D('',#560,#561,#562);
#560 = CARTESIAN_POINT('',(1.849018486434,1.75,6.519273282145));
#561 = DIRECTION('',(-0.990268068742,-0.13917310096,0.));
#562 = DIRECTION('',(0.13917310096,-0.990268068742,0.));
#563 = ADVANCED_FACE('',(#564),#589,.T.);
#564 = FACE_BOUND('',#565,.T.);
#565 = EDGE_LOOP('',(#566,#574,#582,#588));
#566 = ORIENTED_EDGE('',*,*,#567,.T.);
#567 = EDGE_CURVE('',#437,#568,#570,.T.);
#568 = VERTEX_POINT('',#569);
#569 = CARTESIAN_POINT('',(-1.945,0.845056044465,-2.45));
#570 = LINE('',#571,#572);
#571 = CARTESIAN_POINT('',(6.519273282145,0.845056044465,-2.45));
#572 = VECTOR('',#573,1.);
#573 = DIRECTION('',(-1.,0.,0.));
#574 = ORIENTED_EDGE('',*,*,#575,.T.);
#575 = EDGE_CURVE('',#568,#576,#578,.T.);
#576 = VERTEX_POINT('',#577);
#577 = CARTESIAN_POINT('',(-1.945,1.067056044465,-2.45));
#578 = LINE('',#579,#580);
#579 = CARTESIAN_POINT('',(-1.945,-5.440092820663E-16,-2.45));
#580 = VECTOR('',#581,1.);
#581 = DIRECTION('',(0.,1.,-2.22044604925E-16));
#582 = ORIENTED_EDGE('',*,*,#583,.F.);
#583 = EDGE_CURVE('',#445,#576,#584,.T.);
#584 = LINE('',#585,#586);
#585 = CARTESIAN_POINT('',(6.519273282145,1.067056044465,-2.45));
#586 = VECTOR('',#587,1.);
#587 = DIRECTION('',(-1.,0.,0.));
#588 = ORIENTED_EDGE('',*,*,#444,.F.);
#589 = PLANE('',#590);
#590 = AXIS2_PLACEMENT_3D('',#591,#592,#593);
#591 = CARTESIAN_POINT('',(-1.945,-5.440092820663E-16,-2.45));
#592 = DIRECTION('',(0.,-2.22044604925E-16,-1.));
#593 = DIRECTION('',(1.,0.,0.));
#594 = ADVANCED_FACE('',(#595),#613,.F.);
#595 = FACE_BOUND('',#596,.T.);
#596 = EDGE_LOOP('',(#597,#598,#599,#607));
#597 = ORIENTED_EDGE('',*,*,#567,.F.);
#598 = ORIENTED_EDGE('',*,*,#491,.F.);
#599 = ORIENTED_EDGE('',*,*,#600,.T.);
#600 = EDGE_CURVE('',#484,#601,#603,.T.);
#601 = VERTEX_POINT('',#602);
#602 = CARTESIAN_POINT('',(-1.850829764214,0.175,-2.355829764214));
#603 = LINE('',#604,#605);
#604 = CARTESIAN_POINT('',(3.259636641072,0.175,-2.355829764214));
#605 = VECTOR('',#606,1.);
#606 = DIRECTION('',(-1.,0.,0.));
#607 = ORIENTED_EDGE('',*,*,#608,.T.);
#608 = EDGE_CURVE('',#601,#568,#609,.T.);
#609 = LINE('',#610,#611);
#610 = CARTESIAN_POINT('',(-1.685213817577,-1.003418692241,
    -2.190213817578));
#611 = VECTOR('',#612,1.);
#612 = DIRECTION('',(-0.137844537492,0.980814848464,-0.137844537491));
#613 = PLANE('',#614);
#614 = AXIS2_PLACEMENT_3D('',#615,#616,#617);
#615 = CARTESIAN_POINT('',(6.519273282145,0.16211208893,-2.354018486435)
  );
#616 = DIRECTION('',(0.,0.13917310096,0.990268068742));
#617 = DIRECTION('',(0.,-0.990268068742,0.13917310096));
#618 = ADVANCED_FACE('',(#619),#637,.F.);
#619 = FACE_BOUND('',#620,.F.);
#620 = EDGE_LOOP('',(#621,#629,#630,#631));
#621 = ORIENTED_EDGE('',*,*,#622,.F.);
#622 = EDGE_CURVE('',#476,#623,#625,.T.);
#623 = VERTEX_POINT('',#624);
#624 = CARTESIAN_POINT('',(-1.850829764214,0.175,2.355829764214));
#625 = LINE('',#626,#627);
#626 = CARTESIAN_POINT('',(3.259636641072,0.175,2.355829764214));
#627 = VECTOR('',#628,1.);
#628 = DIRECTION('',(-1.,0.,0.));
#629 = ORIENTED_EDGE('',*,*,#483,.T.);
#630 = ORIENTED_EDGE('',*,*,#600,.T.);
#631 = ORIENTED_EDGE('',*,*,#632,.F.);
#632 = EDGE_CURVE('',#623,#601,#633,.T.);
#633 = LINE('',#634,#635);
#634 = CARTESIAN_POINT('',(-1.850829764214,0.175,3.259636641072));
#635 = VECTOR('',#636,1.);
#636 = DIRECTION('',(2.22044604925E-16,0.,-1.));
#637 = PLANE('',#638);
#638 = AXIS2_PLACEMENT_3D('',#639,#640,#641);
#639 = CARTESIAN_POINT('',(0.,0.175,-2.775557561563E-17));
#640 = DIRECTION('',(0.,1.,0.));
#641 = DIRECTION('',(0.,0.,1.));
#642 = ADVANCED_FACE('',(#643),#654,.F.);
#643 = FACE_BOUND('',#644,.F.);
#644 = EDGE_LOOP('',(#645,#646,#647,#648));
#645 = ORIENTED_EDGE('',*,*,#505,.F.);
#646 = ORIENTED_EDGE('',*,*,#475,.F.);
#647 = ORIENTED_EDGE('',*,*,#622,.T.);
#648 = ORIENTED_EDGE('',*,*,#649,.T.);
#649 = EDGE_CURVE('',#623,#506,#650,.T.);
#650 = LINE('',#651,#652);
#651 = CARTESIAN_POINT('',(-1.809087288812,-0.122013145608,
    2.314087288813));
#652 = VECTOR('',#653,1.);
#653 = DIRECTION('',(-0.137844537492,0.980814848464,0.137844537491));
#654 = PLANE('',#655);
#655 = AXIS2_PLACEMENT_3D('',#656,#657,#658);
#656 = CARTESIAN_POINT('',(6.519273282145,0.16211208893,2.354018486435)
  );
#657 = DIRECTION('',(0.,0.13917310096,-0.990268068742));
#658 = DIRECTION('',(0.,0.990268068742,0.13917310096));
#659 = ADVANCED_FACE('',(#660),#676,.T.);
#660 = FACE_BOUND('',#661,.T.);
#661 = EDGE_LOOP('',(#662,#668,#669,#675));
#662 = ORIENTED_EDGE('',*,*,#663,.F.);
#663 = EDGE_CURVE('',#506,#568,#664,.T.);
#664 = LINE('',#665,#666);
#665 = CARTESIAN_POINT('',(-1.945,0.845056044465,6.519273282145));
#666 = VECTOR('',#667,1.);
#667 = DIRECTION('',(2.22044604925E-16,0.,-1.));
#668 = ORIENTED_EDGE('',*,*,#522,.T.);
#669 = ORIENTED_EDGE('',*,*,#670,.T.);
#670 = EDGE_CURVE('',#515,#576,#671,.T.);
#671 = LINE('',#672,#673);
#672 = CARTESIAN_POINT('',(-1.945,1.067056044465,6.519273282145));
#673 = VECTOR('',#674,1.);
#674 = DIRECTION('',(2.22044604925E-16,0.,-1.));
#675 = ORIENTED_EDGE('',*,*,#575,.F.);
#676 = PLANE('',#677);
#677 = AXIS2_PLACEMENT_3D('',#678,#679,#680);
#678 = CARTESIAN_POINT('',(-1.945,5.440092820663E-16,2.45));
#679 = DIRECTION('',(-1.,0.,0.));
#680 = DIRECTION('',(0.,-2.22044604925E-16,-1.));
#681 = ADVANCED_FACE('',(#682),#700,.F.);
#682 = FACE_BOUND('',#683,.F.);
#683 = EDGE_LOOP('',(#684,#685,#686,#694));
#684 = ORIENTED_EDGE('',*,*,#537,.T.);
#685 = ORIENTED_EDGE('',*,*,#514,.T.);
#686 = ORIENTED_EDGE('',*,*,#687,.F.);
#687 = EDGE_CURVE('',#688,#515,#690,.T.);
#688 = VERTEX_POINT('',#689);
#689 = CARTESIAN_POINT('',(-1.849018486434,1.75,2.354018486435));
#690 = LINE('',#691,#692);
#691 = CARTESIAN_POINT('',(-1.856166167634,1.699141605607,2.361166167634
    ));
#692 = VECTOR('',#693,1.);
#693 = DIRECTION('',(-0.137844537492,-0.980814848464,0.137844537491));
#694 = ORIENTED_EDGE('',*,*,#695,.F.);
#695 = EDGE_CURVE('',#538,#688,#696,.T.);
#696 = LINE('',#697,#698);
#697 = CARTESIAN_POINT('',(6.519273282145,1.75,2.354018486435));
#698 = VECTOR('',#699,1.);
#699 = DIRECTION('',(-1.,0.,0.));
#700 = PLANE('',#701);
#701 = AXIS2_PLACEMENT_3D('',#702,#703,#704);
#702 = CARTESIAN_POINT('',(6.519273282145,1.067056044465,2.45));
#703 = DIRECTION('',(0.,-0.13917310096,-0.990268068742));
#704 = DIRECTION('',(0.,0.990268068742,-0.13917310096));
#705 = ADVANCED_FACE('',(#706),#724,.F.);
#706 = FACE_BOUND('',#707,.T.);
#707 = EDGE_LOOP('',(#708,#709,#710,#718));
#708 = ORIENTED_EDGE('',*,*,#553,.T.);
#709 = ORIENTED_EDGE('',*,*,#583,.T.);
#710 = ORIENTED_EDGE('',*,*,#711,.F.);
#711 = EDGE_CURVE('',#712,#576,#714,.T.);
#712 = VERTEX_POINT('',#713);
#713 = CARTESIAN_POINT('',(-1.849018486434,1.75,-2.354018486435));
#714 = LINE('',#715,#716);
#715 = CARTESIAN_POINT('',(-1.732292696399,2.58054715224,-2.237292696399
    ));
#716 = VECTOR('',#717,1.);
#717 = DIRECTION('',(-0.137844537492,-0.980814848464,-0.137844537491));
#718 = ORIENTED_EDGE('',*,*,#719,.F.);
#719 = EDGE_CURVE('',#546,#712,#720,.T.);
#720 = LINE('',#721,#722);
#721 = CARTESIAN_POINT('',(6.519273282145,1.75,-2.354018486435));
#722 = VECTOR('',#723,1.);
#723 = DIRECTION('',(-1.,0.,0.));
#724 = PLANE('',#725);
#725 = AXIS2_PLACEMENT_3D('',#726,#727,#728);
#726 = CARTESIAN_POINT('',(6.519273282145,1.067056044465,-2.45));
#727 = DIRECTION('',(0.,-0.13917310096,0.990268068742));
#728 = DIRECTION('',(-0.,-0.990268068742,-0.13917310096));
#729 = ADVANCED_FACE('',(#730),#741,.T.);
#730 = FACE_BOUND('',#731,.T.);
#731 = EDGE_LOOP('',(#732,#733,#734,#735));
#732 = ORIENTED_EDGE('',*,*,#695,.F.);
#733 = ORIENTED_EDGE('',*,*,#545,.T.);
#734 = ORIENTED_EDGE('',*,*,#719,.T.);
#735 = ORIENTED_EDGE('',*,*,#736,.F.);
#736 = EDGE_CURVE('',#688,#712,#737,.T.);
#737 = LINE('',#738,#739);
#738 = CARTESIAN_POINT('',(-1.849018486434,1.75,6.519273282145));
#739 = VECTOR('',#740,1.);
#740 = DIRECTION('',(2.22044604925E-16,0.,-1.));
#741 = PLANE('',#742);
#742 = AXIS2_PLACEMENT_3D('',#743,#744,#745);
#743 = CARTESIAN_POINT('',(0.,1.75,-4.440892098501E-16));
#744 = DIRECTION('',(0.,1.,0.));
#745 = DIRECTION('',(0.,0.,1.));
#746 = ADVANCED_FACE('',(#747),#753,.T.);
#747 = FACE_BOUND('',#748,.F.);
#748 = EDGE_LOOP('',(#749,#750,#751,#752));
#749 = ORIENTED_EDGE('',*,*,#663,.F.);
#750 = ORIENTED_EDGE('',*,*,#649,.F.);
#751 = ORIENTED_EDGE('',*,*,#632,.T.);
#752 = ORIENTED_EDGE('',*,*,#608,.T.);
#753 = PLANE('',#754);
#754 = AXIS2_PLACEMENT_3D('',#755,#756,#757);
#755 = CARTESIAN_POINT('',(-1.849018486434,0.16211208893,6.519273282145)
  );
#756 = DIRECTION('',(-0.990268068742,-0.13917310096,-2.198836820936E-16)
  );
#757 = DIRECTION('',(0.13917310096,-0.990268068742,3.090263621887E-17));
#758 = ADVANCED_FACE('',(#759),#765,.F.);
#759 = FACE_BOUND('',#760,.T.);
#760 = EDGE_LOOP('',(#761,#762,#763,#764));
#761 = ORIENTED_EDGE('',*,*,#670,.F.);
#762 = ORIENTED_EDGE('',*,*,#687,.F.);
#763 = ORIENTED_EDGE('',*,*,#736,.T.);
#764 = ORIENTED_EDGE('',*,*,#711,.T.);
#765 = PLANE('',#766);
#766 = AXIS2_PLACEMENT_3D('',#767,#768,#769);
#767 = CARTESIAN_POINT('',(-1.849018486434,1.75,6.519273282145));
#768 = DIRECTION('',(0.990268068742,-0.13917310096,2.198836820936E-16));
#769 = DIRECTION('',(0.13917310096,0.990268068742,3.090263621887E-17));
#770 = ( GEOMETRIC_REPRESENTATION_CONTEXT(3) 
GLOBAL_UNCERTAINTY_ASSIGNED_CONTEXT((#774)) GLOBAL_UNIT_ASSIGNED_CONTEXT
((#771,#772,#773)) REPRESENTATION_CONTEXT('Context #1',
  '3D Context with UNIT and UNCERTAINTY') );
#771 = ( LENGTH_UNIT() NAMED_UNIT(*) SI_UNIT(.MILLI.,.METRE.) );
#772 = ( NAMED_UNIT(*) PLANE_ANGLE_UNIT() SI_UNIT($,.RADIAN.) );
#773 = ( NAMED_UNIT(*) SI_UNIT($,.STERADIAN.) SOLID_ANGLE_UNIT() );
#774 = UNCERTAINTY_MEASURE_WITH_UNIT(LENGTH_MEASURE(5.E-06),#771,
  'distance_accuracy_value','confusion accuracy');
#775 = CONTEXT_DEPENDENT_SHAPE_REPRESENTATION(#776,#778);
#776 = ( REPRESENTATION_RELATIONSHIP('','',#427,#10) 
REPRESENTATION_RELATIONSHIP_WITH_TRANSFORMATION(#777) 
SHAPE_REPRESENTATION_RELATIONSHIP() );
#777 = ITEM_DEFINED_TRANSFORMATION('','',#11,#19);
#778 = PRODUCT_DEFINITION_SHAPE('Placement','Placement of an item',#779
  );
#779 = NEXT_ASSEMBLY_USAGE_OCCURRENCE('2358','Body','',#5,#422,$);
#780 = PRODUCT_RELATED_PRODUCT_CATEGORY('part',$,(#424));
#781 = SHAPE_DEFINITION_REPRESENTATION(#782,#788);
#782 = PRODUCT_DEFINITION_SHAPE('','',#783);
#783 = PRODUCT_DEFINITION('design','',#784,#787);
#784 = PRODUCT_DEFINITION_FORMATION('','',#785);
#785 = PRODUCT('Array','Array','',(#786));
#786 = PRODUCT_CONTEXT('',#2,'mechanical');
#787 = PRODUCT_DEFINITION_CONTEXT('part definition',#2,'design');
#788 = SHAPE_REPRESENTATION('',(#11,#789,#793,#797,#801,#805,#809,#813,
    #817),#821);
#789 = AXIS2_PLACEMENT_3D('',#790,#791,#792);
#790 = CARTESIAN_POINT('',(0.,0.,0.));
#791 = DIRECTION('',(0.,0.,1.));
#792 = DIRECTION('',(1.,0.,0.));
#793 = AXIS2_PLACEMENT_3D('',#794,#795,#796);
#794 = CARTESIAN_POINT('',(0.,0.,-0.635));
#795 = DIRECTION('',(0.,0.,1.));
#796 = DIRECTION('',(1.,0.,0.));
#797 = AXIS2_PLACEMENT_3D('',#798,#799,#800);
#798 = CARTESIAN_POINT('',(0.,0.,-1.27));
#799 = DIRECTION('',(0.,0.,1.));
#800 = DIRECTION('',(1.,0.,0.));
#801 = AXIS2_PLACEMENT_3D('',#802,#803,#804);
#802 = CARTESIAN_POINT('',(0.,0.,-1.905));
#803 = DIRECTION('',(0.,0.,1.));
#804 = DIRECTION('',(1.,0.,0.));
#805 = AXIS2_PLACEMENT_3D('',#806,#807,#808);
#806 = CARTESIAN_POINT('',(0.,0.,-2.54));
#807 = DIRECTION('',(0.,0.,1.));
#808 = DIRECTION('',(1.,0.,0.));
#809 = AXIS2_PLACEMENT_3D('',#810,#811,#812);
#810 = CARTESIAN_POINT('',(0.,0.,-3.175));
#811 = DIRECTION('',(0.,0.,1.));
#812 = DIRECTION('',(1.,0.,0.));
#813 = AXIS2_PLACEMENT_3D('',#814,#815,#816);
#814 = CARTESIAN_POINT('',(0.,0.,-3.81));
#815 = DIRECTION('',(0.,0.,1.));
#816 = DIRECTION('',(1.,0.,0.));
#817 = AXIS2_PLACEMENT_3D('',#818,#819,#820);
#818 = CARTESIAN_POINT('',(0.,0.,-4.445));
#819 = DIRECTION('',(0.,0.,1.));
#820 = DIRECTION('',(1.,0.,0.));
#821 = ( GEOMETRIC_REPRESENTATION_CONTEXT(3) 
GLOBAL_UNCERTAINTY_ASSIGNED_CONTEXT((#825)) GLOBAL_UNIT_ASSIGNED_CONTEXT
((#822,#823,#824)) REPRESENTATION_CONTEXT('Context #1',
  '3D Context with UNIT and UNCERTAINTY') );
#822 = ( LENGTH_UNIT() NAMED_UNIT(*) SI_UNIT(.MILLI.,.METRE.) );
#823 = ( NAMED_UNIT(*) PLANE_ANGLE_UNIT() SI_UNIT($,.RADIAN.) );
#824 = ( NAMED_UNIT(*) SI_UNIT($,.STERADIAN.) SOLID_ANGLE_UNIT() );
#825 = UNCERTAINTY_MEASURE_WITH_UNIT(LENGTH_MEASURE(1.E-07),#822,
  'distance_accuracy_value','confusion accuracy');
#826 = CONTEXT_DEPENDENT_SHAPE_REPRESENTATION(#827,#829);
#827 = ( REPRESENTATION_RELATIONSHIP('','',#788,#10) 
REPRESENTATION_RELATIONSHIP_WITH_TRANSFORMATION(#828) 
SHAPE_REPRESENTATION_RELATIONSHIP() );
#828 = ITEM_DEFINED_TRANSFORMATION('','',#11,#23);
#829 = PRODUCT_DEFINITION_SHAPE('Placement','Placement of an item',#830
  );
#830 = NEXT_ASSEMBLY_USAGE_OCCURRENCE('2367','Array','',#5,#783,$);
#831 = PRODUCT_RELATED_PRODUCT_CATEGORY('part',$,(#785));
#832 = SHAPE_DEFINITION_REPRESENTATION(#833,#839);
#833 = PRODUCT_DEFINITION_SHAPE('','',#834);
#834 = PRODUCT_DEFINITION('design','',#835,#838);
#835 = PRODUCT_DEFINITION_FORMATION('','',#836);
#836 = PRODUCT('Body001 (Mirror #1)','Body001 (Mirror #1)','',(#837));
#837 = PRODUCT_CONTEXT('',#2,'mechanical');
#838 = PRODUCT_DEFINITION_CONTEXT('part definition',#2,'design');
#839 = ADVANCED_BREP_SHAPE_REPRESENTATION('',(#11,#840),#1122);
#840 = MANIFOLD_SOLID_BREP('',#841);
#841 = CLOSED_SHELL('',(#842,#882,#913,#944,#975,#1006,#1037,#1068,#1090
    ,#1106));
#842 = ADVANCED_FACE('',(#843),#877,.F.);
#843 = FACE_BOUND('',#844,.T.);
#844 = EDGE_LOOP('',(#845,#855,#863,#871));
#845 = ORIENTED_EDGE('',*,*,#846,.T.);
#846 = EDGE_CURVE('',#847,#849,#851,.T.);
#847 = VERTEX_POINT('',#848);
#848 = CARTESIAN_POINT('',(-1.945,0.845056044465,2.0975));
#849 = VERTEX_POINT('',#850);
#850 = CARTESIAN_POINT('',(-1.945,0.845056044465,2.3475));
#851 = LINE('',#852,#853);
#852 = CARTESIAN_POINT('',(-1.945,0.845056044465,2.0975));
#853 = VECTOR('',#854,1.);
#854 = DIRECTION('',(-0.,-0.,1.));
#855 = ORIENTED_EDGE('',*,*,#856,.T.);
#856 = EDGE_CURVE('',#849,#857,#859,.T.);
#857 = VERTEX_POINT('',#858);
#858 = CARTESIAN_POINT('',(-2.045,0.845056044465,2.3475));
#859 = LINE('',#860,#861);
#860 = CARTESIAN_POINT('',(-1.945,0.845056044465,2.3475));
#861 = VECTOR('',#862,1.);
#862 = DIRECTION('',(-1.,-0.,-0.));
#863 = ORIENTED_EDGE('',*,*,#864,.F.);
#864 = EDGE_CURVE('',#865,#857,#867,.T.);
#865 = VERTEX_POINT('',#866);
#866 = CARTESIAN_POINT('',(-2.045,0.845056044465,2.0975));
#867 = LINE('',#868,#869);
#868 = CARTESIAN_POINT('',(-2.045,0.845056044465,2.0975));
#869 = VECTOR('',#870,1.);
#870 = DIRECTION('',(-0.,-0.,1.));
#871 = ORIENTED_EDGE('',*,*,#872,.F.);
#872 = EDGE_CURVE('',#847,#865,#873,.T.);
#873 = LINE('',#874,#875);
#874 = CARTESIAN_POINT('',(-1.945,0.845056044465,2.0975));
#875 = VECTOR('',#876,1.);
#876 = DIRECTION('',(-1.,-0.,-0.));
#877 = PLANE('',#878);
#878 = AXIS2_PLACEMENT_3D('',#879,#880,#881);
#879 = CARTESIAN_POINT('',(-1.945,0.845056044465,2.0975));
#880 = DIRECTION('',(-0.,1.,-0.));
#881 = DIRECTION('',(1.,0.,0.));
#882 = ADVANCED_FACE('',(#883),#908,.F.);
#883 = FACE_BOUND('',#884,.T.);
#884 = EDGE_LOOP('',(#885,#886,#894,#902));
#885 = ORIENTED_EDGE('',*,*,#864,.T.);
#886 = ORIENTED_EDGE('',*,*,#887,.T.);
#887 = EDGE_CURVE('',#857,#888,#890,.T.);
#888 = VERTEX_POINT('',#889);
#889 = CARTESIAN_POINT('',(-2.36,-3.858377736364E-24,2.3475));
#890 = LINE('',#891,#892);
#891 = CARTESIAN_POINT('',(-2.045,0.845056044465,2.3475));
#892 = VECTOR('',#893,1.);
#893 = DIRECTION('',(-0.349279605945,-0.937018546706,-0.));
#894 = ORIENTED_EDGE('',*,*,#895,.F.);
#895 = EDGE_CURVE('',#896,#888,#898,.T.);
#896 = VERTEX_POINT('',#897);
#897 = CARTESIAN_POINT('',(-2.36,-3.858377736364E-24,2.0975));
#898 = LINE('',#899,#900);
#899 = CARTESIAN_POINT('',(-2.36,-3.858377736364E-24,2.0975));
#900 = VECTOR('',#901,1.);
#901 = DIRECTION('',(-0.,-0.,1.));
#902 = ORIENTED_EDGE('',*,*,#903,.F.);
#903 = EDGE_CURVE('',#865,#896,#904,.T.);
#904 = LINE('',#905,#906);
#905 = CARTESIAN_POINT('',(-2.045,0.845056044465,2.0975));
#906 = VECTOR('',#907,1.);
#907 = DIRECTION('',(-0.349279605945,-0.937018546706,-0.));
#908 = PLANE('',#909);
#909 = AXIS2_PLACEMENT_3D('',#910,#911,#912);
#910 = CARTESIAN_POINT('',(-2.045,0.845056044465,2.0975));
#911 = DIRECTION('',(-0.937018546706,0.349279605945,-0.));
#912 = DIRECTION('',(0.349279605945,0.937018546706,0.));
#913 = ADVANCED_FACE('',(#914),#939,.F.);
#914 = FACE_BOUND('',#915,.T.);
#915 = EDGE_LOOP('',(#916,#917,#925,#933));
#916 = ORIENTED_EDGE('',*,*,#895,.T.);
#917 = ORIENTED_EDGE('',*,*,#918,.T.);
#918 = EDGE_CURVE('',#888,#919,#921,.T.);
#919 = VERTEX_POINT('',#920);
#920 = CARTESIAN_POINT('',(-3.,-1.709326753721E-23,2.3475));
#921 = LINE('',#922,#923);
#922 = CARTESIAN_POINT('',(-2.36,-1.709326753721E-23,2.3475));
#923 = VECTOR('',#924,1.);
#924 = DIRECTION('',(-1.,-0.,-0.));
#925 = ORIENTED_EDGE('',*,*,#926,.F.);
#926 = EDGE_CURVE('',#927,#919,#929,.T.);
#927 = VERTEX_POINT('',#928);
#928 = CARTESIAN_POINT('',(-3.,-1.709326753721E-23,2.0975));
#929 = LINE('',#930,#931);
#930 = CARTESIAN_POINT('',(-3.,-1.709326753721E-23,2.0975));
#931 = VECTOR('',#932,1.);
#932 = DIRECTION('',(-0.,-0.,1.));
#933 = ORIENTED_EDGE('',*,*,#934,.F.);
#934 = EDGE_CURVE('',#896,#927,#935,.T.);
#935 = LINE('',#936,#937);
#936 = CARTESIAN_POINT('',(-2.36,-1.709326753721E-23,2.0975));
#937 = VECTOR('',#938,1.);
#938 = DIRECTION('',(-1.,-0.,-0.));
#939 = PLANE('',#940);
#940 = AXIS2_PLACEMENT_3D('',#941,#942,#943);
#941 = CARTESIAN_POINT('',(-2.36,-1.709326753721E-23,2.0975));
#942 = DIRECTION('',(-0.,1.,-0.));
#943 = DIRECTION('',(1.,0.,0.));
#944 = ADVANCED_FACE('',(#945),#970,.F.);
#945 = FACE_BOUND('',#946,.T.);
#946 = EDGE_LOOP('',(#947,#948,#956,#964));
#947 = ORIENTED_EDGE('',*,*,#926,.T.);
#948 = ORIENTED_EDGE('',*,*,#949,.T.);
#949 = EDGE_CURVE('',#919,#950,#952,.T.);
#950 = VERTEX_POINT('',#951);
#951 = CARTESIAN_POINT('',(-3.,0.222,2.3475));
#952 = LINE('',#953,#954);
#953 = CARTESIAN_POINT('',(-3.,-1.709326753721E-23,2.3475));
#954 = VECTOR('',#955,1.);
#955 = DIRECTION('',(0.,1.,0.));
#956 = ORIENTED_EDGE('',*,*,#957,.F.);
#957 = EDGE_CURVE('',#958,#950,#960,.T.);
#958 = VERTEX_POINT('',#959);
#959 = CARTESIAN_POINT('',(-3.,0.222,2.0975));
#960 = LINE('',#961,#962);
#961 = CARTESIAN_POINT('',(-3.,0.222,2.0975));
#962 = VECTOR('',#963,1.);
#963 = DIRECTION('',(-0.,-0.,1.));
#964 = ORIENTED_EDGE('',*,*,#965,.F.);
#965 = EDGE_CURVE('',#927,#958,#966,.T.);
#966 = LINE('',#967,#968);
#967 = CARTESIAN_POINT('',(-3.,-1.709326753721E-23,2.0975));
#968 = VECTOR('',#969,1.);
#969 = DIRECTION('',(0.,1.,0.));
#970 = PLANE('',#971);
#971 = AXIS2_PLACEMENT_3D('',#972,#973,#974);
#972 = CARTESIAN_POINT('',(-3.,-1.709326753721E-23,2.0975));
#973 = DIRECTION('',(1.,-0.,-0.));
#974 = DIRECTION('',(0.,-1.,0.));
#975 = ADVANCED_FACE('',(#976),#1001,.F.);
#976 = FACE_BOUND('',#977,.T.);
#977 = EDGE_LOOP('',(#978,#979,#987,#995));
#978 = ORIENTED_EDGE('',*,*,#957,.T.);
#979 = ORIENTED_EDGE('',*,*,#980,.T.);
#980 = EDGE_CURVE('',#950,#981,#983,.T.);
#981 = VERTEX_POINT('',#982);
#982 = CARTESIAN_POINT('',(-2.514169763222,0.222,2.3475));
#983 = LINE('',#984,#985);
#984 = CARTESIAN_POINT('',(-3.,0.222,2.3475));
#985 = VECTOR('',#986,1.);
#986 = DIRECTION('',(1.,0.,0.));
#987 = ORIENTED_EDGE('',*,*,#988,.F.);
#988 = EDGE_CURVE('',#989,#981,#991,.T.);
#989 = VERTEX_POINT('',#990);
#990 = CARTESIAN_POINT('',(-2.514169763222,0.222,2.0975));
#991 = LINE('',#992,#993);
#992 = CARTESIAN_POINT('',(-2.514169763222,0.222,2.0975));
#993 = VECTOR('',#994,1.);
#994 = DIRECTION('',(-0.,-0.,1.));
#995 = ORIENTED_EDGE('',*,*,#996,.F.);
#996 = EDGE_CURVE('',#958,#989,#997,.T.);
#997 = LINE('',#998,#999);
#998 = CARTESIAN_POINT('',(-3.,0.222,2.0975));
#999 = VECTOR('',#1000,1.);
#1000 = DIRECTION('',(1.,0.,0.));
#1001 = PLANE('',#1002);
#1002 = AXIS2_PLACEMENT_3D('',#1003,#1004,#1005);
#1003 = CARTESIAN_POINT('',(-3.,0.222,2.0975));
#1004 = DIRECTION('',(-0.,-1.,-0.));
#1005 = DIRECTION('',(-1.,0.,0.));
#1006 = ADVANCED_FACE('',(#1007),#1032,.F.);
#1007 = FACE_BOUND('',#1008,.T.);
#1008 = EDGE_LOOP('',(#1009,#1010,#1018,#1026));
#1009 = ORIENTED_EDGE('',*,*,#988,.T.);
#1010 = ORIENTED_EDGE('',*,*,#1011,.T.);
#1011 = EDGE_CURVE('',#981,#1012,#1014,.T.);
#1012 = VERTEX_POINT('',#1013);
#1013 = CARTESIAN_POINT('',(-2.199169763222,1.067056044465,2.3475));
#1014 = LINE('',#1015,#1016);
#1015 = CARTESIAN_POINT('',(-2.514169763222,0.222,2.3475));
#1016 = VECTOR('',#1017,1.);
#1017 = DIRECTION('',(0.349279605945,0.937018546706,0.));
#1018 = ORIENTED_EDGE('',*,*,#1019,.F.);
#1019 = EDGE_CURVE('',#1020,#1012,#1022,.T.);
#1020 = VERTEX_POINT('',#1021);
#1021 = CARTESIAN_POINT('',(-2.199169763222,1.067056044465,2.0975));
#1022 = LINE('',#1023,#1024);
#1023 = CARTESIAN_POINT('',(-2.199169763222,1.067056044465,2.0975));
#1024 = VECTOR('',#1025,1.);
#1025 = DIRECTION('',(-0.,-0.,1.));
#1026 = ORIENTED_EDGE('',*,*,#1027,.F.);
#1027 = EDGE_CURVE('',#989,#1020,#1028,.T.);
#1028 = LINE('',#1029,#1030);
#1029 = CARTESIAN_POINT('',(-2.514169763222,0.222,2.0975));
#1030 = VECTOR('',#1031,1.);
#1031 = DIRECTION('',(0.349279605945,0.937018546706,0.));
#1032 = PLANE('',#1033);
#1033 = AXIS2_PLACEMENT_3D('',#1034,#1035,#1036);
#1034 = CARTESIAN_POINT('',(-2.514169763222,0.222,2.0975));
#1035 = DIRECTION('',(0.937018546706,-0.349279605945,0.));
#1036 = DIRECTION('',(-0.349279605945,-0.937018546706,0.));
#1037 = ADVANCED_FACE('',(#1038),#1063,.F.);
#1038 = FACE_BOUND('',#1039,.T.);
#1039 = EDGE_LOOP('',(#1040,#1041,#1049,#1057));
#1040 = ORIENTED_EDGE('',*,*,#1019,.T.);
#1041 = ORIENTED_EDGE('',*,*,#1042,.T.);
#1042 = EDGE_CURVE('',#1012,#1043,#1045,.T.);
#1043 = VERTEX_POINT('',#1044);
#1044 = CARTESIAN_POINT('',(-1.945,1.067056044465,2.3475));
#1045 = LINE('',#1046,#1047);
#1046 = CARTESIAN_POINT('',(-2.199169763222,1.067056044465,2.3475));
#1047 = VECTOR('',#1048,1.);
#1048 = DIRECTION('',(1.,0.,0.));
#1049 = ORIENTED_EDGE('',*,*,#1050,.F.);
#1050 = EDGE_CURVE('',#1051,#1043,#1053,.T.);
#1051 = VERTEX_POINT('',#1052);
#1052 = CARTESIAN_POINT('',(-1.945,1.067056044465,2.0975));
#1053 = LINE('',#1054,#1055);
#1054 = CARTESIAN_POINT('',(-1.945,1.067056044465,2.0975));
#1055 = VECTOR('',#1056,1.);
#1056 = DIRECTION('',(-0.,-0.,1.));
#1057 = ORIENTED_EDGE('',*,*,#1058,.F.);
#1058 = EDGE_CURVE('',#1020,#1051,#1059,.T.);
#1059 = LINE('',#1060,#1061);
#1060 = CARTESIAN_POINT('',(-2.199169763222,1.067056044465,2.0975));
#1061 = VECTOR('',#1062,1.);
#1062 = DIRECTION('',(1.,0.,0.));
#1063 = PLANE('',#1064);
#1064 = AXIS2_PLACEMENT_3D('',#1065,#1066,#1067);
#1065 = CARTESIAN_POINT('',(-2.199169763222,1.067056044465,2.0975));
#1066 = DIRECTION('',(-0.,-1.,-0.));
#1067 = DIRECTION('',(-1.,0.,0.));
#1068 = ADVANCED_FACE('',(#1069),#1085,.F.);
#1069 = FACE_BOUND('',#1070,.T.);
#1070 = EDGE_LOOP('',(#1071,#1072,#1078,#1079));
#1071 = ORIENTED_EDGE('',*,*,#1050,.T.);
#1072 = ORIENTED_EDGE('',*,*,#1073,.T.);
#1073 = EDGE_CURVE('',#1043,#849,#1074,.T.);
#1074 = LINE('',#1075,#1076);
#1075 = CARTESIAN_POINT('',(-1.945,1.067056044465,2.3475));
#1076 = VECTOR('',#1077,1.);
#1077 = DIRECTION('',(-0.,-1.,-0.));
#1078 = ORIENTED_EDGE('',*,*,#846,.F.);
#1079 = ORIENTED_EDGE('',*,*,#1080,.F.);
#1080 = EDGE_CURVE('',#1051,#847,#1081,.T.);
#1081 = LINE('',#1082,#1083);
#1082 = CARTESIAN_POINT('',(-1.945,1.067056044465,2.0975));
#1083 = VECTOR('',#1084,1.);
#1084 = DIRECTION('',(-0.,-1.,-0.));
#1085 = PLANE('',#1086);
#1086 = AXIS2_PLACEMENT_3D('',#1087,#1088,#1089);
#1087 = CARTESIAN_POINT('',(-1.945,1.067056044465,2.0975));
#1088 = DIRECTION('',(-1.,-0.,-0.));
#1089 = DIRECTION('',(0.,1.,0.));
#1090 = ADVANCED_FACE('',(#1091),#1101,.F.);
#1091 = FACE_BOUND('',#1092,.T.);
#1092 = EDGE_LOOP('',(#1093,#1094,#1095,#1096,#1097,#1098,#1099,#1100));
#1093 = ORIENTED_EDGE('',*,*,#872,.T.);
#1094 = ORIENTED_EDGE('',*,*,#903,.T.);
#1095 = ORIENTED_EDGE('',*,*,#934,.T.);
#1096 = ORIENTED_EDGE('',*,*,#965,.T.);
#1097 = ORIENTED_EDGE('',*,*,#996,.T.);
#1098 = ORIENTED_EDGE('',*,*,#1027,.T.);
#1099 = ORIENTED_EDGE('',*,*,#1058,.T.);
#1100 = ORIENTED_EDGE('',*,*,#1080,.T.);
#1101 = PLANE('',#1102);
#1102 = AXIS2_PLACEMENT_3D('',#1103,#1104,#1105);
#1103 = CARTESIAN_POINT('',(-2.411758489165,0.446062003452,2.0975));
#1104 = DIRECTION('',(0.,0.,1.));
#1105 = DIRECTION('',(1.,0.,0.));
#1106 = ADVANCED_FACE('',(#1107),#1117,.T.);
#1107 = FACE_BOUND('',#1108,.F.);
#1108 = EDGE_LOOP('',(#1109,#1110,#1111,#1112,#1113,#1114,#1115,#1116));
#1109 = ORIENTED_EDGE('',*,*,#856,.T.);
#1110 = ORIENTED_EDGE('',*,*,#887,.T.);
#1111 = ORIENTED_EDGE('',*,*,#918,.T.);
#1112 = ORIENTED_EDGE('',*,*,#949,.T.);
#1113 = ORIENTED_EDGE('',*,*,#980,.T.);
#1114 = ORIENTED_EDGE('',*,*,#1011,.T.);
#1115 = ORIENTED_EDGE('',*,*,#1042,.T.);
#1116 = ORIENTED_EDGE('',*,*,#1073,.T.);
#1117 = PLANE('',#1118);
#1118 = AXIS2_PLACEMENT_3D('',#1119,#1120,#1121);
#1119 = CARTESIAN_POINT('',(-2.411758489165,0.446062003452,2.3475));
#1120 = DIRECTION('',(0.,0.,1.));
#1121 = DIRECTION('',(1.,0.,0.));
#1122 = ( GEOMETRIC_REPRESENTATION_CONTEXT(3) 
GLOBAL_UNCERTAINTY_ASSIGNED_CONTEXT((#1126)) 
GLOBAL_UNIT_ASSIGNED_CONTEXT((#1123,#1124,#1125)) REPRESENTATION_CONTEXT
('Context #1','3D Context with UNIT and UNCERTAINTY') );
#1123 = ( LENGTH_UNIT() NAMED_UNIT(*) SI_UNIT(.MILLI.,.METRE.) );
#1124 = ( NAMED_UNIT(*) PLANE_ANGLE_UNIT() SI_UNIT($,.RADIAN.) );
#1125 = ( NAMED_UNIT(*) SI_UNIT($,.STERADIAN.) SOLID_ANGLE_UNIT() );
#1126 = UNCERTAINTY_MEASURE_WITH_UNIT(LENGTH_MEASURE(1.E-07),#1123,
  'distance_accuracy_value','confusion accuracy');
#1127 = CONTEXT_DEPENDENT_SHAPE_REPRESENTATION(#1128,#1130);
#1128 = ( REPRESENTATION_RELATIONSHIP('','',#839,#788) 
REPRESENTATION_RELATIONSHIP_WITH_TRANSFORMATION(#1129) 
SHAPE_REPRESENTATION_RELATIONSHIP() );
#1129 = ITEM_DEFINED_TRANSFORMATION('','',#11,#789);
#1130 = PRODUCT_DEFINITION_SHAPE('Placement','Placement of an item',
  #1131);
#1131 = NEXT_ASSEMBLY_USAGE_OCCURRENCE('2359','0','',#783,#834,$);
#1132 = PRODUCT_RELATED_PRODUCT_CATEGORY('part',$,(#836));
#1133 = CONTEXT_DEPENDENT_SHAPE_REPRESENTATION(#1134,#1136);
#1134 = ( REPRESENTATION_RELATIONSHIP('','',#839,#788) 
REPRESENTATION_RELATIONSHIP_WITH_TRANSFORMATION(#1135) 
SHAPE_REPRESENTATION_RELATIONSHIP() );
#1135 = ITEM_DEFINED_TRANSFORMATION('','',#11,#793);
#1136 = PRODUCT_DEFINITION_SHAPE('Placement','Placement of an item',
  #1137);
#1137 = NEXT_ASSEMBLY_USAGE_OCCURRENCE('2360','1','',#783,#834,$);
#1138 = CONTEXT_DEPENDENT_SHAPE_REPRESENTATION(#1139,#1141);
#1139 = ( REPRESENTATION_RELATIONSHIP('','',#839,#788) 
REPRESENTATION_RELATIONSHIP_WITH_TRANSFORMATION(#1140) 
SHAPE_REPRESENTATION_RELATIONSHIP() );
#1140 = ITEM_DEFINED_TRANSFORMATION('','',#11,#797);
#1141 = PRODUCT_DEFINITION_SHAPE('Placement','Placement of an item',
  #1142);
#1142 = NEXT_ASSEMBLY_USAGE_OCCURRENCE('2361','2','',#783,#834,$);
#1143 = CONTEXT_DEPENDENT_SHAPE_REPRESENTATION(#1144,#1146);
#1144 = ( REPRESENTATION_RELATIONSHIP('','',#839,#788) 
REPRESENTATION_RELATIONSHIP_WITH_TRANSFORMATION(#1145) 
SHAPE_REPRESENTATION_RELATIONSHIP() );
#1145 = ITEM_DEFINED_TRANSFORMATION('','',#11,#801);
#1146 = PRODUCT_DEFINITION_SHAPE('Placement','Placement of an item',
  #1147);
#1147 = NEXT_ASSEMBLY_USAGE_OCCURRENCE('2362','3','',#783,#834,$);
#1148 = CONTEXT_DEPENDENT_SHAPE_REPRESENTATION(#1149,#1151);
#1149 = ( REPRESENTATION_RELATIONSHIP('','',#839,#788) 
REPRESENTATION_RELATIONSHIP_WITH_TRANSFORMATION(#1150) 
SHAPE_REPRESENTATION_RELATIONSHIP() );
#1150 = ITEM_DEFINED_TRANSFORMATION('','',#11,#805);
#1151 = PRODUCT_DEFINITION_SHAPE('Placement','Placement of an item',
  #1152);
#1152 = NEXT_ASSEMBLY_USAGE_OCCURRENCE('2363','4','',#783,#834,$);
#1153 = CONTEXT_DEPENDENT_SHAPE_REPRESENTATION(#1154,#1156);
#1154 = ( REPRESENTATION_RELATIONSHIP('','',#839,#788) 
REPRESENTATION_RELATIONSHIP_WITH_TRANSFORMATION(#1155) 
SHAPE_REPRESENTATION_RELATIONSHIP() );
#1155 = ITEM_DEFINED_TRANSFORMATION('','',#11,#809);
#1156 = PRODUCT_DEFINITION_SHAPE('Placement','Placement of an item',
  #1157);
#1157 = NEXT_ASSEMBLY_USAGE_OCCURRENCE('2364','5','',#783,#834,$);
#1158 = CONTEXT_DEPENDENT_SHAPE_REPRESENTATION(#1159,#1161);
#1159 = ( REPRESENTATION_RELATIONSHIP('','',#839,#788) 
REPRESENTATION_RELATIONSHIP_WITH_TRANSFORMATION(#1160) 
SHAPE_REPRESENTATION_RELATIONSHIP() );
#1160 = ITEM_DEFINED_TRANSFORMATION('','',#11,#813);
#1161 = PRODUCT_DEFINITION_SHAPE('Placement','Placement of an item',
  #1162);
#1162 = NEXT_ASSEMBLY_USAGE_OCCURRENCE('2365','6','',#783,#834,$);
#1163 = CONTEXT_DEPENDENT_SHAPE_REPRESENTATION(#1164,#1166);
#1164 = ( REPRESENTATION_RELATIONSHIP('','',#839,#788) 
REPRESENTATION_RELATIONSHIP_WITH_TRANSFORMATION(#1165) 
SHAPE_REPRESENTATION_RELATIONSHIP() );
#1165 = ITEM_DEFINED_TRANSFORMATION('','',#11,#817);
#1166 = PRODUCT_DEFINITION_SHAPE('Placement','Placement of an item',
  #1167);
#1167 = NEXT_ASSEMBLY_USAGE_OCCURRENCE('2366','7','',#783,#834,$);
#1168 = MECHANICAL_DESIGN_GEOMETRIC_PRESENTATION_REPRESENTATION('',(
    #1169),#374);
#1169 = STYLED_ITEM('color',(#1170),#92);
#1170 = PRESENTATION_STYLE_ASSIGNMENT((#1171,#1177));
#1171 = SURFACE_STYLE_USAGE(.BOTH.,#1172);
#1172 = SURFACE_SIDE_STYLE('',(#1173));
#1173 = SURFACE_STYLE_FILL_AREA(#1174);
#1174 = FILL_AREA_STYLE('',(#1175));
#1175 = FILL_AREA_STYLE_COLOUR('',#1176);
#1176 = COLOUR_RGB('',0.800000010877,0.800000010877,0.800000010877);
#1177 = CURVE_STYLE('',#1178,POSITIVE_LENGTH_MEASURE(0.1),#1179);
#1178 = DRAUGHTING_PRE_DEFINED_CURVE_FONT('continuous');
#1179 = COLOUR_RGB('',9.803921802644E-02,9.803921802644E-02,
  9.803921802644E-02);
#1180 = MECHANICAL_DESIGN_GEOMETRIC_PRESENTATION_REPRESENTATION('',(
    #1181),#770);
#1181 = STYLED_ITEM('color',(#1182),#428);
#1182 = PRESENTATION_STYLE_ASSIGNMENT((#1183,#1189));
#1183 = SURFACE_STYLE_USAGE(.BOTH.,#1184);
#1184 = SURFACE_SIDE_STYLE('',(#1185));
#1185 = SURFACE_STYLE_FILL_AREA(#1186);
#1186 = FILL_AREA_STYLE('',(#1187));
#1187 = FILL_AREA_STYLE_COLOUR('',#1188);
#1188 = COLOUR_RGB('',0.196078429142,0.196078429142,0.196078429142);
#1189 = CURVE_STYLE('',#1190,POSITIVE_LENGTH_MEASURE(0.1),#1179);
#1190 = DRAUGHTING_PRE_DEFINED_CURVE_FONT('continuous');
#1191 = MECHANICAL_DESIGN_GEOMETRIC_PRESENTATION_REPRESENTATION('',(
    #1192),#1122);
#1192 = STYLED_ITEM('color',(#1193),#840);
#1193 = PRESENTATION_STYLE_ASSIGNMENT((#1194,#1199));
#1194 = SURFACE_STYLE_USAGE(.BOTH.,#1195);
#1195 = SURFACE_SIDE_STYLE('',(#1196));
#1196 = SURFACE_STYLE_FILL_AREA(#1197);
#1197 = FILL_AREA_STYLE('',(#1198));
#1198 = FILL_AREA_STYLE_COLOUR('',#1176);
#1199 = CURVE_STYLE('',#1200,POSITIVE_LENGTH_MEASURE(0.1),#1179);
#1200 = DRAUGHTING_PRE_DEFINED_CURVE_FONT('continuous');
ENDSEC;
END-ISO-10303-21;
