ISO-10303-21;
HEADER;
/* Generated by software containing ST-Developer
 * from STEP Tools, Inc. (www.steptools.com) 
 */

FILE_DESCRIPTION(
/* description */ (''),
/* implementation_level */ '2;1');

FILE_NAME(
/* name */ 'HD107s-2020.step',
/* time_stamp */ '2026-03-15T08:24:47+02:00',
/* author */ (''),
/* organization */ (''),
/* preprocessor_version */ 'ST-DEVELOPER v20.1',
/* originating_system */ 'Autodesk Translation Framework v14.24.0.0',
/* authorisation */ '');

FILE_SCHEMA (('AUTOMOTIVE_DESIGN { 1 0 10303 214 3 1 1 }'));
ENDSEC;

DATA;
#10=MECHANICAL_DESIGN_GEOMETRIC_PRESENTATION_REPRESENTATION('',(#13),#909);
#11=SHAPE_REPRESENTATION_RELATIONSHIP('SRR','None',#916,#12);
#12=ADVANCED_BREP_SHAPE_REPRESENTATION('',(#14),#908);
#13=STYLED_ITEM('',(#925),#14);
#14=MANIFOLD_SOLID_BREP('Body1',#569);
#15=FACE_OUTER_BOUND('',#43,.T.);
#16=FACE_OUTER_BOUND('',#44,.T.);
#17=FACE_OUTER_BOUND('',#45,.T.);
#18=FACE_OUTER_BOUND('',#46,.T.);
#19=FACE_OUTER_BOUND('',#47,.T.);
#20=FACE_OUTER_BOUND('',#48,.T.);
#21=FACE_OUTER_BOUND('',#49,.T.);
#22=FACE_OUTER_BOUND('',#50,.T.);
#23=FACE_OUTER_BOUND('',#51,.T.);
#24=FACE_OUTER_BOUND('',#52,.T.);
#25=FACE_OUTER_BOUND('',#53,.T.);
#26=FACE_OUTER_BOUND('',#54,.T.);
#27=FACE_OUTER_BOUND('',#55,.T.);
#28=FACE_OUTER_BOUND('',#56,.T.);
#29=FACE_OUTER_BOUND('',#57,.T.);
#30=FACE_OUTER_BOUND('',#58,.T.);
#31=FACE_OUTER_BOUND('',#59,.T.);
#32=FACE_OUTER_BOUND('',#60,.T.);
#33=FACE_OUTER_BOUND('',#61,.T.);
#34=FACE_OUTER_BOUND('',#62,.T.);
#35=FACE_OUTER_BOUND('',#63,.T.);
#36=FACE_OUTER_BOUND('',#64,.T.);
#37=FACE_OUTER_BOUND('',#65,.T.);
#38=FACE_OUTER_BOUND('',#66,.T.);
#39=FACE_OUTER_BOUND('',#67,.T.);
#40=FACE_OUTER_BOUND('',#68,.T.);
#41=FACE_OUTER_BOUND('',#69,.T.);
#42=FACE_OUTER_BOUND('',#70,.T.);
#43=EDGE_LOOP('',(#357,#358,#359,#360));
#44=EDGE_LOOP('',(#361,#362,#363,#364,#365,#366,#367,#368,#369,#370,#371,
#372,#373,#374,#375,#376,#377,#378,#379,#380,#381,#382));
#45=EDGE_LOOP('',(#383,#384,#385,#386));
#46=EDGE_LOOP('',(#387,#388,#389,#390));
#47=EDGE_LOOP('',(#391,#392,#393,#394));
#48=EDGE_LOOP('',(#395,#396,#397,#398));
#49=EDGE_LOOP('',(#399,#400,#401,#402));
#50=EDGE_LOOP('',(#403,#404,#405,#406));
#51=EDGE_LOOP('',(#407,#408,#409,#410));
#52=EDGE_LOOP('',(#411,#412,#413,#414));
#53=EDGE_LOOP('',(#415,#416,#417,#418,#419,#420,#421,#422));
#54=EDGE_LOOP('',(#423,#424,#425,#426));
#55=EDGE_LOOP('',(#427,#428,#429,#430));
#56=EDGE_LOOP('',(#431,#432,#433,#434));
#57=EDGE_LOOP('',(#435,#436,#437,#438));
#58=EDGE_LOOP('',(#439,#440,#441,#442));
#59=EDGE_LOOP('',(#443,#444,#445,#446,#447,#448,#449,#450));
#60=EDGE_LOOP('',(#451,#452,#453,#454,#455,#456));
#61=EDGE_LOOP('',(#457,#458,#459,#460));
#62=EDGE_LOOP('',(#461,#462,#463,#464));
#63=EDGE_LOOP('',(#465,#466,#467,#468));
#64=EDGE_LOOP('',(#469,#470,#471,#472,#473,#474,#475,#476,#477,#478,#479,
#480));
#65=EDGE_LOOP('',(#481,#482,#483,#484));
#66=EDGE_LOOP('',(#485,#486,#487,#488));
#67=EDGE_LOOP('',(#489,#490,#491,#492));
#68=EDGE_LOOP('',(#493,#494,#495,#496));
#69=EDGE_LOOP('',(#497,#498,#499,#500,#501,#502,#503,#504,#505,#506,#507,
#508));
#70=EDGE_LOOP('',(#509,#510,#511,#512));
#71=LINE('',#751,#149);
#72=LINE('',#753,#150);
#73=LINE('',#755,#151);
#74=LINE('',#756,#152);
#75=LINE('',#760,#153);
#76=LINE('',#762,#154);
#77=LINE('',#764,#155);
#78=LINE('',#766,#156);
#79=LINE('',#768,#157);
#80=LINE('',#770,#158);
#81=LINE('',#772,#159);
#82=LINE('',#774,#160);
#83=LINE('',#776,#161);
#84=LINE('',#778,#162);
#85=LINE('',#780,#163);
#86=LINE('',#782,#164);
#87=LINE('',#784,#165);
#88=LINE('',#786,#166);
#89=LINE('',#788,#167);
#90=LINE('',#790,#168);
#91=LINE('',#792,#169);
#92=LINE('',#794,#170);
#93=LINE('',#796,#171);
#94=LINE('',#798,#172);
#95=LINE('',#800,#173);
#96=LINE('',#801,#174);
#97=LINE('',#805,#175);
#98=LINE('',#806,#176);
#99=LINE('',#807,#177);
#100=LINE('',#810,#178);
#101=LINE('',#811,#179);
#102=LINE('',#814,#180);
#103=LINE('',#815,#181);
#104=LINE('',#819,#182);
#105=LINE('',#820,#183);
#106=LINE('',#821,#184);
#107=LINE('',#824,#185);
#108=LINE('',#825,#186);
#109=LINE('',#828,#187);
#110=LINE('',#829,#188);
#111=LINE('',#833,#189);
#112=LINE('',#834,#190);
#113=LINE('',#835,#191);
#114=LINE('',#838,#192);
#115=LINE('',#839,#193);
#116=LINE('',#842,#194);
#117=LINE('',#843,#195);
#118=LINE('',#844,#196);
#119=LINE('',#846,#197);
#120=LINE('',#850,#198);
#121=LINE('',#851,#199);
#122=LINE('',#852,#200);
#123=LINE('',#855,#201);
#124=LINE('',#856,#202);
#125=LINE('',#859,#203);
#126=LINE('',#860,#204);
#127=LINE('',#863,#205);
#128=LINE('',#864,#206);
#129=LINE('',#867,#207);
#130=LINE('',#868,#208);
#131=LINE('',#869,#209);
#132=LINE('',#871,#210);
#133=LINE('',#875,#211);
#134=LINE('',#876,#212);
#135=LINE('',#877,#213);
#136=LINE('',#880,#214);
#137=LINE('',#881,#215);
#138=LINE('',#884,#216);
#139=LINE('',#885,#217);
#140=LINE('',#887,#218);
#141=LINE('',#892,#219);
#142=LINE('',#893,#220);
#143=LINE('',#894,#221);
#144=LINE('',#897,#222);
#145=LINE('',#898,#223);
#146=LINE('',#901,#224);
#147=LINE('',#902,#225);
#148=LINE('',#904,#226);
#149=VECTOR('',#615,10.);
#150=VECTOR('',#616,10.);
#151=VECTOR('',#617,10.);
#152=VECTOR('',#618,10.);
#153=VECTOR('',#621,10.);
#154=VECTOR('',#622,10.);
#155=VECTOR('',#623,10.);
#156=VECTOR('',#624,10.);
#157=VECTOR('',#625,10.);
#158=VECTOR('',#626,10.);
#159=VECTOR('',#627,10.);
#160=VECTOR('',#628,10.);
#161=VECTOR('',#629,10.);
#162=VECTOR('',#630,10.);
#163=VECTOR('',#631,10.);
#164=VECTOR('',#632,10.);
#165=VECTOR('',#633,10.);
#166=VECTOR('',#634,10.);
#167=VECTOR('',#635,10.);
#168=VECTOR('',#636,10.);
#169=VECTOR('',#637,10.);
#170=VECTOR('',#638,10.);
#171=VECTOR('',#639,10.);
#172=VECTOR('',#640,10.);
#173=VECTOR('',#641,10.);
#174=VECTOR('',#642,10.);
#175=VECTOR('',#645,10.);
#176=VECTOR('',#646,10.);
#177=VECTOR('',#647,10.);
#178=VECTOR('',#650,10.);
#179=VECTOR('',#651,10.);
#180=VECTOR('',#654,10.);
#181=VECTOR('',#655,10.);
#182=VECTOR('',#658,10.);
#183=VECTOR('',#659,10.);
#184=VECTOR('',#660,10.);
#185=VECTOR('',#663,10.);
#186=VECTOR('',#664,10.);
#187=VECTOR('',#667,10.);
#188=VECTOR('',#668,10.);
#189=VECTOR('',#671,10.);
#190=VECTOR('',#672,10.);
#191=VECTOR('',#673,10.);
#192=VECTOR('',#676,10.);
#193=VECTOR('',#677,10.);
#194=VECTOR('',#680,10.);
#195=VECTOR('',#681,10.);
#196=VECTOR('',#682,10.);
#197=VECTOR('',#685,10.);
#198=VECTOR('',#688,10.);
#199=VECTOR('',#689,10.);
#200=VECTOR('',#690,10.);
#201=VECTOR('',#693,10.);
#202=VECTOR('',#694,10.);
#203=VECTOR('',#697,10.);
#204=VECTOR('',#698,10.);
#205=VECTOR('',#701,10.);
#206=VECTOR('',#702,10.);
#207=VECTOR('',#705,10.);
#208=VECTOR('',#706,10.);
#209=VECTOR('',#707,10.);
#210=VECTOR('',#710,10.);
#211=VECTOR('',#713,10.);
#212=VECTOR('',#714,10.);
#213=VECTOR('',#715,10.);
#214=VECTOR('',#718,10.);
#215=VECTOR('',#719,10.);
#216=VECTOR('',#722,10.);
#217=VECTOR('',#723,10.);
#218=VECTOR('',#726,10.);
#219=VECTOR('',#731,10.);
#220=VECTOR('',#732,10.);
#221=VECTOR('',#733,10.);
#222=VECTOR('',#736,10.);
#223=VECTOR('',#737,10.);
#224=VECTOR('',#740,10.);
#225=VECTOR('',#741,10.);
#226=VECTOR('',#744,10.);
#227=VERTEX_POINT('',#749);
#228=VERTEX_POINT('',#750);
#229=VERTEX_POINT('',#752);
#230=VERTEX_POINT('',#754);
#231=VERTEX_POINT('',#758);
#232=VERTEX_POINT('',#759);
#233=VERTEX_POINT('',#761);
#234=VERTEX_POINT('',#763);
#235=VERTEX_POINT('',#765);
#236=VERTEX_POINT('',#767);
#237=VERTEX_POINT('',#769);
#238=VERTEX_POINT('',#771);
#239=VERTEX_POINT('',#773);
#240=VERTEX_POINT('',#775);
#241=VERTEX_POINT('',#777);
#242=VERTEX_POINT('',#779);
#243=VERTEX_POINT('',#781);
#244=VERTEX_POINT('',#783);
#245=VERTEX_POINT('',#785);
#246=VERTEX_POINT('',#787);
#247=VERTEX_POINT('',#789);
#248=VERTEX_POINT('',#791);
#249=VERTEX_POINT('',#793);
#250=VERTEX_POINT('',#795);
#251=VERTEX_POINT('',#797);
#252=VERTEX_POINT('',#799);
#253=VERTEX_POINT('',#803);
#254=VERTEX_POINT('',#804);
#255=VERTEX_POINT('',#809);
#256=VERTEX_POINT('',#813);
#257=VERTEX_POINT('',#817);
#258=VERTEX_POINT('',#818);
#259=VERTEX_POINT('',#823);
#260=VERTEX_POINT('',#827);
#261=VERTEX_POINT('',#831);
#262=VERTEX_POINT('',#832);
#263=VERTEX_POINT('',#837);
#264=VERTEX_POINT('',#841);
#265=VERTEX_POINT('',#848);
#266=VERTEX_POINT('',#849);
#267=VERTEX_POINT('',#854);
#268=VERTEX_POINT('',#858);
#269=VERTEX_POINT('',#862);
#270=VERTEX_POINT('',#866);
#271=VERTEX_POINT('',#873);
#272=VERTEX_POINT('',#874);
#273=VERTEX_POINT('',#879);
#274=VERTEX_POINT('',#883);
#275=VERTEX_POINT('',#890);
#276=VERTEX_POINT('',#891);
#277=VERTEX_POINT('',#896);
#278=VERTEX_POINT('',#900);
#279=EDGE_CURVE('',#227,#228,#71,.T.);
#280=EDGE_CURVE('',#228,#229,#72,.T.);
#281=EDGE_CURVE('',#229,#230,#73,.T.);
#282=EDGE_CURVE('',#230,#227,#74,.T.);
#283=EDGE_CURVE('',#231,#232,#75,.T.);
#284=EDGE_CURVE('',#233,#232,#76,.T.);
#285=EDGE_CURVE('',#233,#234,#77,.T.);
#286=EDGE_CURVE('',#234,#235,#78,.T.);
#287=EDGE_CURVE('',#236,#235,#79,.T.);
#288=EDGE_CURVE('',#236,#237,#80,.T.);
#289=EDGE_CURVE('',#237,#238,#81,.T.);
#290=EDGE_CURVE('',#238,#239,#82,.T.);
#291=EDGE_CURVE('',#239,#240,#83,.T.);
#292=EDGE_CURVE('',#241,#240,#84,.T.);
#293=EDGE_CURVE('',#241,#242,#85,.T.);
#294=EDGE_CURVE('',#242,#243,#86,.T.);
#295=EDGE_CURVE('',#243,#244,#87,.T.);
#296=EDGE_CURVE('',#245,#244,#88,.T.);
#297=EDGE_CURVE('',#245,#246,#89,.T.);
#298=EDGE_CURVE('',#246,#247,#90,.T.);
#299=EDGE_CURVE('',#248,#247,#91,.T.);
#300=EDGE_CURVE('',#248,#249,#92,.T.);
#301=EDGE_CURVE('',#249,#250,#93,.T.);
#302=EDGE_CURVE('',#251,#250,#94,.T.);
#303=EDGE_CURVE('',#251,#252,#95,.T.);
#304=EDGE_CURVE('',#252,#231,#96,.T.);
#305=EDGE_CURVE('',#253,#254,#97,.T.);
#306=EDGE_CURVE('',#253,#247,#98,.T.);
#307=EDGE_CURVE('',#254,#246,#99,.T.);
#308=EDGE_CURVE('',#254,#255,#100,.T.);
#309=EDGE_CURVE('',#255,#245,#101,.T.);
#310=EDGE_CURVE('',#253,#256,#102,.T.);
#311=EDGE_CURVE('',#256,#255,#103,.T.);
#312=EDGE_CURVE('',#257,#258,#104,.T.);
#313=EDGE_CURVE('',#257,#235,#105,.T.);
#314=EDGE_CURVE('',#258,#234,#106,.T.);
#315=EDGE_CURVE('',#258,#259,#107,.T.);
#316=EDGE_CURVE('',#259,#233,#108,.T.);
#317=EDGE_CURVE('',#257,#260,#109,.T.);
#318=EDGE_CURVE('',#260,#259,#110,.T.);
#319=EDGE_CURVE('',#261,#262,#111,.T.);
#320=EDGE_CURVE('',#261,#250,#112,.T.);
#321=EDGE_CURVE('',#262,#249,#113,.T.);
#322=EDGE_CURVE('',#262,#263,#114,.T.);
#323=EDGE_CURVE('',#263,#248,#115,.T.);
#324=EDGE_CURVE('',#264,#263,#116,.T.);
#325=EDGE_CURVE('',#256,#229,#117,.T.);
#326=EDGE_CURVE('',#264,#228,#118,.T.);
#327=EDGE_CURVE('',#261,#264,#119,.T.);
#328=EDGE_CURVE('',#265,#266,#120,.T.);
#329=EDGE_CURVE('',#265,#240,#121,.T.);
#330=EDGE_CURVE('',#266,#239,#122,.T.);
#331=EDGE_CURVE('',#266,#267,#123,.T.);
#332=EDGE_CURVE('',#267,#238,#124,.T.);
#333=EDGE_CURVE('',#267,#268,#125,.T.);
#334=EDGE_CURVE('',#268,#237,#126,.T.);
#335=EDGE_CURVE('',#268,#269,#127,.T.);
#336=EDGE_CURVE('',#269,#236,#128,.T.);
#337=EDGE_CURVE('',#270,#269,#129,.T.);
#338=EDGE_CURVE('',#260,#227,#130,.T.);
#339=EDGE_CURVE('',#270,#230,#131,.T.);
#340=EDGE_CURVE('',#265,#270,#132,.T.);
#341=EDGE_CURVE('',#271,#272,#133,.T.);
#342=EDGE_CURVE('',#271,#244,#134,.T.);
#343=EDGE_CURVE('',#272,#243,#135,.T.);
#344=EDGE_CURVE('',#272,#273,#136,.T.);
#345=EDGE_CURVE('',#273,#242,#137,.T.);
#346=EDGE_CURVE('',#273,#274,#138,.T.);
#347=EDGE_CURVE('',#274,#241,#139,.T.);
#348=EDGE_CURVE('',#271,#274,#140,.T.);
#349=EDGE_CURVE('',#275,#276,#141,.T.);
#350=EDGE_CURVE('',#275,#232,#142,.T.);
#351=EDGE_CURVE('',#276,#231,#143,.T.);
#352=EDGE_CURVE('',#276,#277,#144,.T.);
#353=EDGE_CURVE('',#277,#252,#145,.T.);
#354=EDGE_CURVE('',#277,#278,#146,.T.);
#355=EDGE_CURVE('',#278,#251,#147,.T.);
#356=EDGE_CURVE('',#275,#278,#148,.T.);
#357=ORIENTED_EDGE('',*,*,#279,.T.);
#358=ORIENTED_EDGE('',*,*,#280,.T.);
#359=ORIENTED_EDGE('',*,*,#281,.T.);
#360=ORIENTED_EDGE('',*,*,#282,.T.);
#361=ORIENTED_EDGE('',*,*,#283,.T.);
#362=ORIENTED_EDGE('',*,*,#284,.F.);
#363=ORIENTED_EDGE('',*,*,#285,.T.);
#364=ORIENTED_EDGE('',*,*,#286,.T.);
#365=ORIENTED_EDGE('',*,*,#287,.F.);
#366=ORIENTED_EDGE('',*,*,#288,.T.);
#367=ORIENTED_EDGE('',*,*,#289,.T.);
#368=ORIENTED_EDGE('',*,*,#290,.T.);
#369=ORIENTED_EDGE('',*,*,#291,.T.);
#370=ORIENTED_EDGE('',*,*,#292,.F.);
#371=ORIENTED_EDGE('',*,*,#293,.T.);
#372=ORIENTED_EDGE('',*,*,#294,.T.);
#373=ORIENTED_EDGE('',*,*,#295,.T.);
#374=ORIENTED_EDGE('',*,*,#296,.F.);
#375=ORIENTED_EDGE('',*,*,#297,.T.);
#376=ORIENTED_EDGE('',*,*,#298,.T.);
#377=ORIENTED_EDGE('',*,*,#299,.F.);
#378=ORIENTED_EDGE('',*,*,#300,.T.);
#379=ORIENTED_EDGE('',*,*,#301,.T.);
#380=ORIENTED_EDGE('',*,*,#302,.F.);
#381=ORIENTED_EDGE('',*,*,#303,.T.);
#382=ORIENTED_EDGE('',*,*,#304,.T.);
#383=ORIENTED_EDGE('',*,*,#305,.F.);
#384=ORIENTED_EDGE('',*,*,#306,.T.);
#385=ORIENTED_EDGE('',*,*,#298,.F.);
#386=ORIENTED_EDGE('',*,*,#307,.F.);
#387=ORIENTED_EDGE('',*,*,#308,.F.);
#388=ORIENTED_EDGE('',*,*,#307,.T.);
#389=ORIENTED_EDGE('',*,*,#297,.F.);
#390=ORIENTED_EDGE('',*,*,#309,.F.);
#391=ORIENTED_EDGE('',*,*,#310,.F.);
#392=ORIENTED_EDGE('',*,*,#305,.T.);
#393=ORIENTED_EDGE('',*,*,#308,.T.);
#394=ORIENTED_EDGE('',*,*,#311,.F.);
#395=ORIENTED_EDGE('',*,*,#312,.F.);
#396=ORIENTED_EDGE('',*,*,#313,.T.);
#397=ORIENTED_EDGE('',*,*,#286,.F.);
#398=ORIENTED_EDGE('',*,*,#314,.F.);
#399=ORIENTED_EDGE('',*,*,#315,.F.);
#400=ORIENTED_EDGE('',*,*,#314,.T.);
#401=ORIENTED_EDGE('',*,*,#285,.F.);
#402=ORIENTED_EDGE('',*,*,#316,.F.);
#403=ORIENTED_EDGE('',*,*,#317,.F.);
#404=ORIENTED_EDGE('',*,*,#312,.T.);
#405=ORIENTED_EDGE('',*,*,#315,.T.);
#406=ORIENTED_EDGE('',*,*,#318,.F.);
#407=ORIENTED_EDGE('',*,*,#319,.F.);
#408=ORIENTED_EDGE('',*,*,#320,.T.);
#409=ORIENTED_EDGE('',*,*,#301,.F.);
#410=ORIENTED_EDGE('',*,*,#321,.F.);
#411=ORIENTED_EDGE('',*,*,#322,.F.);
#412=ORIENTED_EDGE('',*,*,#321,.T.);
#413=ORIENTED_EDGE('',*,*,#300,.F.);
#414=ORIENTED_EDGE('',*,*,#323,.F.);
#415=ORIENTED_EDGE('',*,*,#324,.T.);
#416=ORIENTED_EDGE('',*,*,#323,.T.);
#417=ORIENTED_EDGE('',*,*,#299,.T.);
#418=ORIENTED_EDGE('',*,*,#306,.F.);
#419=ORIENTED_EDGE('',*,*,#310,.T.);
#420=ORIENTED_EDGE('',*,*,#325,.T.);
#421=ORIENTED_EDGE('',*,*,#280,.F.);
#422=ORIENTED_EDGE('',*,*,#326,.F.);
#423=ORIENTED_EDGE('',*,*,#324,.F.);
#424=ORIENTED_EDGE('',*,*,#327,.F.);
#425=ORIENTED_EDGE('',*,*,#319,.T.);
#426=ORIENTED_EDGE('',*,*,#322,.T.);
#427=ORIENTED_EDGE('',*,*,#328,.F.);
#428=ORIENTED_EDGE('',*,*,#329,.T.);
#429=ORIENTED_EDGE('',*,*,#291,.F.);
#430=ORIENTED_EDGE('',*,*,#330,.F.);
#431=ORIENTED_EDGE('',*,*,#331,.F.);
#432=ORIENTED_EDGE('',*,*,#330,.T.);
#433=ORIENTED_EDGE('',*,*,#290,.F.);
#434=ORIENTED_EDGE('',*,*,#332,.F.);
#435=ORIENTED_EDGE('',*,*,#333,.F.);
#436=ORIENTED_EDGE('',*,*,#332,.T.);
#437=ORIENTED_EDGE('',*,*,#289,.F.);
#438=ORIENTED_EDGE('',*,*,#334,.F.);
#439=ORIENTED_EDGE('',*,*,#335,.F.);
#440=ORIENTED_EDGE('',*,*,#334,.T.);
#441=ORIENTED_EDGE('',*,*,#288,.F.);
#442=ORIENTED_EDGE('',*,*,#336,.F.);
#443=ORIENTED_EDGE('',*,*,#337,.T.);
#444=ORIENTED_EDGE('',*,*,#336,.T.);
#445=ORIENTED_EDGE('',*,*,#287,.T.);
#446=ORIENTED_EDGE('',*,*,#313,.F.);
#447=ORIENTED_EDGE('',*,*,#317,.T.);
#448=ORIENTED_EDGE('',*,*,#338,.T.);
#449=ORIENTED_EDGE('',*,*,#282,.F.);
#450=ORIENTED_EDGE('',*,*,#339,.F.);
#451=ORIENTED_EDGE('',*,*,#340,.F.);
#452=ORIENTED_EDGE('',*,*,#328,.T.);
#453=ORIENTED_EDGE('',*,*,#331,.T.);
#454=ORIENTED_EDGE('',*,*,#333,.T.);
#455=ORIENTED_EDGE('',*,*,#335,.T.);
#456=ORIENTED_EDGE('',*,*,#337,.F.);
#457=ORIENTED_EDGE('',*,*,#341,.F.);
#458=ORIENTED_EDGE('',*,*,#342,.T.);
#459=ORIENTED_EDGE('',*,*,#295,.F.);
#460=ORIENTED_EDGE('',*,*,#343,.F.);
#461=ORIENTED_EDGE('',*,*,#344,.F.);
#462=ORIENTED_EDGE('',*,*,#343,.T.);
#463=ORIENTED_EDGE('',*,*,#294,.F.);
#464=ORIENTED_EDGE('',*,*,#345,.F.);
#465=ORIENTED_EDGE('',*,*,#346,.F.);
#466=ORIENTED_EDGE('',*,*,#345,.T.);
#467=ORIENTED_EDGE('',*,*,#293,.F.);
#468=ORIENTED_EDGE('',*,*,#347,.F.);
#469=ORIENTED_EDGE('',*,*,#348,.T.);
#470=ORIENTED_EDGE('',*,*,#347,.T.);
#471=ORIENTED_EDGE('',*,*,#292,.T.);
#472=ORIENTED_EDGE('',*,*,#329,.F.);
#473=ORIENTED_EDGE('',*,*,#340,.T.);
#474=ORIENTED_EDGE('',*,*,#339,.T.);
#475=ORIENTED_EDGE('',*,*,#281,.F.);
#476=ORIENTED_EDGE('',*,*,#325,.F.);
#477=ORIENTED_EDGE('',*,*,#311,.T.);
#478=ORIENTED_EDGE('',*,*,#309,.T.);
#479=ORIENTED_EDGE('',*,*,#296,.T.);
#480=ORIENTED_EDGE('',*,*,#342,.F.);
#481=ORIENTED_EDGE('',*,*,#348,.F.);
#482=ORIENTED_EDGE('',*,*,#341,.T.);
#483=ORIENTED_EDGE('',*,*,#344,.T.);
#484=ORIENTED_EDGE('',*,*,#346,.T.);
#485=ORIENTED_EDGE('',*,*,#349,.F.);
#486=ORIENTED_EDGE('',*,*,#350,.T.);
#487=ORIENTED_EDGE('',*,*,#283,.F.);
#488=ORIENTED_EDGE('',*,*,#351,.F.);
#489=ORIENTED_EDGE('',*,*,#352,.F.);
#490=ORIENTED_EDGE('',*,*,#351,.T.);
#491=ORIENTED_EDGE('',*,*,#304,.F.);
#492=ORIENTED_EDGE('',*,*,#353,.F.);
#493=ORIENTED_EDGE('',*,*,#354,.F.);
#494=ORIENTED_EDGE('',*,*,#353,.T.);
#495=ORIENTED_EDGE('',*,*,#303,.F.);
#496=ORIENTED_EDGE('',*,*,#355,.F.);
#497=ORIENTED_EDGE('',*,*,#356,.T.);
#498=ORIENTED_EDGE('',*,*,#355,.T.);
#499=ORIENTED_EDGE('',*,*,#302,.T.);
#500=ORIENTED_EDGE('',*,*,#320,.F.);
#501=ORIENTED_EDGE('',*,*,#327,.T.);
#502=ORIENTED_EDGE('',*,*,#326,.T.);
#503=ORIENTED_EDGE('',*,*,#279,.F.);
#504=ORIENTED_EDGE('',*,*,#338,.F.);
#505=ORIENTED_EDGE('',*,*,#318,.T.);
#506=ORIENTED_EDGE('',*,*,#316,.T.);
#507=ORIENTED_EDGE('',*,*,#284,.T.);
#508=ORIENTED_EDGE('',*,*,#350,.F.);
#509=ORIENTED_EDGE('',*,*,#356,.F.);
#510=ORIENTED_EDGE('',*,*,#349,.T.);
#511=ORIENTED_EDGE('',*,*,#352,.T.);
#512=ORIENTED_EDGE('',*,*,#354,.T.);
#513=PLANE('',#583);
#514=PLANE('',#584);
#515=PLANE('',#585);
#516=PLANE('',#586);
#517=PLANE('',#587);
#518=PLANE('',#588);
#519=PLANE('',#589);
#520=PLANE('',#590);
#521=PLANE('',#591);
#522=PLANE('',#592);
#523=PLANE('',#593);
#524=PLANE('',#594);
#525=PLANE('',#595);
#526=PLANE('',#596);
#527=PLANE('',#597);
#528=PLANE('',#598);
#529=PLANE('',#599);
#530=PLANE('',#600);
#531=PLANE('',#601);
#532=PLANE('',#602);
#533=PLANE('',#603);
#534=PLANE('',#604);
#535=PLANE('',#605);
#536=PLANE('',#606);
#537=PLANE('',#607);
#538=PLANE('',#608);
#539=PLANE('',#609);
#540=PLANE('',#610);
#541=ADVANCED_FACE('',(#15),#513,.T.);
#542=ADVANCED_FACE('',(#16),#514,.F.);
#543=ADVANCED_FACE('',(#17),#515,.T.);
#544=ADVANCED_FACE('',(#18),#516,.T.);
#545=ADVANCED_FACE('',(#19),#517,.F.);
#546=ADVANCED_FACE('',(#20),#518,.T.);
#547=ADVANCED_FACE('',(#21),#519,.T.);
#548=ADVANCED_FACE('',(#22),#520,.F.);
#549=ADVANCED_FACE('',(#23),#521,.T.);
#550=ADVANCED_FACE('',(#24),#522,.T.);
#551=ADVANCED_FACE('',(#25),#523,.T.);
#552=ADVANCED_FACE('',(#26),#524,.F.);
#553=ADVANCED_FACE('',(#27),#525,.T.);
#554=ADVANCED_FACE('',(#28),#526,.T.);
#555=ADVANCED_FACE('',(#29),#527,.T.);
#556=ADVANCED_FACE('',(#30),#528,.T.);
#557=ADVANCED_FACE('',(#31),#529,.T.);
#558=ADVANCED_FACE('',(#32),#530,.F.);
#559=ADVANCED_FACE('',(#33),#531,.T.);
#560=ADVANCED_FACE('',(#34),#532,.T.);
#561=ADVANCED_FACE('',(#35),#533,.T.);
#562=ADVANCED_FACE('',(#36),#534,.T.);
#563=ADVANCED_FACE('',(#37),#535,.F.);
#564=ADVANCED_FACE('',(#38),#536,.T.);
#565=ADVANCED_FACE('',(#39),#537,.T.);
#566=ADVANCED_FACE('',(#40),#538,.T.);
#567=ADVANCED_FACE('',(#41),#539,.T.);
#568=ADVANCED_FACE('',(#42),#540,.F.);
#569=CLOSED_SHELL('',(#541,#542,#543,#544,#545,#546,#547,#548,#549,#550,
#551,#552,#553,#554,#555,#556,#557,#558,#559,#560,#561,#562,#563,#564,#565,
#566,#567,#568));
#570=DERIVED_UNIT_ELEMENT(#572,1.);
#571=DERIVED_UNIT_ELEMENT(#911,-3.);
#572=(
MASS_UNIT()
NAMED_UNIT(*)
SI_UNIT(.KILO.,.GRAM.)
);
#573=DERIVED_UNIT((#570,#571));
#574=MEASURE_REPRESENTATION_ITEM('density measure',
POSITIVE_RATIO_MEASURE(7850.),#573);
#575=PROPERTY_DEFINITION_REPRESENTATION(#580,#577);
#576=PROPERTY_DEFINITION_REPRESENTATION(#581,#578);
#577=REPRESENTATION('material name',(#579),#908);
#578=REPRESENTATION('density',(#574),#908);
#579=DESCRIPTIVE_REPRESENTATION_ITEM('Steel','Steel');
#580=PROPERTY_DEFINITION('material property','material name',#918);
#581=PROPERTY_DEFINITION('material property','density of part',#918);
#582=AXIS2_PLACEMENT_3D('',#747,#611,#612);
#583=AXIS2_PLACEMENT_3D('',#748,#613,#614);
#584=AXIS2_PLACEMENT_3D('',#757,#619,#620);
#585=AXIS2_PLACEMENT_3D('',#802,#643,#644);
#586=AXIS2_PLACEMENT_3D('',#808,#648,#649);
#587=AXIS2_PLACEMENT_3D('',#812,#652,#653);
#588=AXIS2_PLACEMENT_3D('',#816,#656,#657);
#589=AXIS2_PLACEMENT_3D('',#822,#661,#662);
#590=AXIS2_PLACEMENT_3D('',#826,#665,#666);
#591=AXIS2_PLACEMENT_3D('',#830,#669,#670);
#592=AXIS2_PLACEMENT_3D('',#836,#674,#675);
#593=AXIS2_PLACEMENT_3D('',#840,#678,#679);
#594=AXIS2_PLACEMENT_3D('',#845,#683,#684);
#595=AXIS2_PLACEMENT_3D('',#847,#686,#687);
#596=AXIS2_PLACEMENT_3D('',#853,#691,#692);
#597=AXIS2_PLACEMENT_3D('',#857,#695,#696);
#598=AXIS2_PLACEMENT_3D('',#861,#699,#700);
#599=AXIS2_PLACEMENT_3D('',#865,#703,#704);
#600=AXIS2_PLACEMENT_3D('',#870,#708,#709);
#601=AXIS2_PLACEMENT_3D('',#872,#711,#712);
#602=AXIS2_PLACEMENT_3D('',#878,#716,#717);
#603=AXIS2_PLACEMENT_3D('',#882,#720,#721);
#604=AXIS2_PLACEMENT_3D('',#886,#724,#725);
#605=AXIS2_PLACEMENT_3D('',#888,#727,#728);
#606=AXIS2_PLACEMENT_3D('',#889,#729,#730);
#607=AXIS2_PLACEMENT_3D('',#895,#734,#735);
#608=AXIS2_PLACEMENT_3D('',#899,#738,#739);
#609=AXIS2_PLACEMENT_3D('',#903,#742,#743);
#610=AXIS2_PLACEMENT_3D('',#905,#745,#746);
#611=DIRECTION('axis',(0.,0.,1.));
#612=DIRECTION('refdir',(1.,0.,0.));
#613=DIRECTION('center_axis',(0.,1.,0.));
#614=DIRECTION('ref_axis',(0.,0.,1.));
#615=DIRECTION('',(0.,0.,-1.));
#616=DIRECTION('',(-1.,0.,0.));
#617=DIRECTION('',(0.,0.,1.));
#618=DIRECTION('',(1.,0.,0.));
#619=DIRECTION('center_axis',(0.,1.,0.));
#620=DIRECTION('ref_axis',(1.,0.,0.));
#621=DIRECTION('',(1.,0.,-3.84307970062554E-15));
#622=DIRECTION('',(0.,0.,-1.));
#623=DIRECTION('',(-1.,0.,0.));
#624=DIRECTION('',(5.55111512312577E-16,0.,1.));
#625=DIRECTION('',(1.,0.,0.));
#626=DIRECTION('',(0.,0.,-1.));
#627=DIRECTION('',(-1.,0.,0.));
#628=DIRECTION('',(0.,0.,-1.));
#629=DIRECTION('',(-1.,0.,0.));
#630=DIRECTION('',(0.,0.,1.));
#631=DIRECTION('',(1.,0.,-3.84307970062554E-15));
#632=DIRECTION('',(0.,0.,-1.));
#633=DIRECTION('',(-1.,0.,0.));
#634=DIRECTION('',(0.,0.,1.));
#635=DIRECTION('',(1.,0.,-3.84307970062554E-15));
#636=DIRECTION('',(0.,0.,-1.));
#637=DIRECTION('',(-1.,0.,0.));
#638=DIRECTION('',(5.55111512312577E-16,0.,1.));
#639=DIRECTION('',(1.,0.,-3.84307970062554E-15));
#640=DIRECTION('',(0.,0.,-1.));
#641=DIRECTION('',(-1.,0.,0.));
#642=DIRECTION('',(5.55111512312577E-16,0.,1.));
#643=DIRECTION('center_axis',(1.,0.,0.));
#644=DIRECTION('ref_axis',(0.,0.,-1.));
#645=DIRECTION('',(0.,0.,1.));
#646=DIRECTION('',(0.,1.,0.));
#647=DIRECTION('',(0.,1.,0.));
#648=DIRECTION('center_axis',(3.84307970062554E-15,0.,1.));
#649=DIRECTION('ref_axis',(1.,0.,-3.84307970062554E-15));
#650=DIRECTION('',(-1.,0.,3.84307970062554E-15));
#651=DIRECTION('',(0.,1.,0.));
#652=DIRECTION('center_axis',(0.,1.,0.));
#653=DIRECTION('ref_axis',(1.,0.,0.));
#654=DIRECTION('',(-1.,0.,0.));
#655=DIRECTION('',(0.,0.,1.));
#656=DIRECTION('center_axis',(-1.,0.,5.55111512312577E-16));
#657=DIRECTION('ref_axis',(5.55111512312577E-16,0.,1.));
#658=DIRECTION('',(-5.55111512312577E-16,0.,-1.));
#659=DIRECTION('',(0.,1.,0.));
#660=DIRECTION('',(0.,1.,0.));
#661=DIRECTION('center_axis',(0.,0.,-1.));
#662=DIRECTION('ref_axis',(-1.,0.,0.));
#663=DIRECTION('',(1.,0.,0.));
#664=DIRECTION('',(0.,1.,0.));
#665=DIRECTION('center_axis',(0.,1.,0.));
#666=DIRECTION('ref_axis',(1.,0.,0.));
#667=DIRECTION('',(1.,0.,0.));
#668=DIRECTION('',(0.,0.,-1.));
#669=DIRECTION('center_axis',(3.84307970062554E-15,0.,1.));
#670=DIRECTION('ref_axis',(1.,0.,-3.84307970062554E-15));
#671=DIRECTION('',(-1.,0.,3.84307970062554E-15));
#672=DIRECTION('',(0.,1.,0.));
#673=DIRECTION('',(0.,1.,0.));
#674=DIRECTION('center_axis',(-1.,0.,5.55111512312577E-16));
#675=DIRECTION('ref_axis',(5.55111512312577E-16,0.,1.));
#676=DIRECTION('',(-5.55111512312577E-16,0.,-1.));
#677=DIRECTION('',(0.,1.,0.));
#678=DIRECTION('center_axis',(0.,0.,-1.));
#679=DIRECTION('ref_axis',(-1.,0.,0.));
#680=DIRECTION('',(-1.,0.,0.));
#681=DIRECTION('',(0.,1.,0.));
#682=DIRECTION('',(0.,1.,0.));
#683=DIRECTION('center_axis',(0.,1.,0.));
#684=DIRECTION('ref_axis',(1.,0.,0.));
#685=DIRECTION('',(0.,0.,-1.));
#686=DIRECTION('center_axis',(0.,0.,-1.));
#687=DIRECTION('ref_axis',(-1.,0.,0.));
#688=DIRECTION('',(1.,0.,0.));
#689=DIRECTION('',(0.,1.,0.));
#690=DIRECTION('',(0.,1.,0.));
#691=DIRECTION('center_axis',(1.,0.,0.));
#692=DIRECTION('ref_axis',(0.,0.,-1.));
#693=DIRECTION('',(0.,0.,1.));
#694=DIRECTION('',(0.,1.,0.));
#695=DIRECTION('center_axis',(0.,0.,-1.));
#696=DIRECTION('ref_axis',(-1.,0.,0.));
#697=DIRECTION('',(1.,0.,0.));
#698=DIRECTION('',(0.,1.,0.));
#699=DIRECTION('center_axis',(1.,0.,0.));
#700=DIRECTION('ref_axis',(0.,0.,-1.));
#701=DIRECTION('',(0.,0.,1.));
#702=DIRECTION('',(0.,1.,0.));
#703=DIRECTION('center_axis',(0.,0.,1.));
#704=DIRECTION('ref_axis',(1.,0.,0.));
#705=DIRECTION('',(1.,0.,0.));
#706=DIRECTION('',(0.,1.,0.));
#707=DIRECTION('',(0.,1.,0.));
#708=DIRECTION('center_axis',(0.,1.,0.));
#709=DIRECTION('ref_axis',(1.,0.,0.));
#710=DIRECTION('',(0.,0.,1.));
#711=DIRECTION('center_axis',(0.,0.,-1.));
#712=DIRECTION('ref_axis',(-1.,0.,0.));
#713=DIRECTION('',(1.,0.,0.));
#714=DIRECTION('',(0.,1.,0.));
#715=DIRECTION('',(0.,1.,0.));
#716=DIRECTION('center_axis',(1.,0.,0.));
#717=DIRECTION('ref_axis',(0.,0.,-1.));
#718=DIRECTION('',(0.,0.,1.));
#719=DIRECTION('',(0.,1.,0.));
#720=DIRECTION('center_axis',(3.84307970062554E-15,0.,1.));
#721=DIRECTION('ref_axis',(1.,0.,-3.84307970062554E-15));
#722=DIRECTION('',(-1.,0.,3.84307970062554E-15));
#723=DIRECTION('',(0.,1.,0.));
#724=DIRECTION('center_axis',(-1.,0.,0.));
#725=DIRECTION('ref_axis',(0.,0.,1.));
#726=DIRECTION('',(0.,0.,1.));
#727=DIRECTION('center_axis',(0.,1.,0.));
#728=DIRECTION('ref_axis',(1.,0.,0.));
#729=DIRECTION('center_axis',(3.84307970062554E-15,0.,1.));
#730=DIRECTION('ref_axis',(1.,0.,-3.84307970062554E-15));
#731=DIRECTION('',(-1.,0.,3.84307970062554E-15));
#732=DIRECTION('',(0.,1.,0.));
#733=DIRECTION('',(0.,1.,0.));
#734=DIRECTION('center_axis',(-1.,0.,5.55111512312577E-16));
#735=DIRECTION('ref_axis',(5.55111512312577E-16,0.,1.));
#736=DIRECTION('',(-5.55111512312577E-16,0.,-1.));
#737=DIRECTION('',(0.,1.,0.));
#738=DIRECTION('center_axis',(0.,0.,-1.));
#739=DIRECTION('ref_axis',(-1.,0.,0.));
#740=DIRECTION('',(1.,0.,0.));
#741=DIRECTION('',(0.,1.,0.));
#742=DIRECTION('center_axis',(1.,0.,0.));
#743=DIRECTION('ref_axis',(0.,0.,-1.));
#744=DIRECTION('',(0.,0.,-1.));
#745=DIRECTION('center_axis',(0.,1.,0.));
#746=DIRECTION('ref_axis',(1.,0.,0.));
#747=CARTESIAN_POINT('',(0.,0.,0.));
#748=CARTESIAN_POINT('Origin',(0.,0.78,0.));
#749=CARTESIAN_POINT('',(1.,0.78,1.));
#750=CARTESIAN_POINT('',(1.,0.78,-1.));
#751=CARTESIAN_POINT('',(1.,0.78,1.));
#752=CARTESIAN_POINT('',(-1.,0.78,-1.));
#753=CARTESIAN_POINT('',(1.,0.78,-1.));
#754=CARTESIAN_POINT('',(-1.,0.78,1.));
#755=CARTESIAN_POINT('',(-1.,0.78,-1.));
#756=CARTESIAN_POINT('',(-1.,0.78,1.));
#757=CARTESIAN_POINT('Origin',(0.,0.1,0.));
#758=CARTESIAN_POINT('',(0.35,0.1,0.250000000000001));
#759=CARTESIAN_POINT('',(1.,0.1,0.249999999999998));
#760=CARTESIAN_POINT('',(0.999999999999999,0.1,0.249999999999998));
#761=CARTESIAN_POINT('',(1.,0.1,0.5));
#762=CARTESIAN_POINT('',(1.,0.1,1.));
#763=CARTESIAN_POINT('',(0.349999999999999,0.1,0.5));
#764=CARTESIAN_POINT('',(0.349999999999999,0.1,0.5));
#765=CARTESIAN_POINT('',(0.349999999999999,0.1,1.));
#766=CARTESIAN_POINT('',(0.35,0.1,1.));
#767=CARTESIAN_POINT('',(-0.350000000000001,0.1,1.));
#768=CARTESIAN_POINT('',(-1.,0.1,1.));
#769=CARTESIAN_POINT('',(-0.350000000000001,0.1,0.6));
#770=CARTESIAN_POINT('',(-0.350000000000001,0.1,0.6));
#771=CARTESIAN_POINT('',(-0.450000000000001,0.1,0.6));
#772=CARTESIAN_POINT('',(-0.450000000000001,0.1,0.6));
#773=CARTESIAN_POINT('',(-0.450000000000001,0.1,0.5));
#774=CARTESIAN_POINT('',(-0.450000000000001,0.1,0.5));
#775=CARTESIAN_POINT('',(-1.,0.1,0.5));
#776=CARTESIAN_POINT('',(-1.,0.1,0.5));
#777=CARTESIAN_POINT('',(-1.,0.1,0.250000000000001));
#778=CARTESIAN_POINT('',(-1.,0.1,-1.));
#779=CARTESIAN_POINT('',(-0.350000000000001,0.1,0.249999999999998));
#780=CARTESIAN_POINT('',(-0.350000000000001,0.1,0.249999999999998));
#781=CARTESIAN_POINT('',(-0.350000000000001,0.1,-0.25));
#782=CARTESIAN_POINT('',(-0.350000000000001,0.1,-0.25));
#783=CARTESIAN_POINT('',(-1.,0.1,-0.25));
#784=CARTESIAN_POINT('',(-1.,0.1,-0.25));
#785=CARTESIAN_POINT('',(-1.,0.1,-0.499999999999999));
#786=CARTESIAN_POINT('',(-1.,0.1,-1.));
#787=CARTESIAN_POINT('',(-0.350000000000001,0.1,-0.500000000000002));
#788=CARTESIAN_POINT('',(-0.350000000000001,0.1,-0.500000000000002));
#789=CARTESIAN_POINT('',(-0.350000000000001,0.1,-1.));
#790=CARTESIAN_POINT('',(-0.350000000000001,0.1,-1.));
#791=CARTESIAN_POINT('',(0.349999999999999,0.1,-1.));
#792=CARTESIAN_POINT('',(1.,0.1,-1.));
#793=CARTESIAN_POINT('',(0.35,0.1,-0.499999999999999));
#794=CARTESIAN_POINT('',(0.35,0.1,-0.499999999999999));
#795=CARTESIAN_POINT('',(1.,0.1,-0.500000000000002));
#796=CARTESIAN_POINT('',(0.999999999999999,0.1,-0.500000000000002));
#797=CARTESIAN_POINT('',(1.,0.1,-0.25));
#798=CARTESIAN_POINT('',(1.,0.1,1.));
#799=CARTESIAN_POINT('',(0.349999999999999,0.1,-0.25));
#800=CARTESIAN_POINT('',(0.349999999999999,0.1,-0.25));
#801=CARTESIAN_POINT('',(0.35,0.1,0.250000000000001));
#802=CARTESIAN_POINT('Origin',(-0.350000000000001,0.,-0.500000000000002));
#803=CARTESIAN_POINT('',(-0.350000000000001,0.,-1.));
#804=CARTESIAN_POINT('',(-0.350000000000001,0.,-0.500000000000002));
#805=CARTESIAN_POINT('',(-0.350000000000001,0.,-1.));
#806=CARTESIAN_POINT('',(-0.350000000000001,0.,-1.));
#807=CARTESIAN_POINT('',(-0.350000000000001,0.,-0.500000000000002));
#808=CARTESIAN_POINT('Origin',(-1.,0.,-0.499999999999999));
#809=CARTESIAN_POINT('',(-1.,0.,-0.499999999999999));
#810=CARTESIAN_POINT('',(-0.350000000000001,0.,-0.500000000000002));
#811=CARTESIAN_POINT('',(-1.,0.,-0.499999999999999));
#812=CARTESIAN_POINT('Origin',(-0.675000000000001,0.,-0.75));
#813=CARTESIAN_POINT('',(-1.,0.,-1.));
#814=CARTESIAN_POINT('',(1.,0.,-1.));
#815=CARTESIAN_POINT('',(-1.,0.,-1.));
#816=CARTESIAN_POINT('Origin',(0.349999999999999,0.,0.5));
#817=CARTESIAN_POINT('',(0.349999999999999,0.,1.));
#818=CARTESIAN_POINT('',(0.349999999999999,0.,0.5));
#819=CARTESIAN_POINT('',(0.35,0.,1.));
#820=CARTESIAN_POINT('',(0.349999999999999,0.,1.));
#821=CARTESIAN_POINT('',(0.349999999999999,0.,0.5));
#822=CARTESIAN_POINT('Origin',(0.999999999999999,0.,0.5));
#823=CARTESIAN_POINT('',(1.,0.,0.5));
#824=CARTESIAN_POINT('',(0.349999999999999,0.,0.5));
#825=CARTESIAN_POINT('',(1.,0.,0.5));
#826=CARTESIAN_POINT('Origin',(0.675,0.,0.750000000000001));
#827=CARTESIAN_POINT('',(1.,0.,1.));
#828=CARTESIAN_POINT('',(-1.,0.,1.));
#829=CARTESIAN_POINT('',(1.,0.,1.));
#830=CARTESIAN_POINT('Origin',(0.35,0.,-0.499999999999999));
#831=CARTESIAN_POINT('',(1.,0.,-0.500000000000002));
#832=CARTESIAN_POINT('',(0.35,0.,-0.499999999999999));
#833=CARTESIAN_POINT('',(0.999999999999999,0.,-0.500000000000002));
#834=CARTESIAN_POINT('',(1.,0.,-0.500000000000002));
#835=CARTESIAN_POINT('',(0.35,0.,-0.499999999999999));
#836=CARTESIAN_POINT('Origin',(0.349999999999999,0.,-1.));
#837=CARTESIAN_POINT('',(0.349999999999999,0.,-1.));
#838=CARTESIAN_POINT('',(0.35,0.,-0.499999999999999));
#839=CARTESIAN_POINT('',(0.349999999999999,0.,-1.));
#840=CARTESIAN_POINT('Origin',(1.,0.,-1.));
#841=CARTESIAN_POINT('',(1.,0.,-1.));
#842=CARTESIAN_POINT('',(1.,0.,-1.));
#843=CARTESIAN_POINT('',(-1.,0.,-1.));
#844=CARTESIAN_POINT('',(1.,0.,-1.));
#845=CARTESIAN_POINT('Origin',(0.675,0.,-0.75));
#846=CARTESIAN_POINT('',(1.,0.,1.));
#847=CARTESIAN_POINT('Origin',(-0.450000000000001,0.,0.5));
#848=CARTESIAN_POINT('',(-1.,0.,0.5));
#849=CARTESIAN_POINT('',(-0.450000000000001,0.,0.5));
#850=CARTESIAN_POINT('',(-1.,0.,0.5));
#851=CARTESIAN_POINT('',(-1.,0.,0.5));
#852=CARTESIAN_POINT('',(-0.450000000000001,0.,0.5));
#853=CARTESIAN_POINT('Origin',(-0.450000000000001,0.,0.6));
#854=CARTESIAN_POINT('',(-0.450000000000001,0.,0.6));
#855=CARTESIAN_POINT('',(-0.450000000000001,0.,0.5));
#856=CARTESIAN_POINT('',(-0.450000000000001,0.,0.6));
#857=CARTESIAN_POINT('Origin',(-0.350000000000001,0.,0.6));
#858=CARTESIAN_POINT('',(-0.350000000000001,0.,0.6));
#859=CARTESIAN_POINT('',(-0.450000000000001,0.,0.6));
#860=CARTESIAN_POINT('',(-0.350000000000001,0.,0.6));
#861=CARTESIAN_POINT('Origin',(-0.350000000000001,0.,0.999999999999999));
#862=CARTESIAN_POINT('',(-0.350000000000001,0.,1.));
#863=CARTESIAN_POINT('',(-0.350000000000001,0.,0.6));
#864=CARTESIAN_POINT('',(-0.350000000000001,0.,1.));
#865=CARTESIAN_POINT('Origin',(-1.,0.,1.));
#866=CARTESIAN_POINT('',(-1.,0.,1.));
#867=CARTESIAN_POINT('',(-1.,0.,1.));
#868=CARTESIAN_POINT('',(1.,0.,1.));
#869=CARTESIAN_POINT('',(-1.,0.,1.));
#870=CARTESIAN_POINT('Origin',(-0.675000000000001,0.,0.75));
#871=CARTESIAN_POINT('',(-1.,0.,-1.));
#872=CARTESIAN_POINT('Origin',(-0.350000000000001,0.,-0.25));
#873=CARTESIAN_POINT('',(-1.,0.,-0.25));
#874=CARTESIAN_POINT('',(-0.350000000000001,0.,-0.25));
#875=CARTESIAN_POINT('',(-1.,0.,-0.25));
#876=CARTESIAN_POINT('',(-1.,0.,-0.25));
#877=CARTESIAN_POINT('',(-0.350000000000001,0.,-0.25));
#878=CARTESIAN_POINT('Origin',(-0.350000000000001,0.,0.249999999999998));
#879=CARTESIAN_POINT('',(-0.350000000000001,0.,0.249999999999998));
#880=CARTESIAN_POINT('',(-0.350000000000001,0.,-0.25));
#881=CARTESIAN_POINT('',(-0.350000000000001,0.,0.249999999999998));
#882=CARTESIAN_POINT('Origin',(-1.,0.,0.250000000000001));
#883=CARTESIAN_POINT('',(-1.,0.,0.250000000000001));
#884=CARTESIAN_POINT('',(-0.350000000000001,0.,0.249999999999998));
#885=CARTESIAN_POINT('',(-1.,0.,0.250000000000001));
#886=CARTESIAN_POINT('Origin',(-1.,0.,-0.25));
#887=CARTESIAN_POINT('',(-1.,0.,-1.));
#888=CARTESIAN_POINT('Origin',(-0.675000000000001,0.,6.24500451351651E-16));
#889=CARTESIAN_POINT('Origin',(0.35,0.,0.250000000000001));
#890=CARTESIAN_POINT('',(1.,0.,0.249999999999998));
#891=CARTESIAN_POINT('',(0.35,0.,0.250000000000001));
#892=CARTESIAN_POINT('',(0.999999999999999,0.,0.249999999999998));
#893=CARTESIAN_POINT('',(1.,0.,0.249999999999998));
#894=CARTESIAN_POINT('',(0.35,0.,0.250000000000001));
#895=CARTESIAN_POINT('Origin',(0.349999999999999,0.,-0.25));
#896=CARTESIAN_POINT('',(0.349999999999999,0.,-0.25));
#897=CARTESIAN_POINT('',(0.35,0.,0.250000000000001));
#898=CARTESIAN_POINT('',(0.349999999999999,0.,-0.25));
#899=CARTESIAN_POINT('Origin',(0.999999999999999,0.,-0.25));
#900=CARTESIAN_POINT('',(1.,0.,-0.25));
#901=CARTESIAN_POINT('',(0.349999999999999,0.,-0.25));
#902=CARTESIAN_POINT('',(1.,0.,-0.25));
#903=CARTESIAN_POINT('Origin',(1.,0.,0.249999999999998));
#904=CARTESIAN_POINT('',(1.,0.,1.));
#905=CARTESIAN_POINT('Origin',(0.675,0.,5.55111512312578E-16));
#906=UNCERTAINTY_MEASURE_WITH_UNIT(LENGTH_MEASURE(0.01),#910,
'DISTANCE_ACCURACY_VALUE',
'Maximum model space distance between geometric entities at asserted c
onnectivities');
#907=UNCERTAINTY_MEASURE_WITH_UNIT(LENGTH_MEASURE(0.01),#910,
'DISTANCE_ACCURACY_VALUE',
'Maximum model space distance between geometric entities at asserted c
onnectivities');
#908=(
GEOMETRIC_REPRESENTATION_CONTEXT(3)
GLOBAL_UNCERTAINTY_ASSIGNED_CONTEXT((#906))
GLOBAL_UNIT_ASSIGNED_CONTEXT((#910,#912,#913))
REPRESENTATION_CONTEXT('','3D')
);
#909=(
GEOMETRIC_REPRESENTATION_CONTEXT(3)
GLOBAL_UNCERTAINTY_ASSIGNED_CONTEXT((#907))
GLOBAL_UNIT_ASSIGNED_CONTEXT((#910,#912,#913))
REPRESENTATION_CONTEXT('','3D')
);
#910=(
LENGTH_UNIT()
NAMED_UNIT(*)
SI_UNIT(.MILLI.,.METRE.)
);
#911=(
LENGTH_UNIT()
NAMED_UNIT(*)
SI_UNIT($,.METRE.)
);
#912=(
NAMED_UNIT(*)
PLANE_ANGLE_UNIT()
SI_UNIT($,.RADIAN.)
);
#913=(
NAMED_UNIT(*)
SI_UNIT($,.STERADIAN.)
SOLID_ANGLE_UNIT()
);
#914=SHAPE_DEFINITION_REPRESENTATION(#915,#916);
#915=PRODUCT_DEFINITION_SHAPE('',$,#918);
#916=SHAPE_REPRESENTATION('',(#582),#908);
#917=PRODUCT_DEFINITION_CONTEXT('part definition',#922,'design');
#918=PRODUCT_DEFINITION('(Unsaved)','(Unsaved)',#919,#917);
#919=PRODUCT_DEFINITION_FORMATION('',$,#924);
#920=PRODUCT_RELATED_PRODUCT_CATEGORY('(Unsaved)','(Unsaved)',(#924));
#921=APPLICATION_PROTOCOL_DEFINITION('international standard',
'automotive_design',2009,#922);
#922=APPLICATION_CONTEXT(
'Core Data for Automotive Mechanical Design Process');
#923=PRODUCT_CONTEXT('part definition',#922,'mechanical');
#924=PRODUCT('(Unsaved)','(Unsaved)',$,(#923));
#925=PRESENTATION_STYLE_ASSIGNMENT((#926));
#926=SURFACE_STYLE_USAGE(.BOTH.,#927);
#927=SURFACE_SIDE_STYLE('',(#928));
#928=SURFACE_STYLE_FILL_AREA(#929);
#929=FILL_AREA_STYLE('Steel - Satin',(#930));
#930=FILL_AREA_STYLE_COLOUR('Steel - Satin',#931);
#931=COLOUR_RGB('Steel - Satin',0.627450980392157,0.627450980392157,0.627450980392157);
ENDSEC;
END-ISO-10303-21;
