ISO-10303-21;
HEADER;
/* Generated by software containing ST-Developer
 * from STEP Tools, Inc. (www.steptools.com) 
 */

FILE_DESCRIPTION(
/* description */ (''),
/* implementation_level */ '2;1');

FILE_NAME(
/* name */ 'S70-138305045.stp.ipt.stp',
/* time_stamp */ '2023-05-03T21:57:35+02:00',
/* author */ ('mperren'),
/* organization */ (''),
/* preprocessor_version */ 'ST-DEVELOPER v19.2',
/* originating_system */ 'Autodesk Inventor 2024',
/* authorisation */ '');

FILE_SCHEMA (('AUTOMOTIVE_DESIGN { 1 0 10303 214 3 1 1 }'));
ENDSEC;

DATA;
#10=MECHANICAL_DESIGN_GEOMETRIC_PRESENTATION_REPRESENTATION('',(#13),#332);
#11=SHAPE_REPRESENTATION_RELATIONSHIP('SRR','None',#339,#12);
#12=ADVANCED_BREP_SHAPE_REPRESENTATION('',(#14),#331);
#13=STYLED_ITEM('',(#349),#14);
#14=MANIFOLD_SOLID_BREP('Solide1',#183);
#15=CYLINDRICAL_SURFACE('',#211,0.2);
#16=CYLINDRICAL_SURFACE('',#218,0.2);
#17=CYLINDRICAL_SURFACE('',#220,0.2);
#18=CYLINDRICAL_SURFACE('',#222,0.2);
#19=FACE_OUTER_BOUND('',#29,.T.);
#20=FACE_OUTER_BOUND('',#30,.T.);
#21=FACE_OUTER_BOUND('',#31,.T.);
#22=FACE_OUTER_BOUND('',#32,.T.);
#23=FACE_OUTER_BOUND('',#33,.T.);
#24=FACE_OUTER_BOUND('',#34,.T.);
#25=FACE_OUTER_BOUND('',#35,.T.);
#26=FACE_OUTER_BOUND('',#36,.T.);
#27=FACE_OUTER_BOUND('',#37,.T.);
#28=FACE_OUTER_BOUND('',#38,.T.);
#29=EDGE_LOOP('',(#119,#120,#121,#122,#123,#124,#125,#126));
#30=EDGE_LOOP('',(#127,#128,#129,#130));
#31=EDGE_LOOP('',(#131,#132,#133,#134,#135,#136,#137,#138));
#32=EDGE_LOOP('',(#139,#140,#141,#142));
#33=EDGE_LOOP('',(#143,#144,#145,#146));
#34=EDGE_LOOP('',(#147,#148,#149,#150));
#35=EDGE_LOOP('',(#151,#152,#153,#154));
#36=EDGE_LOOP('',(#155,#156,#157,#158));
#37=EDGE_LOOP('',(#159,#160,#161,#162));
#38=EDGE_LOOP('',(#163,#164,#165,#166));
#39=LINE('',#284,#55);
#40=LINE('',#288,#56);
#41=LINE('',#292,#57);
#42=LINE('',#295,#58);
#43=LINE('',#300,#59);
#44=LINE('',#301,#60);
#45=LINE('',#304,#61);
#46=LINE('',#308,#62);
#47=LINE('',#312,#63);
#48=LINE('',#315,#64);
#49=LINE('',#317,#65);
#50=LINE('',#319,#66);
#51=LINE('',#321,#67);
#52=LINE('',#323,#68);
#53=LINE('',#325,#69);
#54=LINE('',#327,#70);
#55=VECTOR('',#230,2.6);
#56=VECTOR('',#233,3.4);
#57=VECTOR('',#236,2.6);
#58=VECTOR('',#239,3.4);
#59=VECTOR('',#244,0.5);
#60=VECTOR('',#245,0.5);
#61=VECTOR('',#248,3.4);
#62=VECTOR('',#251,2.6);
#63=VECTOR('',#254,3.4);
#64=VECTOR('',#257,2.6);
#65=VECTOR('',#260,0.5);
#66=VECTOR('',#263,0.5);
#67=VECTOR('',#266,0.5);
#68=VECTOR('',#269,0.5);
#69=VECTOR('',#272,0.5);
#70=VECTOR('',#275,0.5);
#71=CIRCLE('',#207,0.2);
#72=CIRCLE('',#208,0.2);
#73=CIRCLE('',#209,0.2);
#74=CIRCLE('',#210,0.2);
#75=CIRCLE('',#212,0.2);
#76=CIRCLE('',#214,0.2);
#77=CIRCLE('',#215,0.2);
#78=CIRCLE('',#216,0.2);
#79=VERTEX_POINT('',#280);
#80=VERTEX_POINT('',#281);
#81=VERTEX_POINT('',#283);
#82=VERTEX_POINT('',#285);
#83=VERTEX_POINT('',#287);
#84=VERTEX_POINT('',#289);
#85=VERTEX_POINT('',#291);
#86=VERTEX_POINT('',#293);
#87=VERTEX_POINT('',#297);
#88=VERTEX_POINT('',#298);
#89=VERTEX_POINT('',#303);
#90=VERTEX_POINT('',#305);
#91=VERTEX_POINT('',#307);
#92=VERTEX_POINT('',#309);
#93=VERTEX_POINT('',#311);
#94=VERTEX_POINT('',#313);
#95=EDGE_CURVE('',#79,#80,#71,.T.);
#96=EDGE_CURVE('',#80,#81,#39,.T.);
#97=EDGE_CURVE('',#81,#82,#72,.T.);
#98=EDGE_CURVE('',#82,#83,#40,.T.);
#99=EDGE_CURVE('',#83,#84,#73,.T.);
#100=EDGE_CURVE('',#84,#85,#41,.T.);
#101=EDGE_CURVE('',#85,#86,#74,.T.);
#102=EDGE_CURVE('',#86,#79,#42,.T.);
#103=EDGE_CURVE('',#87,#88,#75,.T.);
#104=EDGE_CURVE('',#80,#87,#43,.T.);
#105=EDGE_CURVE('',#79,#88,#44,.T.);
#106=EDGE_CURVE('',#89,#88,#45,.T.);
#107=EDGE_CURVE('',#89,#90,#76,.T.);
#108=EDGE_CURVE('',#91,#90,#46,.T.);
#109=EDGE_CURVE('',#91,#92,#77,.T.);
#110=EDGE_CURVE('',#93,#92,#47,.T.);
#111=EDGE_CURVE('',#93,#94,#78,.T.);
#112=EDGE_CURVE('',#87,#94,#48,.T.);
#113=EDGE_CURVE('',#81,#94,#49,.T.);
#114=EDGE_CURVE('',#82,#93,#50,.T.);
#115=EDGE_CURVE('',#83,#92,#51,.T.);
#116=EDGE_CURVE('',#84,#91,#52,.T.);
#117=EDGE_CURVE('',#85,#90,#53,.T.);
#118=EDGE_CURVE('',#86,#89,#54,.T.);
#119=ORIENTED_EDGE('',*,*,#95,.T.);
#120=ORIENTED_EDGE('',*,*,#96,.T.);
#121=ORIENTED_EDGE('',*,*,#97,.T.);
#122=ORIENTED_EDGE('',*,*,#98,.T.);
#123=ORIENTED_EDGE('',*,*,#99,.T.);
#124=ORIENTED_EDGE('',*,*,#100,.T.);
#125=ORIENTED_EDGE('',*,*,#101,.T.);
#126=ORIENTED_EDGE('',*,*,#102,.T.);
#127=ORIENTED_EDGE('',*,*,#103,.F.);
#128=ORIENTED_EDGE('',*,*,#104,.F.);
#129=ORIENTED_EDGE('',*,*,#95,.F.);
#130=ORIENTED_EDGE('',*,*,#105,.T.);
#131=ORIENTED_EDGE('',*,*,#103,.T.);
#132=ORIENTED_EDGE('',*,*,#106,.F.);
#133=ORIENTED_EDGE('',*,*,#107,.T.);
#134=ORIENTED_EDGE('',*,*,#108,.F.);
#135=ORIENTED_EDGE('',*,*,#109,.T.);
#136=ORIENTED_EDGE('',*,*,#110,.F.);
#137=ORIENTED_EDGE('',*,*,#111,.T.);
#138=ORIENTED_EDGE('',*,*,#112,.F.);
#139=ORIENTED_EDGE('',*,*,#104,.T.);
#140=ORIENTED_EDGE('',*,*,#112,.T.);
#141=ORIENTED_EDGE('',*,*,#113,.F.);
#142=ORIENTED_EDGE('',*,*,#96,.F.);
#143=ORIENTED_EDGE('',*,*,#111,.F.);
#144=ORIENTED_EDGE('',*,*,#114,.F.);
#145=ORIENTED_EDGE('',*,*,#97,.F.);
#146=ORIENTED_EDGE('',*,*,#113,.T.);
#147=ORIENTED_EDGE('',*,*,#114,.T.);
#148=ORIENTED_EDGE('',*,*,#110,.T.);
#149=ORIENTED_EDGE('',*,*,#115,.F.);
#150=ORIENTED_EDGE('',*,*,#98,.F.);
#151=ORIENTED_EDGE('',*,*,#109,.F.);
#152=ORIENTED_EDGE('',*,*,#116,.F.);
#153=ORIENTED_EDGE('',*,*,#99,.F.);
#154=ORIENTED_EDGE('',*,*,#115,.T.);
#155=ORIENTED_EDGE('',*,*,#116,.T.);
#156=ORIENTED_EDGE('',*,*,#108,.T.);
#157=ORIENTED_EDGE('',*,*,#117,.F.);
#158=ORIENTED_EDGE('',*,*,#100,.F.);
#159=ORIENTED_EDGE('',*,*,#107,.F.);
#160=ORIENTED_EDGE('',*,*,#118,.F.);
#161=ORIENTED_EDGE('',*,*,#101,.F.);
#162=ORIENTED_EDGE('',*,*,#117,.T.);
#163=ORIENTED_EDGE('',*,*,#105,.F.);
#164=ORIENTED_EDGE('',*,*,#102,.F.);
#165=ORIENTED_EDGE('',*,*,#118,.T.);
#166=ORIENTED_EDGE('',*,*,#106,.T.);
#167=PLANE('',#206);
#168=PLANE('',#213);
#169=PLANE('',#217);
#170=PLANE('',#219);
#171=PLANE('',#221);
#172=PLANE('',#223);
#173=ADVANCED_FACE('',(#19),#167,.T.);
#174=ADVANCED_FACE('',(#20),#15,.T.);
#175=ADVANCED_FACE('',(#21),#168,.F.);
#176=ADVANCED_FACE('',(#22),#169,.T.);
#177=ADVANCED_FACE('',(#23),#16,.T.);
#178=ADVANCED_FACE('',(#24),#170,.T.);
#179=ADVANCED_FACE('',(#25),#17,.T.);
#180=ADVANCED_FACE('',(#26),#171,.T.);
#181=ADVANCED_FACE('',(#27),#18,.T.);
#182=ADVANCED_FACE('',(#28),#172,.T.);
#183=CLOSED_SHELL('',(#173,#174,#175,#176,#177,#178,#179,#180,#181,#182));
#184=DERIVED_UNIT_ELEMENT(#187,1.);
#185=DERIVED_UNIT_ELEMENT(#334,-3.);
#186=DIMENSIONAL_EXPONENTS(0.,1.,0.,0.,0.,0.,0.);
#187=(
CONVERSION_BASED_UNIT('gram',#189)
MASS_UNIT()
NAMED_UNIT(#186)
);
#188=(
MASS_UNIT()
NAMED_UNIT(*)
SI_UNIT(.KILO.,.GRAM.)
);
#189=MASS_MEASURE_WITH_UNIT(MASS_MEASURE(0.001),#188);
#190=DERIVED_UNIT((#184,#185));
#191=MEASURE_REPRESENTATION_ITEM('density measure',
POSITIVE_RATIO_MEASURE(1.),#190);
#192=PROPERTY_DEFINITION_REPRESENTATION(#197,#194);
#193=PROPERTY_DEFINITION_REPRESENTATION(#198,#195);
#194=REPRESENTATION('material name',(#196),#331);
#195=REPRESENTATION('density',(#191),#331);
#196=DESCRIPTIVE_REPRESENTATION_ITEM('G\X\E9n\X\E9rique','G\X\E9n\X\E9
rique');
#197=PROPERTY_DEFINITION('material property','material name',#341);
#198=PROPERTY_DEFINITION('material property','density of part',#341);
#199=DATE_TIME_ROLE('creation_date');
#200=APPLIED_DATE_AND_TIME_ASSIGNMENT(#201,#199,(#341));
#201=DATE_AND_TIME(#202,#203);
#202=CALENDAR_DATE(2016,9,8);
#203=LOCAL_TIME(12,41,50.,#204);
#204=COORDINATED_UNIVERSAL_TIME_OFFSET(0,0,.BEHIND.);
#205=AXIS2_PLACEMENT_3D('',#278,#224,#225);
#206=AXIS2_PLACEMENT_3D('',#279,#226,#227);
#207=AXIS2_PLACEMENT_3D('',#282,#228,#229);
#208=AXIS2_PLACEMENT_3D('',#286,#231,#232);
#209=AXIS2_PLACEMENT_3D('',#290,#234,#235);
#210=AXIS2_PLACEMENT_3D('',#294,#237,#238);
#211=AXIS2_PLACEMENT_3D('',#296,#240,#241);
#212=AXIS2_PLACEMENT_3D('',#299,#242,#243);
#213=AXIS2_PLACEMENT_3D('',#302,#246,#247);
#214=AXIS2_PLACEMENT_3D('',#306,#249,#250);
#215=AXIS2_PLACEMENT_3D('',#310,#252,#253);
#216=AXIS2_PLACEMENT_3D('',#314,#255,#256);
#217=AXIS2_PLACEMENT_3D('',#316,#258,#259);
#218=AXIS2_PLACEMENT_3D('',#318,#261,#262);
#219=AXIS2_PLACEMENT_3D('',#320,#264,#265);
#220=AXIS2_PLACEMENT_3D('',#322,#267,#268);
#221=AXIS2_PLACEMENT_3D('',#324,#270,#271);
#222=AXIS2_PLACEMENT_3D('',#326,#273,#274);
#223=AXIS2_PLACEMENT_3D('',#328,#276,#277);
#224=DIRECTION('axis',(0.,0.,1.));
#225=DIRECTION('refdir',(1.,0.,0.));
#226=DIRECTION('center_axis',(0.,1.,0.));
#227=DIRECTION('ref_axis',(1.,0.,0.));
#228=DIRECTION('center_axis',(0.,1.,0.));
#229=DIRECTION('ref_axis',(0.,0.,-1.));
#230=DIRECTION('',(0.,0.,1.));
#231=DIRECTION('center_axis',(0.,1.,0.));
#232=DIRECTION('ref_axis',(-1.,0.,0.));
#233=DIRECTION('',(1.,0.,0.));
#234=DIRECTION('center_axis',(0.,1.,0.));
#235=DIRECTION('ref_axis',(0.,0.,1.));
#236=DIRECTION('',(0.,0.,-1.));
#237=DIRECTION('center_axis',(0.,1.,0.));
#238=DIRECTION('ref_axis',(1.,0.,0.));
#239=DIRECTION('',(-1.,0.,0.));
#240=DIRECTION('center_axis',(0.,-1.,0.));
#241=DIRECTION('ref_axis',(-1.,0.,0.));
#242=DIRECTION('center_axis',(0.,-1.,0.));
#243=DIRECTION('ref_axis',(-1.,0.,0.));
#244=DIRECTION('',(0.,-1.,0.));
#245=DIRECTION('',(0.,-1.,0.));
#246=DIRECTION('center_axis',(0.,1.,0.));
#247=DIRECTION('ref_axis',(1.,0.,0.));
#248=DIRECTION('',(-1.,0.,0.));
#249=DIRECTION('center_axis',(0.,-1.,0.));
#250=DIRECTION('ref_axis',(0.,0.,-1.));
#251=DIRECTION('',(0.,0.,-1.));
#252=DIRECTION('center_axis',(0.,-1.,0.));
#253=DIRECTION('ref_axis',(1.,0.,0.));
#254=DIRECTION('',(1.,0.,0.));
#255=DIRECTION('center_axis',(0.,-1.,0.));
#256=DIRECTION('ref_axis',(0.,0.,1.));
#257=DIRECTION('',(0.,0.,1.));
#258=DIRECTION('center_axis',(-1.,0.,0.));
#259=DIRECTION('ref_axis',(0.,0.,1.));
#260=DIRECTION('',(0.,-1.,0.));
#261=DIRECTION('center_axis',(0.,-1.,0.));
#262=DIRECTION('ref_axis',(0.,0.,1.));
#263=DIRECTION('',(0.,-1.,0.));
#264=DIRECTION('center_axis',(0.,0.,1.));
#265=DIRECTION('ref_axis',(1.,0.,0.));
#266=DIRECTION('',(0.,-1.,0.));
#267=DIRECTION('center_axis',(0.,-1.,0.));
#268=DIRECTION('ref_axis',(1.,0.,0.));
#269=DIRECTION('',(0.,-1.,0.));
#270=DIRECTION('center_axis',(1.,0.,0.));
#271=DIRECTION('ref_axis',(0.,0.,-1.));
#272=DIRECTION('',(0.,-1.,0.));
#273=DIRECTION('center_axis',(0.,-1.,0.));
#274=DIRECTION('ref_axis',(0.,0.,-1.));
#275=DIRECTION('',(0.,-1.,0.));
#276=DIRECTION('center_axis',(0.,0.,-1.));
#277=DIRECTION('ref_axis',(-1.,0.,0.));
#278=CARTESIAN_POINT('',(0.,0.,0.));
#279=CARTESIAN_POINT('Origin',(0.,0.,0.));
#280=CARTESIAN_POINT('',(-1.7,0.,-1.5));
#281=CARTESIAN_POINT('',(-1.9,0.,-1.3));
#282=CARTESIAN_POINT('Origin',(-1.7,0.,-1.3));
#283=CARTESIAN_POINT('',(-1.9,0.,1.3));
#284=CARTESIAN_POINT('',(-1.9,0.,-1.3));
#285=CARTESIAN_POINT('',(-1.7,0.,1.5));
#286=CARTESIAN_POINT('Origin',(-1.7,0.,1.3));
#287=CARTESIAN_POINT('',(1.7,0.,1.5));
#288=CARTESIAN_POINT('',(-1.7,0.,1.5));
#289=CARTESIAN_POINT('',(1.9,0.,1.3));
#290=CARTESIAN_POINT('Origin',(1.7,0.,1.3));
#291=CARTESIAN_POINT('',(1.9,0.,-1.3));
#292=CARTESIAN_POINT('',(1.9,0.,1.3));
#293=CARTESIAN_POINT('',(1.7,0.,-1.5));
#294=CARTESIAN_POINT('Origin',(1.7,0.,-1.3));
#295=CARTESIAN_POINT('',(1.7,0.,-1.5));
#296=CARTESIAN_POINT('Origin',(-1.7,0.6518,-1.3));
#297=CARTESIAN_POINT('',(-1.9,-0.5,-1.3));
#298=CARTESIAN_POINT('',(-1.7,-0.5,-1.5));
#299=CARTESIAN_POINT('Origin',(-1.7,-0.5,-1.3));
#300=CARTESIAN_POINT('',(-1.9,0.,-1.3));
#301=CARTESIAN_POINT('',(-1.7,0.,-1.5));
#302=CARTESIAN_POINT('Origin',(0.,-0.5,0.));
#303=CARTESIAN_POINT('',(1.7,-0.5,-1.5));
#304=CARTESIAN_POINT('',(1.7,-0.5,-1.5));
#305=CARTESIAN_POINT('',(1.9,-0.5,-1.3));
#306=CARTESIAN_POINT('Origin',(1.7,-0.5,-1.3));
#307=CARTESIAN_POINT('',(1.9,-0.5,1.3));
#308=CARTESIAN_POINT('',(1.9,-0.5,1.3));
#309=CARTESIAN_POINT('',(1.7,-0.5,1.5));
#310=CARTESIAN_POINT('Origin',(1.7,-0.5,1.3));
#311=CARTESIAN_POINT('',(-1.7,-0.5,1.5));
#312=CARTESIAN_POINT('',(-1.7,-0.5,1.5));
#313=CARTESIAN_POINT('',(-1.9,-0.5,1.3));
#314=CARTESIAN_POINT('Origin',(-1.7,-0.5,1.3));
#315=CARTESIAN_POINT('',(-1.9,-0.5,-1.3));
#316=CARTESIAN_POINT('Origin',(-1.9,0.,-1.5));
#317=CARTESIAN_POINT('',(-1.9,0.,1.3));
#318=CARTESIAN_POINT('Origin',(-1.7,0.6518,1.3));
#319=CARTESIAN_POINT('',(-1.7,0.,1.5));
#320=CARTESIAN_POINT('Origin',(-1.9,0.,1.5));
#321=CARTESIAN_POINT('',(1.7,0.,1.5));
#322=CARTESIAN_POINT('Origin',(1.7,0.6518,1.3));
#323=CARTESIAN_POINT('',(1.9,0.,1.3));
#324=CARTESIAN_POINT('Origin',(1.9,0.,1.5));
#325=CARTESIAN_POINT('',(1.9,0.,-1.3));
#326=CARTESIAN_POINT('Origin',(1.7,0.6518,-1.3));
#327=CARTESIAN_POINT('',(1.7,0.,-1.5));
#328=CARTESIAN_POINT('Origin',(1.9,0.,-1.5));
#329=UNCERTAINTY_MEASURE_WITH_UNIT(LENGTH_MEASURE(0.01),#333,
'DISTANCE_ACCURACY_VALUE',
'Maximum model space distance between geometric entities at asserted c
onnectivities');
#330=UNCERTAINTY_MEASURE_WITH_UNIT(LENGTH_MEASURE(0.01),#333,
'DISTANCE_ACCURACY_VALUE',
'Maximum model space distance between geometric entities at asserted c
onnectivities');
#331=(
GEOMETRIC_REPRESENTATION_CONTEXT(3)
GLOBAL_UNCERTAINTY_ASSIGNED_CONTEXT((#329))
GLOBAL_UNIT_ASSIGNED_CONTEXT((#333,#335,#336))
REPRESENTATION_CONTEXT('','3D')
);
#332=(
GEOMETRIC_REPRESENTATION_CONTEXT(3)
GLOBAL_UNCERTAINTY_ASSIGNED_CONTEXT((#330))
GLOBAL_UNIT_ASSIGNED_CONTEXT((#333,#335,#336))
REPRESENTATION_CONTEXT('','3D')
);
#333=(
LENGTH_UNIT()
NAMED_UNIT(*)
SI_UNIT(.MILLI.,.METRE.)
);
#334=(
LENGTH_UNIT()
NAMED_UNIT(*)
SI_UNIT(.CENTI.,.METRE.)
);
#335=(
NAMED_UNIT(*)
PLANE_ANGLE_UNIT()
SI_UNIT($,.RADIAN.)
);
#336=(
NAMED_UNIT(*)
SI_UNIT($,.STERADIAN.)
SOLID_ANGLE_UNIT()
);
#337=SHAPE_DEFINITION_REPRESENTATION(#338,#339);
#338=PRODUCT_DEFINITION_SHAPE('',$,#341);
#339=SHAPE_REPRESENTATION('',(#205),#331);
#340=PRODUCT_DEFINITION_CONTEXT('part definition',#345,'design');
#341=PRODUCT_DEFINITION('S70-138305045','S70-138305045.stp',#342,#340);
#342=PRODUCT_DEFINITION_FORMATION('12LAST_VERSION',$,#347);
#343=PRODUCT_RELATED_PRODUCT_CATEGORY('S70-138305045.stp',
'S70-138305045.stp',(#347));
#344=APPLICATION_PROTOCOL_DEFINITION('international standard',
'automotive_design',2009,#345);
#345=APPLICATION_CONTEXT(
'Core Data for Automotive Mechanical Design Process');
#346=PRODUCT_CONTEXT('part definition',#345,'mechanical');
#347=PRODUCT('S70-138305045','S70-138305045.stp',$,(#346));
#348=PRESENTATION_STYLE_ASSIGNMENT((#350));
#349=PRESENTATION_STYLE_ASSIGNMENT((#351));
#350=SURFACE_STYLE_USAGE(.BOTH.,#356);
#351=SURFACE_STYLE_USAGE(.BOTH.,#357);
#352=SURFACE_STYLE_RENDERING_WITH_PROPERTIES($,#364,(#354));
#353=SURFACE_STYLE_RENDERING_WITH_PROPERTIES($,#365,(#355));
#354=SURFACE_STYLE_TRANSPARENT(0.);
#355=SURFACE_STYLE_TRANSPARENT(0.);
#356=SURFACE_SIDE_STYLE('',(#358,#352));
#357=SURFACE_SIDE_STYLE('',(#359,#353));
#358=SURFACE_STYLE_FILL_AREA(#360);
#359=SURFACE_STYLE_FILL_AREA(#361);
#360=FILL_AREA_STYLE('',(#362));
#361=FILL_AREA_STYLE('',(#363));
#362=FILL_AREA_STYLE_COLOUR('',#364);
#363=FILL_AREA_STYLE_COLOUR('',#365);
#364=COLOUR_RGB('',0.749019607843137,0.749019607843137,0.749019607843137);
#365=COLOUR_RGB('',1.,0.807843137254902,0.458823529411765);
ENDSEC;
END-ISO-10303-21;
