ISO-10303-21;
HEADER;
/* Generated by software containing ST-Developer
 * from STEP Tools, Inc. (www.steptools.com) 
 */

FILE_DESCRIPTION(
/* description */ (''),
/* implementation_level */ '2;1');

FILE_NAME(
/* name */ 'XPGR.step',
/* time_stamp */ '2025-10-29T10:13:32+02:00',
/* author */ (''),
/* organization */ (''),
/* preprocessor_version */ 'ST-DEVELOPER v20.1',
/* originating_system */ 'Autodesk Translation Framework v14.17.0.0',
/* authorisation */ '');

FILE_SCHEMA (('AUTOMOTIVE_DESIGN { 1 0 10303 214 3 1 1 }'));
ENDSEC;

DATA;
#10=MECHANICAL_DESIGN_GEOMETRIC_PRESENTATION_REPRESENTATION('',(#13),#732);
#11=SHAPE_REPRESENTATION_RELATIONSHIP('SRR','None',#739,#12);
#12=ADVANCED_BREP_SHAPE_REPRESENTATION('',(#14),#731);
#13=STYLED_ITEM('',(#748),#14);
#14=MANIFOLD_SOLID_BREP('Body1',#448);
#15=FACE_BOUND('',#58,.T.);
#16=FACE_BOUND('',#59,.T.);
#17=FACE_BOUND('',#60,.T.);
#18=FACE_BOUND('',#66,.T.);
#19=FACE_BOUND('',#67,.T.);
#20=CIRCLE('',#464,0.1);
#21=CIRCLE('',#465,0.1);
#22=CIRCLE('',#468,0.65);
#23=CIRCLE('',#469,0.65);
#24=CYLINDRICAL_SURFACE('',#463,0.1);
#25=CYLINDRICAL_SURFACE('',#467,0.65);
#26=FACE_OUTER_BOUND('',#52,.T.);
#27=FACE_OUTER_BOUND('',#53,.T.);
#28=FACE_OUTER_BOUND('',#54,.T.);
#29=FACE_OUTER_BOUND('',#55,.T.);
#30=FACE_OUTER_BOUND('',#56,.T.);
#31=FACE_OUTER_BOUND('',#57,.T.);
#32=FACE_OUTER_BOUND('',#61,.T.);
#33=FACE_OUTER_BOUND('',#62,.T.);
#34=FACE_OUTER_BOUND('',#63,.T.);
#35=FACE_OUTER_BOUND('',#64,.T.);
#36=FACE_OUTER_BOUND('',#65,.T.);
#37=FACE_OUTER_BOUND('',#68,.T.);
#38=FACE_OUTER_BOUND('',#69,.T.);
#39=FACE_OUTER_BOUND('',#70,.T.);
#40=FACE_OUTER_BOUND('',#71,.T.);
#41=FACE_OUTER_BOUND('',#72,.T.);
#42=FACE_OUTER_BOUND('',#73,.T.);
#43=FACE_OUTER_BOUND('',#74,.T.);
#44=FACE_OUTER_BOUND('',#75,.T.);
#45=FACE_OUTER_BOUND('',#76,.T.);
#46=FACE_OUTER_BOUND('',#77,.T.);
#47=FACE_OUTER_BOUND('',#78,.T.);
#48=FACE_OUTER_BOUND('',#79,.T.);
#49=FACE_OUTER_BOUND('',#80,.T.);
#50=FACE_OUTER_BOUND('',#81,.T.);
#51=FACE_OUTER_BOUND('',#82,.T.);
#52=EDGE_LOOP('',(#284,#285,#286,#287));
#53=EDGE_LOOP('',(#288,#289,#290,#291));
#54=EDGE_LOOP('',(#292));
#55=EDGE_LOOP('',(#293,#294,#295,#296));
#56=EDGE_LOOP('',(#297));
#57=EDGE_LOOP('',(#298,#299,#300,#301));
#58=EDGE_LOOP('',(#302,#303,#304,#305));
#59=EDGE_LOOP('',(#306,#307,#308,#309));
#60=EDGE_LOOP('',(#310,#311,#312,#313,#314));
#61=EDGE_LOOP('',(#315,#316,#317,#318));
#62=EDGE_LOOP('',(#319,#320,#321,#322));
#63=EDGE_LOOP('',(#323,#324,#325,#326));
#64=EDGE_LOOP('',(#327,#328,#329,#330));
#65=EDGE_LOOP('',(#331,#332,#333,#334));
#66=EDGE_LOOP('',(#335));
#67=EDGE_LOOP('',(#336));
#68=EDGE_LOOP('',(#337,#338,#339,#340));
#69=EDGE_LOOP('',(#341,#342,#343,#344));
#70=EDGE_LOOP('',(#345,#346,#347,#348));
#71=EDGE_LOOP('',(#349,#350,#351,#352));
#72=EDGE_LOOP('',(#353,#354,#355,#356));
#73=EDGE_LOOP('',(#357,#358,#359,#360));
#74=EDGE_LOOP('',(#361,#362,#363,#364));
#75=EDGE_LOOP('',(#365,#366,#367,#368));
#76=EDGE_LOOP('',(#369,#370,#371,#372));
#77=EDGE_LOOP('',(#373,#374,#375,#376));
#78=EDGE_LOOP('',(#377,#378,#379,#380));
#79=EDGE_LOOP('',(#381,#382,#383,#384));
#80=EDGE_LOOP('',(#385,#386,#387,#388));
#81=EDGE_LOOP('',(#389,#390,#391,#392));
#82=EDGE_LOOP('',(#393,#394,#395,#396,#397));
#83=LINE('',#611,#136);
#84=LINE('',#613,#137);
#85=LINE('',#615,#138);
#86=LINE('',#616,#139);
#87=LINE('',#621,#140);
#88=LINE('',#628,#141);
#89=LINE('',#634,#142);
#90=LINE('',#636,#143);
#91=LINE('',#638,#144);
#92=LINE('',#639,#145);
#93=LINE('',#642,#146);
#94=LINE('',#644,#147);
#95=LINE('',#646,#148);
#96=LINE('',#647,#149);
#97=LINE('',#650,#150);
#98=LINE('',#652,#151);
#99=LINE('',#654,#152);
#100=LINE('',#655,#153);
#101=LINE('',#658,#154);
#102=LINE('',#660,#155);
#103=LINE('',#661,#156);
#104=LINE('',#662,#157);
#105=LINE('',#665,#158);
#106=LINE('',#667,#159);
#107=LINE('',#668,#160);
#108=LINE('',#671,#161);
#109=LINE('',#672,#162);
#110=LINE('',#675,#163);
#111=LINE('',#676,#164);
#112=LINE('',#678,#165);
#113=LINE('',#683,#166);
#114=LINE('',#684,#167);
#115=LINE('',#685,#168);
#116=LINE('',#688,#169);
#117=LINE('',#689,#170);
#118=LINE('',#692,#171);
#119=LINE('',#693,#172);
#120=LINE('',#695,#173);
#121=LINE('',#700,#174);
#122=LINE('',#701,#175);
#123=LINE('',#702,#176);
#124=LINE('',#705,#177);
#125=LINE('',#706,#178);
#126=LINE('',#709,#179);
#127=LINE('',#710,#180);
#128=LINE('',#712,#181);
#129=LINE('',#717,#182);
#130=LINE('',#718,#183);
#131=LINE('',#719,#184);
#132=LINE('',#721,#185);
#133=LINE('',#724,#186);
#134=LINE('',#725,#187);
#135=LINE('',#727,#188);
#136=VECTOR('',#496,10.);
#137=VECTOR('',#497,10.);
#138=VECTOR('',#498,10.);
#139=VECTOR('',#499,10.);
#140=VECTOR('',#504,0.1);
#141=VECTOR('',#513,0.65);
#142=VECTOR('',#520,10.);
#143=VECTOR('',#521,10.);
#144=VECTOR('',#522,10.);
#145=VECTOR('',#523,10.);
#146=VECTOR('',#524,10.);
#147=VECTOR('',#525,10.);
#148=VECTOR('',#526,10.);
#149=VECTOR('',#527,10.);
#150=VECTOR('',#528,10.);
#151=VECTOR('',#529,10.);
#152=VECTOR('',#530,10.);
#153=VECTOR('',#531,10.);
#154=VECTOR('',#532,10.);
#155=VECTOR('',#533,10.);
#156=VECTOR('',#534,10.);
#157=VECTOR('',#535,10.);
#158=VECTOR('',#538,10.);
#159=VECTOR('',#539,10.);
#160=VECTOR('',#540,10.);
#161=VECTOR('',#543,10.);
#162=VECTOR('',#544,10.);
#163=VECTOR('',#547,10.);
#164=VECTOR('',#548,10.);
#165=VECTOR('',#551,10.);
#166=VECTOR('',#556,10.);
#167=VECTOR('',#557,10.);
#168=VECTOR('',#558,10.);
#169=VECTOR('',#561,10.);
#170=VECTOR('',#562,10.);
#171=VECTOR('',#565,10.);
#172=VECTOR('',#566,10.);
#173=VECTOR('',#569,10.);
#174=VECTOR('',#574,10.);
#175=VECTOR('',#575,10.);
#176=VECTOR('',#576,10.);
#177=VECTOR('',#579,10.);
#178=VECTOR('',#580,10.);
#179=VECTOR('',#583,10.);
#180=VECTOR('',#584,10.);
#181=VECTOR('',#587,10.);
#182=VECTOR('',#592,10.);
#183=VECTOR('',#593,10.);
#184=VECTOR('',#594,10.);
#185=VECTOR('',#597,10.);
#186=VECTOR('',#600,10.);
#187=VECTOR('',#601,10.);
#188=VECTOR('',#604,10.);
#189=VERTEX_POINT('',#609);
#190=VERTEX_POINT('',#610);
#191=VERTEX_POINT('',#612);
#192=VERTEX_POINT('',#614);
#193=VERTEX_POINT('',#618);
#194=VERTEX_POINT('',#620);
#195=VERTEX_POINT('',#625);
#196=VERTEX_POINT('',#627);
#197=VERTEX_POINT('',#632);
#198=VERTEX_POINT('',#633);
#199=VERTEX_POINT('',#635);
#200=VERTEX_POINT('',#637);
#201=VERTEX_POINT('',#640);
#202=VERTEX_POINT('',#641);
#203=VERTEX_POINT('',#643);
#204=VERTEX_POINT('',#645);
#205=VERTEX_POINT('',#648);
#206=VERTEX_POINT('',#649);
#207=VERTEX_POINT('',#651);
#208=VERTEX_POINT('',#653);
#209=VERTEX_POINT('',#656);
#210=VERTEX_POINT('',#657);
#211=VERTEX_POINT('',#659);
#212=VERTEX_POINT('',#664);
#213=VERTEX_POINT('',#666);
#214=VERTEX_POINT('',#670);
#215=VERTEX_POINT('',#674);
#216=VERTEX_POINT('',#681);
#217=VERTEX_POINT('',#682);
#218=VERTEX_POINT('',#687);
#219=VERTEX_POINT('',#691);
#220=VERTEX_POINT('',#698);
#221=VERTEX_POINT('',#699);
#222=VERTEX_POINT('',#704);
#223=VERTEX_POINT('',#708);
#224=VERTEX_POINT('',#715);
#225=VERTEX_POINT('',#716);
#226=VERTEX_POINT('',#723);
#227=EDGE_CURVE('',#189,#190,#83,.T.);
#228=EDGE_CURVE('',#191,#189,#84,.T.);
#229=EDGE_CURVE('',#191,#192,#85,.T.);
#230=EDGE_CURVE('',#190,#192,#86,.T.);
#231=EDGE_CURVE('',#193,#193,#20,.T.);
#232=EDGE_CURVE('',#193,#194,#87,.T.);
#233=EDGE_CURVE('',#194,#194,#21,.T.);
#234=EDGE_CURVE('',#195,#195,#22,.T.);
#235=EDGE_CURVE('',#195,#196,#88,.T.);
#236=EDGE_CURVE('',#196,#196,#23,.T.);
#237=EDGE_CURVE('',#197,#198,#89,.T.);
#238=EDGE_CURVE('',#199,#197,#90,.T.);
#239=EDGE_CURVE('',#200,#199,#91,.T.);
#240=EDGE_CURVE('',#198,#200,#92,.T.);
#241=EDGE_CURVE('',#201,#202,#93,.T.);
#242=EDGE_CURVE('',#202,#203,#94,.T.);
#243=EDGE_CURVE('',#203,#204,#95,.T.);
#244=EDGE_CURVE('',#204,#201,#96,.T.);
#245=EDGE_CURVE('',#205,#206,#97,.T.);
#246=EDGE_CURVE('',#206,#207,#98,.T.);
#247=EDGE_CURVE('',#207,#208,#99,.T.);
#248=EDGE_CURVE('',#208,#205,#100,.T.);
#249=EDGE_CURVE('',#209,#210,#101,.T.);
#250=EDGE_CURVE('',#210,#211,#102,.T.);
#251=EDGE_CURVE('',#211,#192,#103,.T.);
#252=EDGE_CURVE('',#191,#209,#104,.T.);
#253=EDGE_CURVE('',#197,#212,#105,.T.);
#254=EDGE_CURVE('',#213,#212,#106,.T.);
#255=EDGE_CURVE('',#199,#213,#107,.T.);
#256=EDGE_CURVE('',#214,#213,#108,.T.);
#257=EDGE_CURVE('',#200,#214,#109,.T.);
#258=EDGE_CURVE('',#215,#214,#110,.T.);
#259=EDGE_CURVE('',#198,#215,#111,.T.);
#260=EDGE_CURVE('',#212,#215,#112,.T.);
#261=EDGE_CURVE('',#216,#217,#113,.T.);
#262=EDGE_CURVE('',#217,#202,#114,.T.);
#263=EDGE_CURVE('',#216,#201,#115,.T.);
#264=EDGE_CURVE('',#218,#216,#116,.T.);
#265=EDGE_CURVE('',#218,#204,#117,.T.);
#266=EDGE_CURVE('',#219,#218,#118,.T.);
#267=EDGE_CURVE('',#219,#203,#119,.T.);
#268=EDGE_CURVE('',#217,#219,#120,.T.);
#269=EDGE_CURVE('',#220,#221,#121,.T.);
#270=EDGE_CURVE('',#220,#206,#122,.T.);
#271=EDGE_CURVE('',#221,#205,#123,.T.);
#272=EDGE_CURVE('',#221,#222,#124,.T.);
#273=EDGE_CURVE('',#222,#208,#125,.T.);
#274=EDGE_CURVE('',#222,#223,#126,.T.);
#275=EDGE_CURVE('',#223,#207,#127,.T.);
#276=EDGE_CURVE('',#223,#220,#128,.T.);
#277=EDGE_CURVE('',#224,#225,#129,.T.);
#278=EDGE_CURVE('',#224,#210,#130,.T.);
#279=EDGE_CURVE('',#225,#209,#131,.T.);
#280=EDGE_CURVE('',#225,#189,#132,.T.);
#281=EDGE_CURVE('',#226,#211,#133,.T.);
#282=EDGE_CURVE('',#190,#226,#134,.T.);
#283=EDGE_CURVE('',#226,#224,#135,.T.);
#284=ORIENTED_EDGE('',*,*,#227,.F.);
#285=ORIENTED_EDGE('',*,*,#228,.F.);
#286=ORIENTED_EDGE('',*,*,#229,.T.);
#287=ORIENTED_EDGE('',*,*,#230,.F.);
#288=ORIENTED_EDGE('',*,*,#231,.F.);
#289=ORIENTED_EDGE('',*,*,#232,.T.);
#290=ORIENTED_EDGE('',*,*,#233,.T.);
#291=ORIENTED_EDGE('',*,*,#232,.F.);
#292=ORIENTED_EDGE('',*,*,#233,.F.);
#293=ORIENTED_EDGE('',*,*,#234,.F.);
#294=ORIENTED_EDGE('',*,*,#235,.T.);
#295=ORIENTED_EDGE('',*,*,#236,.T.);
#296=ORIENTED_EDGE('',*,*,#235,.F.);
#297=ORIENTED_EDGE('',*,*,#236,.F.);
#298=ORIENTED_EDGE('',*,*,#237,.F.);
#299=ORIENTED_EDGE('',*,*,#238,.F.);
#300=ORIENTED_EDGE('',*,*,#239,.F.);
#301=ORIENTED_EDGE('',*,*,#240,.F.);
#302=ORIENTED_EDGE('',*,*,#241,.T.);
#303=ORIENTED_EDGE('',*,*,#242,.T.);
#304=ORIENTED_EDGE('',*,*,#243,.T.);
#305=ORIENTED_EDGE('',*,*,#244,.T.);
#306=ORIENTED_EDGE('',*,*,#245,.T.);
#307=ORIENTED_EDGE('',*,*,#246,.T.);
#308=ORIENTED_EDGE('',*,*,#247,.T.);
#309=ORIENTED_EDGE('',*,*,#248,.T.);
#310=ORIENTED_EDGE('',*,*,#249,.T.);
#311=ORIENTED_EDGE('',*,*,#250,.T.);
#312=ORIENTED_EDGE('',*,*,#251,.T.);
#313=ORIENTED_EDGE('',*,*,#229,.F.);
#314=ORIENTED_EDGE('',*,*,#252,.T.);
#315=ORIENTED_EDGE('',*,*,#238,.T.);
#316=ORIENTED_EDGE('',*,*,#253,.T.);
#317=ORIENTED_EDGE('',*,*,#254,.F.);
#318=ORIENTED_EDGE('',*,*,#255,.F.);
#319=ORIENTED_EDGE('',*,*,#239,.T.);
#320=ORIENTED_EDGE('',*,*,#255,.T.);
#321=ORIENTED_EDGE('',*,*,#256,.F.);
#322=ORIENTED_EDGE('',*,*,#257,.F.);
#323=ORIENTED_EDGE('',*,*,#240,.T.);
#324=ORIENTED_EDGE('',*,*,#257,.T.);
#325=ORIENTED_EDGE('',*,*,#258,.F.);
#326=ORIENTED_EDGE('',*,*,#259,.F.);
#327=ORIENTED_EDGE('',*,*,#237,.T.);
#328=ORIENTED_EDGE('',*,*,#259,.T.);
#329=ORIENTED_EDGE('',*,*,#260,.F.);
#330=ORIENTED_EDGE('',*,*,#253,.F.);
#331=ORIENTED_EDGE('',*,*,#260,.T.);
#332=ORIENTED_EDGE('',*,*,#258,.T.);
#333=ORIENTED_EDGE('',*,*,#256,.T.);
#334=ORIENTED_EDGE('',*,*,#254,.T.);
#335=ORIENTED_EDGE('',*,*,#231,.T.);
#336=ORIENTED_EDGE('',*,*,#234,.T.);
#337=ORIENTED_EDGE('',*,*,#261,.T.);
#338=ORIENTED_EDGE('',*,*,#262,.T.);
#339=ORIENTED_EDGE('',*,*,#241,.F.);
#340=ORIENTED_EDGE('',*,*,#263,.F.);
#341=ORIENTED_EDGE('',*,*,#264,.T.);
#342=ORIENTED_EDGE('',*,*,#263,.T.);
#343=ORIENTED_EDGE('',*,*,#244,.F.);
#344=ORIENTED_EDGE('',*,*,#265,.F.);
#345=ORIENTED_EDGE('',*,*,#266,.T.);
#346=ORIENTED_EDGE('',*,*,#265,.T.);
#347=ORIENTED_EDGE('',*,*,#243,.F.);
#348=ORIENTED_EDGE('',*,*,#267,.F.);
#349=ORIENTED_EDGE('',*,*,#268,.T.);
#350=ORIENTED_EDGE('',*,*,#267,.T.);
#351=ORIENTED_EDGE('',*,*,#242,.F.);
#352=ORIENTED_EDGE('',*,*,#262,.F.);
#353=ORIENTED_EDGE('',*,*,#268,.F.);
#354=ORIENTED_EDGE('',*,*,#261,.F.);
#355=ORIENTED_EDGE('',*,*,#264,.F.);
#356=ORIENTED_EDGE('',*,*,#266,.F.);
#357=ORIENTED_EDGE('',*,*,#269,.F.);
#358=ORIENTED_EDGE('',*,*,#270,.T.);
#359=ORIENTED_EDGE('',*,*,#245,.F.);
#360=ORIENTED_EDGE('',*,*,#271,.F.);
#361=ORIENTED_EDGE('',*,*,#272,.F.);
#362=ORIENTED_EDGE('',*,*,#271,.T.);
#363=ORIENTED_EDGE('',*,*,#248,.F.);
#364=ORIENTED_EDGE('',*,*,#273,.F.);
#365=ORIENTED_EDGE('',*,*,#274,.F.);
#366=ORIENTED_EDGE('',*,*,#273,.T.);
#367=ORIENTED_EDGE('',*,*,#247,.F.);
#368=ORIENTED_EDGE('',*,*,#275,.F.);
#369=ORIENTED_EDGE('',*,*,#276,.F.);
#370=ORIENTED_EDGE('',*,*,#275,.T.);
#371=ORIENTED_EDGE('',*,*,#246,.F.);
#372=ORIENTED_EDGE('',*,*,#270,.F.);
#373=ORIENTED_EDGE('',*,*,#276,.T.);
#374=ORIENTED_EDGE('',*,*,#269,.T.);
#375=ORIENTED_EDGE('',*,*,#272,.T.);
#376=ORIENTED_EDGE('',*,*,#274,.T.);
#377=ORIENTED_EDGE('',*,*,#277,.F.);
#378=ORIENTED_EDGE('',*,*,#278,.T.);
#379=ORIENTED_EDGE('',*,*,#249,.F.);
#380=ORIENTED_EDGE('',*,*,#279,.F.);
#381=ORIENTED_EDGE('',*,*,#228,.T.);
#382=ORIENTED_EDGE('',*,*,#280,.F.);
#383=ORIENTED_EDGE('',*,*,#279,.T.);
#384=ORIENTED_EDGE('',*,*,#252,.F.);
#385=ORIENTED_EDGE('',*,*,#230,.T.);
#386=ORIENTED_EDGE('',*,*,#251,.F.);
#387=ORIENTED_EDGE('',*,*,#281,.F.);
#388=ORIENTED_EDGE('',*,*,#282,.F.);
#389=ORIENTED_EDGE('',*,*,#283,.F.);
#390=ORIENTED_EDGE('',*,*,#281,.T.);
#391=ORIENTED_EDGE('',*,*,#250,.F.);
#392=ORIENTED_EDGE('',*,*,#278,.F.);
#393=ORIENTED_EDGE('',*,*,#227,.T.);
#394=ORIENTED_EDGE('',*,*,#282,.T.);
#395=ORIENTED_EDGE('',*,*,#283,.T.);
#396=ORIENTED_EDGE('',*,*,#277,.T.);
#397=ORIENTED_EDGE('',*,*,#280,.T.);
#398=PLANE('',#462);
#399=PLANE('',#466);
#400=PLANE('',#470);
#401=PLANE('',#471);
#402=PLANE('',#472);
#403=PLANE('',#473);
#404=PLANE('',#474);
#405=PLANE('',#475);
#406=PLANE('',#476);
#407=PLANE('',#477);
#408=PLANE('',#478);
#409=PLANE('',#479);
#410=PLANE('',#480);
#411=PLANE('',#481);
#412=PLANE('',#482);
#413=PLANE('',#483);
#414=PLANE('',#484);
#415=PLANE('',#485);
#416=PLANE('',#486);
#417=PLANE('',#487);
#418=PLANE('',#488);
#419=PLANE('',#489);
#420=PLANE('',#490);
#421=PLANE('',#491);
#422=ADVANCED_FACE('',(#26),#398,.F.);
#423=ADVANCED_FACE('',(#27),#24,.F.);
#424=ADVANCED_FACE('',(#28),#399,.T.);
#425=ADVANCED_FACE('',(#29),#25,.F.);
#426=ADVANCED_FACE('',(#30),#400,.T.);
#427=ADVANCED_FACE('',(#31,#15,#16,#17),#401,.F.);
#428=ADVANCED_FACE('',(#32),#402,.T.);
#429=ADVANCED_FACE('',(#33),#403,.T.);
#430=ADVANCED_FACE('',(#34),#404,.T.);
#431=ADVANCED_FACE('',(#35),#405,.T.);
#432=ADVANCED_FACE('',(#36,#18,#19),#406,.T.);
#433=ADVANCED_FACE('',(#37),#407,.T.);
#434=ADVANCED_FACE('',(#38),#408,.T.);
#435=ADVANCED_FACE('',(#39),#409,.T.);
#436=ADVANCED_FACE('',(#40),#410,.T.);
#437=ADVANCED_FACE('',(#41),#411,.F.);
#438=ADVANCED_FACE('',(#42),#412,.T.);
#439=ADVANCED_FACE('',(#43),#413,.T.);
#440=ADVANCED_FACE('',(#44),#414,.T.);
#441=ADVANCED_FACE('',(#45),#415,.T.);
#442=ADVANCED_FACE('',(#46),#416,.F.);
#443=ADVANCED_FACE('',(#47),#417,.T.);
#444=ADVANCED_FACE('',(#48),#418,.T.);
#445=ADVANCED_FACE('',(#49),#419,.T.);
#446=ADVANCED_FACE('',(#50),#420,.T.);
#447=ADVANCED_FACE('',(#51),#421,.F.);
#448=CLOSED_SHELL('',(#422,#423,#424,#425,#426,#427,#428,#429,#430,#431,
#432,#433,#434,#435,#436,#437,#438,#439,#440,#441,#442,#443,#444,#445,#446,
#447));
#449=DERIVED_UNIT_ELEMENT(#451,1.);
#450=DERIVED_UNIT_ELEMENT(#734,-3.);
#451=(
MASS_UNIT()
NAMED_UNIT(*)
SI_UNIT(.KILO.,.GRAM.)
);
#452=DERIVED_UNIT((#449,#450));
#453=MEASURE_REPRESENTATION_ITEM('density measure',
POSITIVE_RATIO_MEASURE(7850.),#452);
#454=PROPERTY_DEFINITION_REPRESENTATION(#459,#456);
#455=PROPERTY_DEFINITION_REPRESENTATION(#460,#457);
#456=REPRESENTATION('material name',(#458),#731);
#457=REPRESENTATION('density',(#453),#731);
#458=DESCRIPTIVE_REPRESENTATION_ITEM('Steel','Steel');
#459=PROPERTY_DEFINITION('material property','material name',#741);
#460=PROPERTY_DEFINITION('material property','density of part',#741);
#461=AXIS2_PLACEMENT_3D('',#607,#492,#493);
#462=AXIS2_PLACEMENT_3D('',#608,#494,#495);
#463=AXIS2_PLACEMENT_3D('',#617,#500,#501);
#464=AXIS2_PLACEMENT_3D('',#619,#502,#503);
#465=AXIS2_PLACEMENT_3D('',#622,#505,#506);
#466=AXIS2_PLACEMENT_3D('',#623,#507,#508);
#467=AXIS2_PLACEMENT_3D('',#624,#509,#510);
#468=AXIS2_PLACEMENT_3D('',#626,#511,#512);
#469=AXIS2_PLACEMENT_3D('',#629,#514,#515);
#470=AXIS2_PLACEMENT_3D('',#630,#516,#517);
#471=AXIS2_PLACEMENT_3D('',#631,#518,#519);
#472=AXIS2_PLACEMENT_3D('',#663,#536,#537);
#473=AXIS2_PLACEMENT_3D('',#669,#541,#542);
#474=AXIS2_PLACEMENT_3D('',#673,#545,#546);
#475=AXIS2_PLACEMENT_3D('',#677,#549,#550);
#476=AXIS2_PLACEMENT_3D('',#679,#552,#553);
#477=AXIS2_PLACEMENT_3D('',#680,#554,#555);
#478=AXIS2_PLACEMENT_3D('',#686,#559,#560);
#479=AXIS2_PLACEMENT_3D('',#690,#563,#564);
#480=AXIS2_PLACEMENT_3D('',#694,#567,#568);
#481=AXIS2_PLACEMENT_3D('',#696,#570,#571);
#482=AXIS2_PLACEMENT_3D('',#697,#572,#573);
#483=AXIS2_PLACEMENT_3D('',#703,#577,#578);
#484=AXIS2_PLACEMENT_3D('',#707,#581,#582);
#485=AXIS2_PLACEMENT_3D('',#711,#585,#586);
#486=AXIS2_PLACEMENT_3D('',#713,#588,#589);
#487=AXIS2_PLACEMENT_3D('',#714,#590,#591);
#488=AXIS2_PLACEMENT_3D('',#720,#595,#596);
#489=AXIS2_PLACEMENT_3D('',#722,#598,#599);
#490=AXIS2_PLACEMENT_3D('',#726,#602,#603);
#491=AXIS2_PLACEMENT_3D('',#728,#605,#606);
#492=DIRECTION('axis',(0.,0.,1.));
#493=DIRECTION('refdir',(1.,0.,0.));
#494=DIRECTION('center_axis',(0.707106781186548,0.,-0.707106781186548));
#495=DIRECTION('ref_axis',(-0.707106781186548,0.,-0.707106781186548));
#496=DIRECTION('',(-0.707106781186548,0.,-0.707106781186548));
#497=DIRECTION('',(0.,-1.,0.));
#498=DIRECTION('',(-0.707106781186548,0.,-0.707106781186548));
#499=DIRECTION('',(0.,1.,0.));
#500=DIRECTION('center_axis',(0.,-1.,0.));
#501=DIRECTION('ref_axis',(-1.,0.,0.));
#502=DIRECTION('center_axis',(0.,-1.,0.));
#503=DIRECTION('ref_axis',(-1.,0.,0.));
#504=DIRECTION('',(0.,-1.,0.));
#505=DIRECTION('center_axis',(0.,-1.,0.));
#506=DIRECTION('ref_axis',(-1.,0.,0.));
#507=DIRECTION('center_axis',(0.,1.,0.));
#508=DIRECTION('ref_axis',(-1.,0.,0.));
#509=DIRECTION('center_axis',(0.,-1.,0.));
#510=DIRECTION('ref_axis',(1.,0.,0.));
#511=DIRECTION('center_axis',(0.,-1.,0.));
#512=DIRECTION('ref_axis',(1.,0.,0.));
#513=DIRECTION('',(0.,-1.,0.));
#514=DIRECTION('center_axis',(0.,-1.,0.));
#515=DIRECTION('ref_axis',(1.,0.,0.));
#516=DIRECTION('center_axis',(0.,1.,0.));
#517=DIRECTION('ref_axis',(1.,0.,0.));
#518=DIRECTION('center_axis',(0.,1.,0.));
#519=DIRECTION('ref_axis',(1.,0.,0.));
#520=DIRECTION('',(0.,0.,-1.));
#521=DIRECTION('',(1.,0.,0.));
#522=DIRECTION('',(0.,0.,1.));
#523=DIRECTION('',(-1.,0.,0.));
#524=DIRECTION('',(-4.20539024479226E-17,0.,-1.));
#525=DIRECTION('',(-1.,0.,0.));
#526=DIRECTION('',(-8.41078048958452E-17,0.,1.));
#527=DIRECTION('',(1.,0.,1.11022302462516E-15));
#528=DIRECTION('',(0.,0.,1.));
#529=DIRECTION('',(1.,0.,0.));
#530=DIRECTION('',(0.,0.,-1.));
#531=DIRECTION('',(-1.,0.,0.));
#532=DIRECTION('',(-8.41078048958452E-17,0.,-1.));
#533=DIRECTION('',(-1.,0.,0.));
#534=DIRECTION('',(1.26161707343768E-16,0.,1.));
#535=DIRECTION('',(1.,0.,0.));
#536=DIRECTION('center_axis',(0.,0.,1.));
#537=DIRECTION('ref_axis',(1.,0.,0.));
#538=DIRECTION('',(0.,1.,0.));
#539=DIRECTION('',(1.,0.,0.));
#540=DIRECTION('',(0.,1.,0.));
#541=DIRECTION('center_axis',(-1.,0.,0.));
#542=DIRECTION('ref_axis',(0.,0.,1.));
#543=DIRECTION('',(0.,0.,1.));
#544=DIRECTION('',(0.,1.,0.));
#545=DIRECTION('center_axis',(0.,0.,-1.));
#546=DIRECTION('ref_axis',(-1.,0.,0.));
#547=DIRECTION('',(-1.,0.,0.));
#548=DIRECTION('',(0.,1.,0.));
#549=DIRECTION('center_axis',(1.,0.,0.));
#550=DIRECTION('ref_axis',(0.,0.,-1.));
#551=DIRECTION('',(0.,0.,-1.));
#552=DIRECTION('center_axis',(0.,1.,0.));
#553=DIRECTION('ref_axis',(0.,0.,1.));
#554=DIRECTION('center_axis',(1.,0.,-4.20539024479226E-17));
#555=DIRECTION('ref_axis',(-4.20539024479226E-17,0.,-1.));
#556=DIRECTION('',(-4.20539024479226E-17,0.,-1.));
#557=DIRECTION('',(0.,1.,0.));
#558=DIRECTION('',(0.,1.,0.));
#559=DIRECTION('center_axis',(-1.11022302462516E-15,0.,1.));
#560=DIRECTION('ref_axis',(1.,0.,1.11022302462516E-15));
#561=DIRECTION('',(1.,0.,1.11022302462516E-15));
#562=DIRECTION('',(0.,1.,0.));
#563=DIRECTION('center_axis',(-1.,0.,-8.41078048958452E-17));
#564=DIRECTION('ref_axis',(-8.41078048958452E-17,0.,1.));
#565=DIRECTION('',(-8.41078048958452E-17,0.,1.));
#566=DIRECTION('',(0.,1.,0.));
#567=DIRECTION('center_axis',(0.,0.,-1.));
#568=DIRECTION('ref_axis',(-1.,0.,0.));
#569=DIRECTION('',(-1.,0.,0.));
#570=DIRECTION('center_axis',(0.,1.,0.));
#571=DIRECTION('ref_axis',(1.,0.,0.));
#572=DIRECTION('center_axis',(-1.,0.,0.));
#573=DIRECTION('ref_axis',(0.,0.,1.));
#574=DIRECTION('',(0.,0.,-1.));
#575=DIRECTION('',(0.,1.,0.));
#576=DIRECTION('',(0.,1.,0.));
#577=DIRECTION('center_axis',(0.,0.,-1.));
#578=DIRECTION('ref_axis',(-1.,0.,0.));
#579=DIRECTION('',(1.,0.,0.));
#580=DIRECTION('',(0.,1.,0.));
#581=DIRECTION('center_axis',(1.,0.,0.));
#582=DIRECTION('ref_axis',(0.,0.,-1.));
#583=DIRECTION('',(0.,0.,1.));
#584=DIRECTION('',(0.,1.,0.));
#585=DIRECTION('center_axis',(0.,0.,1.));
#586=DIRECTION('ref_axis',(1.,0.,0.));
#587=DIRECTION('',(-1.,0.,0.));
#588=DIRECTION('center_axis',(0.,1.,0.));
#589=DIRECTION('ref_axis',(1.,0.,0.));
#590=DIRECTION('center_axis',(1.,0.,-8.41078048958452E-17));
#591=DIRECTION('ref_axis',(-8.41078048958452E-17,0.,-1.));
#592=DIRECTION('',(8.41078048958452E-17,0.,1.));
#593=DIRECTION('',(0.,1.,0.));
#594=DIRECTION('',(0.,1.,0.));
#595=DIRECTION('center_axis',(0.,0.,1.));
#596=DIRECTION('ref_axis',(1.,0.,0.));
#597=DIRECTION('',(-1.,0.,0.));
#598=DIRECTION('center_axis',(-1.,0.,1.26161707343768E-16));
#599=DIRECTION('ref_axis',(1.26161707343768E-16,0.,1.));
#600=DIRECTION('',(0.,1.,0.));
#601=DIRECTION('',(-1.26161707343768E-16,0.,-1.));
#602=DIRECTION('center_axis',(0.,0.,-1.));
#603=DIRECTION('ref_axis',(-1.,0.,0.));
#604=DIRECTION('',(1.,0.,0.));
#605=DIRECTION('center_axis',(0.,1.,0.));
#606=DIRECTION('ref_axis',(1.,0.,0.));
#607=CARTESIAN_POINT('',(0.,0.,0.));
#608=CARTESIAN_POINT('Origin',(-0.499999988824129,0.,1.64999996311963));
#609=CARTESIAN_POINT('',(-0.499999988824129,0.,1.64999996311963));
#610=CARTESIAN_POINT('',(-0.649999985471368,0.,1.49999996647239));
#611=CARTESIAN_POINT('',(-0.787499982398003,0.,1.36249996954575));
#612=CARTESIAN_POINT('',(-0.499999988824129,0.1,1.64999996311963));
#613=CARTESIAN_POINT('',(-0.499999951943755,0.,1.65));
#614=CARTESIAN_POINT('',(-0.649999985471368,0.1,1.49999996647239));
#615=CARTESIAN_POINT('',(-0.499999988824129,0.1,1.64999996311963));
#616=CARTESIAN_POINT('',(-0.65,0.,1.49999995194376));
#617=CARTESIAN_POINT('Origin',(1.475,1.,1.475));
#618=CARTESIAN_POINT('',(1.575,1.,1.475));
#619=CARTESIAN_POINT('Origin',(1.475,1.,1.475));
#620=CARTESIAN_POINT('',(1.575,0.9,1.475));
#621=CARTESIAN_POINT('',(1.575,1.,1.475));
#622=CARTESIAN_POINT('Origin',(1.475,0.9,1.475));
#623=CARTESIAN_POINT('Origin',(1.475,0.9,1.475));
#624=CARTESIAN_POINT('Origin',(0.,1.,0.));
#625=CARTESIAN_POINT('',(-0.65,1.,7.9602041944578E-17));
#626=CARTESIAN_POINT('Origin',(0.,1.,0.));
#627=CARTESIAN_POINT('',(-0.65,0.9,7.9602041944578E-17));
#628=CARTESIAN_POINT('',(-0.65,1.,-7.9602041944578E-17));
#629=CARTESIAN_POINT('Origin',(0.,0.9,0.));
#630=CARTESIAN_POINT('Origin',(0.,0.9,0.));
#631=CARTESIAN_POINT('Origin',(0.,0.1,0.));
#632=CARTESIAN_POINT('',(1.725,0.1,1.725));
#633=CARTESIAN_POINT('',(1.725,0.1,-1.725));
#634=CARTESIAN_POINT('',(1.725,0.1,1.725));
#635=CARTESIAN_POINT('',(-1.725,0.1,1.725));
#636=CARTESIAN_POINT('',(-1.725,0.1,1.725));
#637=CARTESIAN_POINT('',(-1.725,0.1,-1.725));
#638=CARTESIAN_POINT('',(-1.725,0.1,-1.725));
#639=CARTESIAN_POINT('',(1.725,0.1,-1.725));
#640=CARTESIAN_POINT('',(-1.15,0.1,1.65));
#641=CARTESIAN_POINT('',(-1.15,0.1,-1.65));
#642=CARTESIAN_POINT('',(-1.15,0.1,1.65));
#643=CARTESIAN_POINT('',(-1.65,0.1,-1.65));
#644=CARTESIAN_POINT('',(-1.15,0.1,-1.65));
#645=CARTESIAN_POINT('',(-1.65,0.1,1.65));
#646=CARTESIAN_POINT('',(-1.65,0.1,-1.65));
#647=CARTESIAN_POINT('',(-1.65,0.1,1.65));
#648=CARTESIAN_POINT('',(1.15,0.1,-1.65));
#649=CARTESIAN_POINT('',(1.15,0.1,1.65));
#650=CARTESIAN_POINT('',(1.15,0.1,1.65));
#651=CARTESIAN_POINT('',(1.65,0.1,1.65));
#652=CARTESIAN_POINT('',(1.65,0.1,1.65));
#653=CARTESIAN_POINT('',(1.65,0.1,-1.65));
#654=CARTESIAN_POINT('',(1.65,0.1,-1.65));
#655=CARTESIAN_POINT('',(1.15,0.1,-1.65));
#656=CARTESIAN_POINT('',(0.65,0.1,1.65));
#657=CARTESIAN_POINT('',(0.65,0.1,-1.65));
#658=CARTESIAN_POINT('',(0.65,0.1,-1.65));
#659=CARTESIAN_POINT('',(-0.65,0.1,-1.65));
#660=CARTESIAN_POINT('',(-0.65,0.1,-1.65));
#661=CARTESIAN_POINT('',(-0.65,0.1,1.65));
#662=CARTESIAN_POINT('',(0.65,0.1,1.65));
#663=CARTESIAN_POINT('Origin',(-1.725,0.1,1.725));
#664=CARTESIAN_POINT('',(1.725,1.,1.725));
#665=CARTESIAN_POINT('',(1.725,0.1,1.725));
#666=CARTESIAN_POINT('',(-1.725,1.,1.725));
#667=CARTESIAN_POINT('',(-1.725,1.,1.725));
#668=CARTESIAN_POINT('',(-1.725,0.1,1.725));
#669=CARTESIAN_POINT('Origin',(-1.725,0.1,-1.725));
#670=CARTESIAN_POINT('',(-1.725,1.,-1.725));
#671=CARTESIAN_POINT('',(-1.725,1.,-1.725));
#672=CARTESIAN_POINT('',(-1.725,0.1,-1.725));
#673=CARTESIAN_POINT('Origin',(1.725,0.1,-1.725));
#674=CARTESIAN_POINT('',(1.725,1.,-1.725));
#675=CARTESIAN_POINT('',(1.725,1.,-1.725));
#676=CARTESIAN_POINT('',(1.725,0.1,-1.725));
#677=CARTESIAN_POINT('Origin',(1.725,0.1,1.725));
#678=CARTESIAN_POINT('',(1.725,1.,1.725));
#679=CARTESIAN_POINT('Origin',(0.,1.,0.));
#680=CARTESIAN_POINT('Origin',(-1.15,0.,1.65));
#681=CARTESIAN_POINT('',(-1.15,0.,1.65));
#682=CARTESIAN_POINT('',(-1.15,0.,-1.65));
#683=CARTESIAN_POINT('',(-1.15,0.,1.65));
#684=CARTESIAN_POINT('',(-1.15,0.,-1.65));
#685=CARTESIAN_POINT('',(-1.15,0.,1.65));
#686=CARTESIAN_POINT('Origin',(-1.65,0.,1.65));
#687=CARTESIAN_POINT('',(-1.65,0.,1.65));
#688=CARTESIAN_POINT('',(-1.65,0.,1.65));
#689=CARTESIAN_POINT('',(-1.65,0.,1.65));
#690=CARTESIAN_POINT('Origin',(-1.65,0.,-1.65));
#691=CARTESIAN_POINT('',(-1.65,0.,-1.65));
#692=CARTESIAN_POINT('',(-1.65,0.,-1.65));
#693=CARTESIAN_POINT('',(-1.65,0.,-1.65));
#694=CARTESIAN_POINT('Origin',(-1.15,0.,-1.65));
#695=CARTESIAN_POINT('',(-1.15,0.,-1.65));
#696=CARTESIAN_POINT('Origin',(-1.4,0.,2.77555756156289E-16));
#697=CARTESIAN_POINT('Origin',(1.15,0.,-1.65));
#698=CARTESIAN_POINT('',(1.15,0.,1.65));
#699=CARTESIAN_POINT('',(1.15,0.,-1.65));
#700=CARTESIAN_POINT('',(1.15,0.,1.65));
#701=CARTESIAN_POINT('',(1.15,0.,1.65));
#702=CARTESIAN_POINT('',(1.15,0.,-1.65));
#703=CARTESIAN_POINT('Origin',(1.65,0.,-1.65));
#704=CARTESIAN_POINT('',(1.65,0.,-1.65));
#705=CARTESIAN_POINT('',(1.15,0.,-1.65));
#706=CARTESIAN_POINT('',(1.65,0.,-1.65));
#707=CARTESIAN_POINT('Origin',(1.65,0.,1.65));
#708=CARTESIAN_POINT('',(1.65,0.,1.65));
#709=CARTESIAN_POINT('',(1.65,0.,-1.65));
#710=CARTESIAN_POINT('',(1.65,0.,1.65));
#711=CARTESIAN_POINT('Origin',(1.15,0.,1.65));
#712=CARTESIAN_POINT('',(1.65,0.,1.65));
#713=CARTESIAN_POINT('Origin',(1.4,0.,0.));
#714=CARTESIAN_POINT('Origin',(0.65,0.,1.65));
#715=CARTESIAN_POINT('',(0.65,0.,-1.65));
#716=CARTESIAN_POINT('',(0.65,0.,1.65));
#717=CARTESIAN_POINT('',(0.65,0.,-1.65));
#718=CARTESIAN_POINT('',(0.65,0.,-1.65));
#719=CARTESIAN_POINT('',(0.65,0.,1.65));
#720=CARTESIAN_POINT('Origin',(-0.65,0.,1.65));
#721=CARTESIAN_POINT('',(0.65,0.,1.65));
#722=CARTESIAN_POINT('Origin',(-0.65,0.,-1.65));
#723=CARTESIAN_POINT('',(-0.65,0.,-1.65));
#724=CARTESIAN_POINT('',(-0.65,0.,-1.65));
#725=CARTESIAN_POINT('',(-0.65,0.,1.65));
#726=CARTESIAN_POINT('Origin',(0.65,0.,-1.65));
#727=CARTESIAN_POINT('',(-0.65,0.,-1.65));
#728=CARTESIAN_POINT('Origin',(1.38777878078145E-16,0.,0.));
#729=UNCERTAINTY_MEASURE_WITH_UNIT(LENGTH_MEASURE(0.01),#733,
'DISTANCE_ACCURACY_VALUE',
'Maximum model space distance between geometric entities at asserted c
onnectivities');
#730=UNCERTAINTY_MEASURE_WITH_UNIT(LENGTH_MEASURE(0.01),#733,
'DISTANCE_ACCURACY_VALUE',
'Maximum model space distance between geometric entities at asserted c
onnectivities');
#731=(
GEOMETRIC_REPRESENTATION_CONTEXT(3)
GLOBAL_UNCERTAINTY_ASSIGNED_CONTEXT((#729))
GLOBAL_UNIT_ASSIGNED_CONTEXT((#733,#735,#736))
REPRESENTATION_CONTEXT('','3D')
);
#732=(
GEOMETRIC_REPRESENTATION_CONTEXT(3)
GLOBAL_UNCERTAINTY_ASSIGNED_CONTEXT((#730))
GLOBAL_UNIT_ASSIGNED_CONTEXT((#733,#735,#736))
REPRESENTATION_CONTEXT('','3D')
);
#733=(
LENGTH_UNIT()
NAMED_UNIT(*)
SI_UNIT(.MILLI.,.METRE.)
);
#734=(
LENGTH_UNIT()
NAMED_UNIT(*)
SI_UNIT($,.METRE.)
);
#735=(
NAMED_UNIT(*)
PLANE_ANGLE_UNIT()
SI_UNIT($,.RADIAN.)
);
#736=(
NAMED_UNIT(*)
SI_UNIT($,.STERADIAN.)
SOLID_ANGLE_UNIT()
);
#737=SHAPE_DEFINITION_REPRESENTATION(#738,#739);
#738=PRODUCT_DEFINITION_SHAPE('',$,#741);
#739=SHAPE_REPRESENTATION('',(#461),#731);
#740=PRODUCT_DEFINITION_CONTEXT('part definition',#745,'design');
#741=PRODUCT_DEFINITION('(Unsaved)','(Unsaved)',#742,#740);
#742=PRODUCT_DEFINITION_FORMATION('',$,#747);
#743=PRODUCT_RELATED_PRODUCT_CATEGORY('(Unsaved)','(Unsaved)',(#747));
#744=APPLICATION_PROTOCOL_DEFINITION('international standard',
'automotive_design',2009,#745);
#745=APPLICATION_CONTEXT(
'Core Data for Automotive Mechanical Design Process');
#746=PRODUCT_CONTEXT('part definition',#745,'mechanical');
#747=PRODUCT('(Unsaved)','(Unsaved)',$,(#746));
#748=PRESENTATION_STYLE_ASSIGNMENT((#749));
#749=SURFACE_STYLE_USAGE(.BOTH.,#750);
#750=SURFACE_SIDE_STYLE('',(#751));
#751=SURFACE_STYLE_FILL_AREA(#752);
#752=FILL_AREA_STYLE('Steel - Satin',(#753));
#753=FILL_AREA_STYLE_COLOUR('Steel - Satin',#754);
#754=COLOUR_RGB('Steel - Satin',0.627450980392157,0.627450980392157,0.627450980392157);
ENDSEC;
END-ISO-10303-21;
