ISO-10303-21;
HEADER;
/* Generated by software containing ST-Developer
 * from STEP Tools, Inc. (www.steptools.com) 
 */

FILE_DESCRIPTION(
/* description */ (''),
/* implementation_level */ '2;1');

FILE_NAME(
/* name */ 'XLamp Element.step',
/* time_stamp */ '2026-02-17T15:07:02+02:00',
/* author */ (''),
/* organization */ (''),
/* preprocessor_version */ 'ST-DEVELOPER v20.1',
/* originating_system */ 'Autodesk Translation Framework v14.24.0.0',
/* authorisation */ '');

FILE_SCHEMA (('AUTOMOTIVE_DESIGN { 1 0 10303 214 3 1 1 }'));
ENDSEC;

DATA;
#10=MECHANICAL_DESIGN_GEOMETRIC_PRESENTATION_REPRESENTATION('',(#13),#609);
#11=SHAPE_REPRESENTATION_RELATIONSHIP('SRR','None',#616,#12);
#12=ADVANCED_BREP_SHAPE_REPRESENTATION('',(#14),#608);
#13=STYLED_ITEM('',(#625),#14);
#14=MANIFOLD_SOLID_BREP('Body1',#377);
#15=FACE_BOUND('',#40,.T.);
#16=FACE_BOUND('',#41,.T.);
#17=FACE_BOUND('',#42,.T.);
#18=FACE_OUTER_BOUND('',#39,.T.);
#19=FACE_OUTER_BOUND('',#43,.T.);
#20=FACE_OUTER_BOUND('',#44,.T.);
#21=FACE_OUTER_BOUND('',#45,.T.);
#22=FACE_OUTER_BOUND('',#46,.T.);
#23=FACE_OUTER_BOUND('',#47,.T.);
#24=FACE_OUTER_BOUND('',#48,.T.);
#25=FACE_OUTER_BOUND('',#49,.T.);
#26=FACE_OUTER_BOUND('',#50,.T.);
#27=FACE_OUTER_BOUND('',#51,.T.);
#28=FACE_OUTER_BOUND('',#52,.T.);
#29=FACE_OUTER_BOUND('',#53,.T.);
#30=FACE_OUTER_BOUND('',#54,.T.);
#31=FACE_OUTER_BOUND('',#55,.T.);
#32=FACE_OUTER_BOUND('',#56,.T.);
#33=FACE_OUTER_BOUND('',#57,.T.);
#34=FACE_OUTER_BOUND('',#58,.T.);
#35=FACE_OUTER_BOUND('',#59,.T.);
#36=FACE_OUTER_BOUND('',#60,.T.);
#37=FACE_OUTER_BOUND('',#61,.T.);
#38=FACE_OUTER_BOUND('',#62,.T.);
#39=EDGE_LOOP('',(#239,#240,#241,#242));
#40=EDGE_LOOP('',(#243,#244,#245,#246));
#41=EDGE_LOOP('',(#247,#248,#249,#250));
#42=EDGE_LOOP('',(#251,#252,#253,#254));
#43=EDGE_LOOP('',(#255,#256,#257,#258));
#44=EDGE_LOOP('',(#259,#260,#261,#262));
#45=EDGE_LOOP('',(#263,#264,#265,#266));
#46=EDGE_LOOP('',(#267,#268,#269,#270));
#47=EDGE_LOOP('',(#271,#272,#273,#274));
#48=EDGE_LOOP('',(#275,#276,#277,#278));
#49=EDGE_LOOP('',(#279,#280,#281,#282));
#50=EDGE_LOOP('',(#283,#284,#285,#286));
#51=EDGE_LOOP('',(#287,#288,#289,#290));
#52=EDGE_LOOP('',(#291,#292,#293,#294));
#53=EDGE_LOOP('',(#295,#296,#297,#298));
#54=EDGE_LOOP('',(#299,#300,#301,#302));
#55=EDGE_LOOP('',(#303,#304,#305,#306));
#56=EDGE_LOOP('',(#307,#308,#309,#310));
#57=EDGE_LOOP('',(#311,#312,#313,#314));
#58=EDGE_LOOP('',(#315,#316,#317,#318));
#59=EDGE_LOOP('',(#319,#320,#321,#322));
#60=EDGE_LOOP('',(#323,#324,#325,#326));
#61=EDGE_LOOP('',(#327,#328,#329,#330));
#62=EDGE_LOOP('',(#331,#332,#333,#334));
#63=LINE('',#508,#111);
#64=LINE('',#510,#112);
#65=LINE('',#512,#113);
#66=LINE('',#513,#114);
#67=LINE('',#516,#115);
#68=LINE('',#518,#116);
#69=LINE('',#520,#117);
#70=LINE('',#521,#118);
#71=LINE('',#524,#119);
#72=LINE('',#526,#120);
#73=LINE('',#528,#121);
#74=LINE('',#529,#122);
#75=LINE('',#532,#123);
#76=LINE('',#534,#124);
#77=LINE('',#536,#125);
#78=LINE('',#537,#126);
#79=LINE('',#540,#127);
#80=LINE('',#542,#128);
#81=LINE('',#543,#129);
#82=LINE('',#546,#130);
#83=LINE('',#547,#131);
#84=LINE('',#550,#132);
#85=LINE('',#551,#133);
#86=LINE('',#553,#134);
#87=LINE('',#557,#135);
#88=LINE('',#559,#136);
#89=LINE('',#560,#137);
#90=LINE('',#563,#138);
#91=LINE('',#564,#139);
#92=LINE('',#567,#140);
#93=LINE('',#568,#141);
#94=LINE('',#570,#142);
#95=LINE('',#574,#143);
#96=LINE('',#576,#144);
#97=LINE('',#577,#145);
#98=LINE('',#580,#146);
#99=LINE('',#581,#147);
#100=LINE('',#584,#148);
#101=LINE('',#585,#149);
#102=LINE('',#587,#150);
#103=LINE('',#591,#151);
#104=LINE('',#593,#152);
#105=LINE('',#594,#153);
#106=LINE('',#597,#154);
#107=LINE('',#598,#155);
#108=LINE('',#601,#156);
#109=LINE('',#602,#157);
#110=LINE('',#604,#158);
#111=VECTOR('',#416,10.);
#112=VECTOR('',#417,10.);
#113=VECTOR('',#418,10.);
#114=VECTOR('',#419,10.);
#115=VECTOR('',#420,10.);
#116=VECTOR('',#421,10.);
#117=VECTOR('',#422,10.);
#118=VECTOR('',#423,10.);
#119=VECTOR('',#424,10.);
#120=VECTOR('',#425,10.);
#121=VECTOR('',#426,10.);
#122=VECTOR('',#427,10.);
#123=VECTOR('',#428,10.);
#124=VECTOR('',#429,10.);
#125=VECTOR('',#430,10.);
#126=VECTOR('',#431,10.);
#127=VECTOR('',#434,10.);
#128=VECTOR('',#435,10.);
#129=VECTOR('',#436,10.);
#130=VECTOR('',#439,10.);
#131=VECTOR('',#440,10.);
#132=VECTOR('',#443,10.);
#133=VECTOR('',#444,10.);
#134=VECTOR('',#447,10.);
#135=VECTOR('',#452,10.);
#136=VECTOR('',#453,10.);
#137=VECTOR('',#454,10.);
#138=VECTOR('',#457,10.);
#139=VECTOR('',#458,10.);
#140=VECTOR('',#461,10.);
#141=VECTOR('',#462,10.);
#142=VECTOR('',#465,10.);
#143=VECTOR('',#470,10.);
#144=VECTOR('',#471,10.);
#145=VECTOR('',#472,10.);
#146=VECTOR('',#475,10.);
#147=VECTOR('',#476,10.);
#148=VECTOR('',#479,10.);
#149=VECTOR('',#480,10.);
#150=VECTOR('',#483,10.);
#151=VECTOR('',#488,10.);
#152=VECTOR('',#489,10.);
#153=VECTOR('',#490,10.);
#154=VECTOR('',#493,10.);
#155=VECTOR('',#494,10.);
#156=VECTOR('',#497,10.);
#157=VECTOR('',#498,10.);
#158=VECTOR('',#501,10.);
#159=VERTEX_POINT('',#506);
#160=VERTEX_POINT('',#507);
#161=VERTEX_POINT('',#509);
#162=VERTEX_POINT('',#511);
#163=VERTEX_POINT('',#514);
#164=VERTEX_POINT('',#515);
#165=VERTEX_POINT('',#517);
#166=VERTEX_POINT('',#519);
#167=VERTEX_POINT('',#522);
#168=VERTEX_POINT('',#523);
#169=VERTEX_POINT('',#525);
#170=VERTEX_POINT('',#527);
#171=VERTEX_POINT('',#530);
#172=VERTEX_POINT('',#531);
#173=VERTEX_POINT('',#533);
#174=VERTEX_POINT('',#535);
#175=VERTEX_POINT('',#539);
#176=VERTEX_POINT('',#541);
#177=VERTEX_POINT('',#545);
#178=VERTEX_POINT('',#549);
#179=VERTEX_POINT('',#556);
#180=VERTEX_POINT('',#558);
#181=VERTEX_POINT('',#562);
#182=VERTEX_POINT('',#566);
#183=VERTEX_POINT('',#573);
#184=VERTEX_POINT('',#575);
#185=VERTEX_POINT('',#579);
#186=VERTEX_POINT('',#583);
#187=VERTEX_POINT('',#590);
#188=VERTEX_POINT('',#592);
#189=VERTEX_POINT('',#596);
#190=VERTEX_POINT('',#600);
#191=EDGE_CURVE('',#159,#160,#63,.T.);
#192=EDGE_CURVE('',#160,#161,#64,.T.);
#193=EDGE_CURVE('',#161,#162,#65,.T.);
#194=EDGE_CURVE('',#162,#159,#66,.T.);
#195=EDGE_CURVE('',#163,#164,#67,.T.);
#196=EDGE_CURVE('',#164,#165,#68,.T.);
#197=EDGE_CURVE('',#165,#166,#69,.T.);
#198=EDGE_CURVE('',#166,#163,#70,.T.);
#199=EDGE_CURVE('',#167,#168,#71,.T.);
#200=EDGE_CURVE('',#169,#167,#72,.T.);
#201=EDGE_CURVE('',#170,#169,#73,.T.);
#202=EDGE_CURVE('',#168,#170,#74,.T.);
#203=EDGE_CURVE('',#171,#172,#75,.T.);
#204=EDGE_CURVE('',#173,#171,#76,.T.);
#205=EDGE_CURVE('',#174,#173,#77,.T.);
#206=EDGE_CURVE('',#172,#174,#78,.T.);
#207=EDGE_CURVE('',#160,#175,#79,.T.);
#208=EDGE_CURVE('',#176,#175,#80,.T.);
#209=EDGE_CURVE('',#161,#176,#81,.T.);
#210=EDGE_CURVE('',#177,#176,#82,.T.);
#211=EDGE_CURVE('',#162,#177,#83,.T.);
#212=EDGE_CURVE('',#178,#177,#84,.T.);
#213=EDGE_CURVE('',#159,#178,#85,.T.);
#214=EDGE_CURVE('',#175,#178,#86,.T.);
#215=EDGE_CURVE('',#163,#179,#87,.T.);
#216=EDGE_CURVE('',#180,#179,#88,.T.);
#217=EDGE_CURVE('',#164,#180,#89,.T.);
#218=EDGE_CURVE('',#181,#180,#90,.T.);
#219=EDGE_CURVE('',#165,#181,#91,.T.);
#220=EDGE_CURVE('',#182,#181,#92,.T.);
#221=EDGE_CURVE('',#166,#182,#93,.T.);
#222=EDGE_CURVE('',#179,#182,#94,.T.);
#223=EDGE_CURVE('',#168,#183,#95,.T.);
#224=EDGE_CURVE('',#184,#183,#96,.T.);
#225=EDGE_CURVE('',#167,#184,#97,.T.);
#226=EDGE_CURVE('',#185,#184,#98,.T.);
#227=EDGE_CURVE('',#169,#185,#99,.T.);
#228=EDGE_CURVE('',#186,#185,#100,.T.);
#229=EDGE_CURVE('',#170,#186,#101,.T.);
#230=EDGE_CURVE('',#183,#186,#102,.T.);
#231=EDGE_CURVE('',#172,#187,#103,.T.);
#232=EDGE_CURVE('',#188,#187,#104,.T.);
#233=EDGE_CURVE('',#171,#188,#105,.T.);
#234=EDGE_CURVE('',#189,#188,#106,.T.);
#235=EDGE_CURVE('',#173,#189,#107,.T.);
#236=EDGE_CURVE('',#190,#189,#108,.T.);
#237=EDGE_CURVE('',#174,#190,#109,.T.);
#238=EDGE_CURVE('',#187,#190,#110,.T.);
#239=ORIENTED_EDGE('',*,*,#191,.T.);
#240=ORIENTED_EDGE('',*,*,#192,.T.);
#241=ORIENTED_EDGE('',*,*,#193,.T.);
#242=ORIENTED_EDGE('',*,*,#194,.T.);
#243=ORIENTED_EDGE('',*,*,#195,.T.);
#244=ORIENTED_EDGE('',*,*,#196,.T.);
#245=ORIENTED_EDGE('',*,*,#197,.T.);
#246=ORIENTED_EDGE('',*,*,#198,.T.);
#247=ORIENTED_EDGE('',*,*,#199,.F.);
#248=ORIENTED_EDGE('',*,*,#200,.F.);
#249=ORIENTED_EDGE('',*,*,#201,.F.);
#250=ORIENTED_EDGE('',*,*,#202,.F.);
#251=ORIENTED_EDGE('',*,*,#203,.F.);
#252=ORIENTED_EDGE('',*,*,#204,.F.);
#253=ORIENTED_EDGE('',*,*,#205,.F.);
#254=ORIENTED_EDGE('',*,*,#206,.F.);
#255=ORIENTED_EDGE('',*,*,#192,.F.);
#256=ORIENTED_EDGE('',*,*,#207,.T.);
#257=ORIENTED_EDGE('',*,*,#208,.F.);
#258=ORIENTED_EDGE('',*,*,#209,.F.);
#259=ORIENTED_EDGE('',*,*,#193,.F.);
#260=ORIENTED_EDGE('',*,*,#209,.T.);
#261=ORIENTED_EDGE('',*,*,#210,.F.);
#262=ORIENTED_EDGE('',*,*,#211,.F.);
#263=ORIENTED_EDGE('',*,*,#194,.F.);
#264=ORIENTED_EDGE('',*,*,#211,.T.);
#265=ORIENTED_EDGE('',*,*,#212,.F.);
#266=ORIENTED_EDGE('',*,*,#213,.F.);
#267=ORIENTED_EDGE('',*,*,#191,.F.);
#268=ORIENTED_EDGE('',*,*,#213,.T.);
#269=ORIENTED_EDGE('',*,*,#214,.F.);
#270=ORIENTED_EDGE('',*,*,#207,.F.);
#271=ORIENTED_EDGE('',*,*,#214,.T.);
#272=ORIENTED_EDGE('',*,*,#212,.T.);
#273=ORIENTED_EDGE('',*,*,#210,.T.);
#274=ORIENTED_EDGE('',*,*,#208,.T.);
#275=ORIENTED_EDGE('',*,*,#195,.F.);
#276=ORIENTED_EDGE('',*,*,#215,.T.);
#277=ORIENTED_EDGE('',*,*,#216,.F.);
#278=ORIENTED_EDGE('',*,*,#217,.F.);
#279=ORIENTED_EDGE('',*,*,#196,.F.);
#280=ORIENTED_EDGE('',*,*,#217,.T.);
#281=ORIENTED_EDGE('',*,*,#218,.F.);
#282=ORIENTED_EDGE('',*,*,#219,.F.);
#283=ORIENTED_EDGE('',*,*,#197,.F.);
#284=ORIENTED_EDGE('',*,*,#219,.T.);
#285=ORIENTED_EDGE('',*,*,#220,.F.);
#286=ORIENTED_EDGE('',*,*,#221,.F.);
#287=ORIENTED_EDGE('',*,*,#198,.F.);
#288=ORIENTED_EDGE('',*,*,#221,.T.);
#289=ORIENTED_EDGE('',*,*,#222,.F.);
#290=ORIENTED_EDGE('',*,*,#215,.F.);
#291=ORIENTED_EDGE('',*,*,#222,.T.);
#292=ORIENTED_EDGE('',*,*,#220,.T.);
#293=ORIENTED_EDGE('',*,*,#218,.T.);
#294=ORIENTED_EDGE('',*,*,#216,.T.);
#295=ORIENTED_EDGE('',*,*,#199,.T.);
#296=ORIENTED_EDGE('',*,*,#223,.T.);
#297=ORIENTED_EDGE('',*,*,#224,.F.);
#298=ORIENTED_EDGE('',*,*,#225,.F.);
#299=ORIENTED_EDGE('',*,*,#200,.T.);
#300=ORIENTED_EDGE('',*,*,#225,.T.);
#301=ORIENTED_EDGE('',*,*,#226,.F.);
#302=ORIENTED_EDGE('',*,*,#227,.F.);
#303=ORIENTED_EDGE('',*,*,#201,.T.);
#304=ORIENTED_EDGE('',*,*,#227,.T.);
#305=ORIENTED_EDGE('',*,*,#228,.F.);
#306=ORIENTED_EDGE('',*,*,#229,.F.);
#307=ORIENTED_EDGE('',*,*,#202,.T.);
#308=ORIENTED_EDGE('',*,*,#229,.T.);
#309=ORIENTED_EDGE('',*,*,#230,.F.);
#310=ORIENTED_EDGE('',*,*,#223,.F.);
#311=ORIENTED_EDGE('',*,*,#230,.T.);
#312=ORIENTED_EDGE('',*,*,#228,.T.);
#313=ORIENTED_EDGE('',*,*,#226,.T.);
#314=ORIENTED_EDGE('',*,*,#224,.T.);
#315=ORIENTED_EDGE('',*,*,#203,.T.);
#316=ORIENTED_EDGE('',*,*,#231,.T.);
#317=ORIENTED_EDGE('',*,*,#232,.F.);
#318=ORIENTED_EDGE('',*,*,#233,.F.);
#319=ORIENTED_EDGE('',*,*,#204,.T.);
#320=ORIENTED_EDGE('',*,*,#233,.T.);
#321=ORIENTED_EDGE('',*,*,#234,.F.);
#322=ORIENTED_EDGE('',*,*,#235,.F.);
#323=ORIENTED_EDGE('',*,*,#205,.T.);
#324=ORIENTED_EDGE('',*,*,#235,.T.);
#325=ORIENTED_EDGE('',*,*,#236,.F.);
#326=ORIENTED_EDGE('',*,*,#237,.F.);
#327=ORIENTED_EDGE('',*,*,#206,.T.);
#328=ORIENTED_EDGE('',*,*,#237,.T.);
#329=ORIENTED_EDGE('',*,*,#238,.F.);
#330=ORIENTED_EDGE('',*,*,#231,.F.);
#331=ORIENTED_EDGE('',*,*,#238,.T.);
#332=ORIENTED_EDGE('',*,*,#236,.T.);
#333=ORIENTED_EDGE('',*,*,#234,.T.);
#334=ORIENTED_EDGE('',*,*,#232,.T.);
#335=PLANE('',#391);
#336=PLANE('',#392);
#337=PLANE('',#393);
#338=PLANE('',#394);
#339=PLANE('',#395);
#340=PLANE('',#396);
#341=PLANE('',#397);
#342=PLANE('',#398);
#343=PLANE('',#399);
#344=PLANE('',#400);
#345=PLANE('',#401);
#346=PLANE('',#402);
#347=PLANE('',#403);
#348=PLANE('',#404);
#349=PLANE('',#405);
#350=PLANE('',#406);
#351=PLANE('',#407);
#352=PLANE('',#408);
#353=PLANE('',#409);
#354=PLANE('',#410);
#355=PLANE('',#411);
#356=ADVANCED_FACE('',(#18,#15,#16,#17),#335,.F.);
#357=ADVANCED_FACE('',(#19),#336,.T.);
#358=ADVANCED_FACE('',(#20),#337,.T.);
#359=ADVANCED_FACE('',(#21),#338,.T.);
#360=ADVANCED_FACE('',(#22),#339,.T.);
#361=ADVANCED_FACE('',(#23),#340,.T.);
#362=ADVANCED_FACE('',(#24),#341,.T.);
#363=ADVANCED_FACE('',(#25),#342,.T.);
#364=ADVANCED_FACE('',(#26),#343,.T.);
#365=ADVANCED_FACE('',(#27),#344,.T.);
#366=ADVANCED_FACE('',(#28),#345,.T.);
#367=ADVANCED_FACE('',(#29),#346,.T.);
#368=ADVANCED_FACE('',(#30),#347,.T.);
#369=ADVANCED_FACE('',(#31),#348,.T.);
#370=ADVANCED_FACE('',(#32),#349,.T.);
#371=ADVANCED_FACE('',(#33),#350,.T.);
#372=ADVANCED_FACE('',(#34),#351,.T.);
#373=ADVANCED_FACE('',(#35),#352,.T.);
#374=ADVANCED_FACE('',(#36),#353,.T.);
#375=ADVANCED_FACE('',(#37),#354,.T.);
#376=ADVANCED_FACE('',(#38),#355,.T.);
#377=CLOSED_SHELL('',(#356,#357,#358,#359,#360,#361,#362,#363,#364,#365,
#366,#367,#368,#369,#370,#371,#372,#373,#374,#375,#376));
#378=DERIVED_UNIT_ELEMENT(#380,1.);
#379=DERIVED_UNIT_ELEMENT(#611,-3.);
#380=(
MASS_UNIT()
NAMED_UNIT(*)
SI_UNIT(.KILO.,.GRAM.)
);
#381=DERIVED_UNIT((#378,#379));
#382=MEASURE_REPRESENTATION_ITEM('density measure',
POSITIVE_RATIO_MEASURE(7850.),#381);
#383=PROPERTY_DEFINITION_REPRESENTATION(#388,#385);
#384=PROPERTY_DEFINITION_REPRESENTATION(#389,#386);
#385=REPRESENTATION('material name',(#387),#608);
#386=REPRESENTATION('density',(#382),#608);
#387=DESCRIPTIVE_REPRESENTATION_ITEM('Steel','Steel');
#388=PROPERTY_DEFINITION('material property','material name',#618);
#389=PROPERTY_DEFINITION('material property','density of part',#618);
#390=AXIS2_PLACEMENT_3D('',#504,#412,#413);
#391=AXIS2_PLACEMENT_3D('',#505,#414,#415);
#392=AXIS2_PLACEMENT_3D('',#538,#432,#433);
#393=AXIS2_PLACEMENT_3D('',#544,#437,#438);
#394=AXIS2_PLACEMENT_3D('',#548,#441,#442);
#395=AXIS2_PLACEMENT_3D('',#552,#445,#446);
#396=AXIS2_PLACEMENT_3D('',#554,#448,#449);
#397=AXIS2_PLACEMENT_3D('',#555,#450,#451);
#398=AXIS2_PLACEMENT_3D('',#561,#455,#456);
#399=AXIS2_PLACEMENT_3D('',#565,#459,#460);
#400=AXIS2_PLACEMENT_3D('',#569,#463,#464);
#401=AXIS2_PLACEMENT_3D('',#571,#466,#467);
#402=AXIS2_PLACEMENT_3D('',#572,#468,#469);
#403=AXIS2_PLACEMENT_3D('',#578,#473,#474);
#404=AXIS2_PLACEMENT_3D('',#582,#477,#478);
#405=AXIS2_PLACEMENT_3D('',#586,#481,#482);
#406=AXIS2_PLACEMENT_3D('',#588,#484,#485);
#407=AXIS2_PLACEMENT_3D('',#589,#486,#487);
#408=AXIS2_PLACEMENT_3D('',#595,#491,#492);
#409=AXIS2_PLACEMENT_3D('',#599,#495,#496);
#410=AXIS2_PLACEMENT_3D('',#603,#499,#500);
#411=AXIS2_PLACEMENT_3D('',#605,#502,#503);
#412=DIRECTION('axis',(0.,0.,1.));
#413=DIRECTION('refdir',(1.,0.,0.));
#414=DIRECTION('center_axis',(0.,1.,0.));
#415=DIRECTION('ref_axis',(1.,0.,0.));
#416=DIRECTION('',(-1.,0.,0.));
#417=DIRECTION('',(0.,0.,-1.));
#418=DIRECTION('',(1.,0.,0.));
#419=DIRECTION('',(0.,0.,1.));
#420=DIRECTION('',(-1.,0.,0.));
#421=DIRECTION('',(0.,0.,1.));
#422=DIRECTION('',(1.,0.,0.));
#423=DIRECTION('',(0.,0.,-1.));
#424=DIRECTION('',(0.,0.,1.));
#425=DIRECTION('',(1.,0.,0.));
#426=DIRECTION('',(0.,0.,-1.));
#427=DIRECTION('',(-1.,0.,2.52323414687536E-16));
#428=DIRECTION('',(-4.20539024479226E-16,0.,-1.));
#429=DIRECTION('',(-1.,0.,2.52323414687536E-16));
#430=DIRECTION('',(0.,0.,1.));
#431=DIRECTION('',(1.,0.,0.));
#432=DIRECTION('center_axis',(-1.,0.,0.));
#433=DIRECTION('ref_axis',(0.,0.,1.));
#434=DIRECTION('',(0.,1.,0.));
#435=DIRECTION('',(0.,0.,1.));
#436=DIRECTION('',(0.,1.,0.));
#437=DIRECTION('center_axis',(0.,0.,-1.));
#438=DIRECTION('ref_axis',(-1.,0.,0.));
#439=DIRECTION('',(-1.,0.,0.));
#440=DIRECTION('',(0.,1.,0.));
#441=DIRECTION('center_axis',(1.,0.,0.));
#442=DIRECTION('ref_axis',(0.,0.,-1.));
#443=DIRECTION('',(0.,0.,-1.));
#444=DIRECTION('',(0.,1.,0.));
#445=DIRECTION('center_axis',(0.,0.,1.));
#446=DIRECTION('ref_axis',(1.,0.,0.));
#447=DIRECTION('',(1.,0.,0.));
#448=DIRECTION('center_axis',(0.,1.,0.));
#449=DIRECTION('ref_axis',(0.,0.,1.));
#450=DIRECTION('center_axis',(0.,0.,-1.));
#451=DIRECTION('ref_axis',(1.,0.,0.));
#452=DIRECTION('',(0.,-1.,0.));
#453=DIRECTION('',(1.,0.,0.));
#454=DIRECTION('',(0.,-1.,0.));
#455=DIRECTION('center_axis',(-1.,0.,0.));
#456=DIRECTION('ref_axis',(0.,0.,-1.));
#457=DIRECTION('',(0.,0.,-1.));
#458=DIRECTION('',(0.,-1.,0.));
#459=DIRECTION('center_axis',(0.,0.,1.));
#460=DIRECTION('ref_axis',(-1.,0.,0.));
#461=DIRECTION('',(-1.,0.,0.));
#462=DIRECTION('',(0.,-1.,0.));
#463=DIRECTION('center_axis',(1.,0.,0.));
#464=DIRECTION('ref_axis',(0.,0.,1.));
#465=DIRECTION('',(0.,0.,1.));
#466=DIRECTION('center_axis',(0.,-1.,0.));
#467=DIRECTION('ref_axis',(0.,0.,-1.));
#468=DIRECTION('center_axis',(1.,0.,0.));
#469=DIRECTION('ref_axis',(0.,0.,1.));
#470=DIRECTION('',(0.,-1.,0.));
#471=DIRECTION('',(0.,0.,1.));
#472=DIRECTION('',(0.,-1.,0.));
#473=DIRECTION('center_axis',(0.,0.,-1.));
#474=DIRECTION('ref_axis',(1.,0.,0.));
#475=DIRECTION('',(1.,0.,0.));
#476=DIRECTION('',(0.,-1.,0.));
#477=DIRECTION('center_axis',(-1.,0.,0.));
#478=DIRECTION('ref_axis',(0.,0.,-1.));
#479=DIRECTION('',(0.,0.,-1.));
#480=DIRECTION('',(0.,-1.,0.));
#481=DIRECTION('center_axis',(2.52323414687536E-16,0.,1.));
#482=DIRECTION('ref_axis',(-1.,0.,2.52323414687536E-16));
#483=DIRECTION('',(-1.,0.,2.52323414687536E-16));
#484=DIRECTION('center_axis',(0.,-1.,0.));
#485=DIRECTION('ref_axis',(0.,0.,-1.));
#486=DIRECTION('center_axis',(-1.,0.,4.20539024479226E-16));
#487=DIRECTION('ref_axis',(-4.20539024479226E-16,0.,-1.));
#488=DIRECTION('',(0.,-1.,0.));
#489=DIRECTION('',(-4.20539024479226E-16,0.,-1.));
#490=DIRECTION('',(0.,-1.,0.));
#491=DIRECTION('center_axis',(2.52323414687536E-16,0.,1.));
#492=DIRECTION('ref_axis',(-1.,0.,2.52323414687536E-16));
#493=DIRECTION('',(-1.,0.,2.52323414687536E-16));
#494=DIRECTION('',(0.,-1.,0.));
#495=DIRECTION('center_axis',(1.,0.,0.));
#496=DIRECTION('ref_axis',(0.,0.,1.));
#497=DIRECTION('',(0.,0.,1.));
#498=DIRECTION('',(0.,-1.,0.));
#499=DIRECTION('center_axis',(0.,0.,-1.));
#500=DIRECTION('ref_axis',(1.,0.,0.));
#501=DIRECTION('',(1.,0.,0.));
#502=DIRECTION('center_axis',(0.,-1.,0.));
#503=DIRECTION('ref_axis',(0.,0.,-1.));
#504=CARTESIAN_POINT('',(0.,0.,0.));
#505=CARTESIAN_POINT('Origin',(-0.00138872277878732,0.,-0.29));
#506=CARTESIAN_POINT('',(0.798611277221213,0.,0.735));
#507=CARTESIAN_POINT('',(-0.801388722778787,0.,0.735));
#508=CARTESIAN_POINT('',(0.798611277221213,0.,0.735));
#509=CARTESIAN_POINT('',(-0.801388722778787,0.,-1.315));
#510=CARTESIAN_POINT('',(-0.801388722778787,0.,0.735));
#511=CARTESIAN_POINT('',(0.798611277221213,0.,-1.315));
#512=CARTESIAN_POINT('',(-0.801388722778787,0.,-1.315));
#513=CARTESIAN_POINT('',(0.798611277221213,0.,-1.315));
#514=CARTESIAN_POINT('',(0.7,0.,-0.635));
#515=CARTESIAN_POINT('',(-0.7,0.,-0.635));
#516=CARTESIAN_POINT('',(0.7,0.,-0.635));
#517=CARTESIAN_POINT('',(-0.7,0.,0.635));
#518=CARTESIAN_POINT('',(-0.7,0.,-0.635));
#519=CARTESIAN_POINT('',(0.7,0.,0.635));
#520=CARTESIAN_POINT('',(-0.7,0.,0.635));
#521=CARTESIAN_POINT('',(0.7,0.,0.635));
#522=CARTESIAN_POINT('',(0.7,0.,-1.215));
#523=CARTESIAN_POINT('',(0.7,0.,-0.885));
#524=CARTESIAN_POINT('',(0.7,0.,-1.215));
#525=CARTESIAN_POINT('',(0.15,0.,-1.215));
#526=CARTESIAN_POINT('',(0.15,0.,-1.215));
#527=CARTESIAN_POINT('',(0.15,0.,-0.885));
#528=CARTESIAN_POINT('',(0.15,0.,-0.885));
#529=CARTESIAN_POINT('',(0.7,0.,-0.885));
#530=CARTESIAN_POINT('',(-0.7,0.,-0.885));
#531=CARTESIAN_POINT('',(-0.7,0.,-1.215));
#532=CARTESIAN_POINT('',(-0.7,0.,-0.885));
#533=CARTESIAN_POINT('',(-0.15,0.,-0.885));
#534=CARTESIAN_POINT('',(-0.15,0.,-0.885));
#535=CARTESIAN_POINT('',(-0.15,0.,-1.215));
#536=CARTESIAN_POINT('',(-0.15,0.,-1.215));
#537=CARTESIAN_POINT('',(-0.7,0.,-1.215));
#538=CARTESIAN_POINT('Origin',(-0.801388722778787,0.,-1.315));
#539=CARTESIAN_POINT('',(-0.801388722778787,0.9,0.735));
#540=CARTESIAN_POINT('',(-0.801388722778787,0.,0.735));
#541=CARTESIAN_POINT('',(-0.801388722778787,0.9,-1.315));
#542=CARTESIAN_POINT('',(-0.801388722778787,0.9,0.735));
#543=CARTESIAN_POINT('',(-0.801388722778787,0.,-1.315));
#544=CARTESIAN_POINT('Origin',(0.798611277221213,0.,-1.315));
#545=CARTESIAN_POINT('',(0.798611277221213,0.9,-1.315));
#546=CARTESIAN_POINT('',(-0.801388722778787,0.9,-1.315));
#547=CARTESIAN_POINT('',(0.798611277221213,0.,-1.315));
#548=CARTESIAN_POINT('Origin',(0.798611277221213,0.,0.735));
#549=CARTESIAN_POINT('',(0.798611277221213,0.9,0.735));
#550=CARTESIAN_POINT('',(0.798611277221213,0.9,-1.315));
#551=CARTESIAN_POINT('',(0.798611277221213,0.,0.735));
#552=CARTESIAN_POINT('Origin',(-0.801388722778787,0.,0.735));
#553=CARTESIAN_POINT('',(0.798611277221213,0.9,0.735));
#554=CARTESIAN_POINT('Origin',(-0.00138872277878732,0.9,-0.29));
#555=CARTESIAN_POINT('Origin',(-0.7,0.,-0.635));
#556=CARTESIAN_POINT('',(0.7,-0.1,-0.635));
#557=CARTESIAN_POINT('',(0.7,0.,-0.635));
#558=CARTESIAN_POINT('',(-0.7,-0.1,-0.635));
#559=CARTESIAN_POINT('',(0.7,-0.1,-0.635));
#560=CARTESIAN_POINT('',(-0.7,0.,-0.635));
#561=CARTESIAN_POINT('Origin',(-0.7,0.,0.635));
#562=CARTESIAN_POINT('',(-0.7,-0.1,0.635));
#563=CARTESIAN_POINT('',(-0.7,-0.1,-0.635));
#564=CARTESIAN_POINT('',(-0.7,0.,0.635));
#565=CARTESIAN_POINT('Origin',(0.7,0.,0.635));
#566=CARTESIAN_POINT('',(0.7,-0.1,0.635));
#567=CARTESIAN_POINT('',(-0.7,-0.1,0.635));
#568=CARTESIAN_POINT('',(0.7,0.,0.635));
#569=CARTESIAN_POINT('Origin',(0.7,0.,-0.635));
#570=CARTESIAN_POINT('',(0.7,-0.1,0.635));
#571=CARTESIAN_POINT('Origin',(0.,-0.1,0.));
#572=CARTESIAN_POINT('Origin',(0.7,0.,-1.215));
#573=CARTESIAN_POINT('',(0.7,-0.1,-0.885));
#574=CARTESIAN_POINT('',(0.7,0.,-0.885));
#575=CARTESIAN_POINT('',(0.7,-0.1,-1.215));
#576=CARTESIAN_POINT('',(0.7,-0.1,-1.215));
#577=CARTESIAN_POINT('',(0.7,0.,-1.215));
#578=CARTESIAN_POINT('Origin',(0.15,0.,-1.215));
#579=CARTESIAN_POINT('',(0.15,-0.1,-1.215));
#580=CARTESIAN_POINT('',(0.15,-0.1,-1.215));
#581=CARTESIAN_POINT('',(0.15,0.,-1.215));
#582=CARTESIAN_POINT('Origin',(0.15,0.,-0.885));
#583=CARTESIAN_POINT('',(0.15,-0.1,-0.885));
#584=CARTESIAN_POINT('',(0.15,-0.1,-0.885));
#585=CARTESIAN_POINT('',(0.15,0.,-0.885));
#586=CARTESIAN_POINT('Origin',(0.7,0.,-0.885));
#587=CARTESIAN_POINT('',(0.7,-0.1,-0.885));
#588=CARTESIAN_POINT('Origin',(0.425,-0.1,-1.05));
#589=CARTESIAN_POINT('Origin',(-0.7,0.,-0.885));
#590=CARTESIAN_POINT('',(-0.7,-0.1,-1.215));
#591=CARTESIAN_POINT('',(-0.7,0.,-1.215));
#592=CARTESIAN_POINT('',(-0.7,-0.1,-0.885));
#593=CARTESIAN_POINT('',(-0.7,-0.1,-0.885));
#594=CARTESIAN_POINT('',(-0.7,0.,-0.885));
#595=CARTESIAN_POINT('Origin',(-0.15,0.,-0.885));
#596=CARTESIAN_POINT('',(-0.15,-0.1,-0.885));
#597=CARTESIAN_POINT('',(-0.15,-0.1,-0.885));
#598=CARTESIAN_POINT('',(-0.15,0.,-0.885));
#599=CARTESIAN_POINT('Origin',(-0.15,0.,-1.215));
#600=CARTESIAN_POINT('',(-0.15,-0.1,-1.215));
#601=CARTESIAN_POINT('',(-0.15,-0.1,-1.215));
#602=CARTESIAN_POINT('',(-0.15,0.,-1.215));
#603=CARTESIAN_POINT('Origin',(-0.7,0.,-1.215));
#604=CARTESIAN_POINT('',(-0.7,-0.1,-1.215));
#605=CARTESIAN_POINT('Origin',(-0.425,-0.1,-1.05));
#606=UNCERTAINTY_MEASURE_WITH_UNIT(LENGTH_MEASURE(0.01),#610,
'DISTANCE_ACCURACY_VALUE',
'Maximum model space distance between geometric entities at asserted c
onnectivities');
#607=UNCERTAINTY_MEASURE_WITH_UNIT(LENGTH_MEASURE(0.01),#610,
'DISTANCE_ACCURACY_VALUE',
'Maximum model space distance between geometric entities at asserted c
onnectivities');
#608=(
GEOMETRIC_REPRESENTATION_CONTEXT(3)
GLOBAL_UNCERTAINTY_ASSIGNED_CONTEXT((#606))
GLOBAL_UNIT_ASSIGNED_CONTEXT((#610,#612,#613))
REPRESENTATION_CONTEXT('','3D')
);
#609=(
GEOMETRIC_REPRESENTATION_CONTEXT(3)
GLOBAL_UNCERTAINTY_ASSIGNED_CONTEXT((#607))
GLOBAL_UNIT_ASSIGNED_CONTEXT((#610,#612,#613))
REPRESENTATION_CONTEXT('','3D')
);
#610=(
LENGTH_UNIT()
NAMED_UNIT(*)
SI_UNIT(.MILLI.,.METRE.)
);
#611=(
LENGTH_UNIT()
NAMED_UNIT(*)
SI_UNIT($,.METRE.)
);
#612=(
NAMED_UNIT(*)
PLANE_ANGLE_UNIT()
SI_UNIT($,.RADIAN.)
);
#613=(
NAMED_UNIT(*)
SI_UNIT($,.STERADIAN.)
SOLID_ANGLE_UNIT()
);
#614=SHAPE_DEFINITION_REPRESENTATION(#615,#616);
#615=PRODUCT_DEFINITION_SHAPE('',$,#618);
#616=SHAPE_REPRESENTATION('',(#390),#608);
#617=PRODUCT_DEFINITION_CONTEXT('part definition',#622,'design');
#618=PRODUCT_DEFINITION('(Unsaved)','(Unsaved)',#619,#617);
#619=PRODUCT_DEFINITION_FORMATION('',$,#624);
#620=PRODUCT_RELATED_PRODUCT_CATEGORY('(Unsaved)','(Unsaved)',(#624));
#621=APPLICATION_PROTOCOL_DEFINITION('international standard',
'automotive_design',2009,#622);
#622=APPLICATION_CONTEXT(
'Core Data for Automotive Mechanical Design Process');
#623=PRODUCT_CONTEXT('part definition',#622,'mechanical');
#624=PRODUCT('(Unsaved)','(Unsaved)',$,(#623));
#625=PRESENTATION_STYLE_ASSIGNMENT((#626));
#626=SURFACE_STYLE_USAGE(.BOTH.,#627);
#627=SURFACE_SIDE_STYLE('',(#628));
#628=SURFACE_STYLE_FILL_AREA(#629);
#629=FILL_AREA_STYLE('Steel - Satin',(#630));
#630=FILL_AREA_STYLE_COLOUR('Steel - Satin',#631);
#631=COLOUR_RGB('Steel - Satin',0.627450980392157,0.627450980392157,0.627450980392157);
ENDSEC;
END-ISO-10303-21;
